<svg xmlns="http://www.w3.org/2000/svg" xmlns:xlink="http://www.w3.org/1999/xlink" width="113" height="113" viewBox="0 0 113 113">
  <defs>
    <filter id="Trazado_982547" x="0" y="0" width="113" height="113" filterUnits="userSpaceOnUse">
      <feOffset dy="3" input="SourceAlpha"/>
      <feGaussianBlur stdDeviation="3" result="blur"/>
      <feFlood flood-opacity="0.161"/>
      <feComposite operator="in" in2="blur"/>
      <feComposite in="SourceGraphic"/>
    </filter>
  </defs>
  <g id="Grupo_1168704" data-name="Grupo 1168704" transform="translate(-171.487 -1030.614)">
    <g id="Grupo_1168178" data-name="Grupo 1168178" transform="translate(180.487 1036.614)">
      <g id="Grupo_1166845" data-name="Grupo 1166845" transform="translate(0)">
        <g id="Grupo_1166720" data-name="Grupo 1166720">
          <g id="Grupo_1164305" data-name="Grupo 1164305">
            <g id="Grupo_1163948" data-name="Grupo 1163948">
              <g id="Grupo_1158168" data-name="Grupo 1158168">
                <g id="Grupo_1152576" data-name="Grupo 1152576">
                  <g id="Grupo_1148633" data-name="Grupo 1148633">
                    <g id="Grupo_1148525" data-name="Grupo 1148525">
                      <g transform="matrix(1, 0, 0, 1, -9, -6)" filter="url(#Trazado_982547)">
                        <g id="Trazado_982547-2" data-name="Trazado 982547" transform="translate(9 6)" fill="#e4f2f4">
                          <path d="M 47.5 93.5 C 41.28937149047852 93.5 35.26533508300781 92.28397369384766 29.59518623352051 89.88570404052734 C 24.11771965026855 87.56893157958984 19.19813346862793 84.25196075439453 14.97309303283691 80.02691650390625 C 10.74804019927979 75.80186462402344 7.431066513061523 70.88229370117188 5.114293098449707 65.40481567382812 C 2.716026782989502 59.73468017578125 1.5 53.71062850952148 1.5 47.5 C 1.5 41.28937149047852 2.716026782989502 35.26533508300781 5.114293098449707 29.59518623352051 C 7.431066513061523 24.11771965026855 10.74804019927979 19.19813346862793 14.97309303283691 14.97309303283691 C 19.19813346862793 10.74804019927979 24.11771965026855 7.431066513061523 29.59518623352051 5.114293098449707 C 35.26533508300781 2.716026782989502 41.28937149047852 1.5 47.5 1.5 C 53.71062850952148 1.5 59.73468017578125 2.716026782989502 65.40481567382812 5.114293098449707 C 70.88229370117188 7.431066513061523 75.80186462402344 10.74804019927979 80.02691650390625 14.97309303283691 C 84.25196075439453 19.19813346862793 87.56893157958984 24.11771965026855 89.88570404052734 29.59518623352051 C 92.28397369384766 35.26533508300781 93.5 41.28937149047852 93.5 47.5 C 93.5 53.71062850952148 92.28397369384766 59.73468017578125 89.88570404052734 65.40481567382812 C 87.56893157958984 70.88229370117188 84.25196075439453 75.80186462402344 80.02691650390625 80.02691650390625 C 75.80186462402344 84.25196075439453 70.88229370117188 87.56893157958984 65.40481567382812 89.88570404052734 C 59.73468017578125 92.28397369384766 53.71062850952148 93.5 47.5 93.5 Z" stroke="none"/>
                          <path d="M 47.5 3 C 41.49121475219727 3 35.66376876831055 4.176155090332031 30.17950439453125 6.495796203613281 C 24.88084411621094 8.736953735351562 20.12152099609375 11.94598388671875 16.03375244140625 16.03375244140625 C 11.94598388671875 20.12152099609375 8.736953735351562 24.88084411621094 6.495796203613281 30.17950439453125 C 4.176155090332031 35.66376876831055 3 41.49121475219727 3 47.5 C 3 53.50878524780273 4.176155090332031 59.33623123168945 6.495796203613281 64.82049560546875 C 8.736953735351562 70.11915588378906 11.94598388671875 74.87847900390625 16.03375244140625 78.96624755859375 C 20.12152099609375 83.05401611328125 24.88084411621094 86.26304626464844 30.17950439453125 88.50419616699219 C 35.66376876831055 90.82384490966797 41.49121475219727 92 47.5 92 C 53.50878524780273 92 59.33623123168945 90.82384490966797 64.82049560546875 88.50419616699219 C 70.11915588378906 86.26304626464844 74.87847900390625 83.05401611328125 78.96624755859375 78.96624755859375 C 83.05401611328125 74.87847900390625 86.26304626464844 70.11915588378906 88.50419616699219 64.82049560546875 C 90.82384490966797 59.33623123168945 92 53.50878524780273 92 47.5 C 92 41.49121475219727 90.82384490966797 35.66376876831055 88.50419616699219 30.17950439453125 C 86.26304626464844 24.88084411621094 83.05401611328125 20.12152099609375 78.96624755859375 16.03375244140625 C 74.87847900390625 11.94598388671875 70.11915588378906 8.736953735351562 64.82049560546875 6.495796203613281 C 59.33623123168945 4.176155090332031 53.50878524780273 3 47.5 3 M 47.5 0 C 73.7335205078125 0 95 21.2664794921875 95 47.5 C 95 73.7335205078125 73.7335205078125 95 47.5 95 C 21.2664794921875 95 0 73.7335205078125 0 47.5 C 0 21.2664794921875 21.2664794921875 0 47.5 0 Z" stroke="none" fill="#01899b"/>
                        </g>
                      </g>
                    </g>
                  </g>
                </g>
              </g>
            </g>
          </g>
        </g>
      </g>
    </g>
    <g id="contabilidad" transform="translate(199.487 1055.615)">
      <path id="Trazado_1013554" data-name="Trazado 1013554" d="M94.289,40H64V91.113h41.647V51.358H94.289Zm0,0" transform="translate(-56.428 -35.268)" fill="#dcf4ca"/>
      <path id="Trazado_1013555" data-name="Trazado 1013555" d="M136,274.5h33.129V248C169.129,261.6,152.219,274.5,136,274.5Zm0,0" transform="translate(-119.909 -218.659)" fill="#c9eeae"/>
      <path id="Trazado_1013556" data-name="Trazado 1013556" d="M9.893,8H30.717A1.893,1.893,0,0,1,32.61,9.893V36.4a1.893,1.893,0,0,1-1.893,1.893H9.893A1.893,1.893,0,0,1,8,36.4V9.893A1.893,1.893,0,0,1,9.893,8Zm0,0" transform="translate(-7.054 -7.054)" fill="#d1e7f8"/>
      <path id="Trazado_1013557" data-name="Trazado 1013557" d="M320,51.358h11.358L320,40Zm0,0" transform="translate(-282.139 -35.268)" fill="#006df0"/>
      <path id="Trazado_1013558" data-name="Trazado 1013558" d="M32,32H50.931v4.733H32Zm0,0" transform="translate(-28.214 -28.215)" fill="#88f236"/>
      <g id="Grupo_1168703" data-name="Grupo 1168703" transform="translate(4.732 11.357)">
        <path id="Trazado_1013559" data-name="Trazado 1013559" d="M40.947,96H42.84a.947.947,0,0,1,.947.947V98.84a.947.947,0,0,1-.947.947H40.947A.947.947,0,0,1,40,98.84V96.947A.947.947,0,0,1,40.947,96Zm0,0" transform="translate(-40 -96)" fill="#006df0"/>
        <path id="Trazado_1013560" data-name="Trazado 1013560" d="M96.947,96H98.84a.947.947,0,0,1,.947.947V98.84a.947.947,0,0,1-.947.947H96.947A.947.947,0,0,1,96,98.84V96.947A.947.947,0,0,1,96.947,96Zm0,0" transform="translate(-89.374 -96)" fill="#006df0"/>
        <path id="Trazado_1013561" data-name="Trazado 1013561" d="M152.947,96h1.893a.947.947,0,0,1,.947.947V98.84a.947.947,0,0,1-.947.947h-1.893A.947.947,0,0,1,152,98.84V96.947A.947.947,0,0,1,152.947,96Zm0,0" transform="translate(-138.749 -96)" fill="#006df0"/>
        <path id="Trazado_1013562" data-name="Trazado 1013562" d="M40.947,152H42.84a.947.947,0,0,1,.947.947v1.893a.947.947,0,0,1-.947.947H40.947A.947.947,0,0,1,40,154.84v-1.893A.947.947,0,0,1,40.947,152Zm0,0" transform="translate(-40 -145.374)" fill="#006df0"/>
        <path id="Trazado_1013563" data-name="Trazado 1013563" d="M96.947,152H98.84a.947.947,0,0,1,.947.947v1.893a.947.947,0,0,1-.947.947H96.947A.947.947,0,0,1,96,154.84v-1.893A.947.947,0,0,1,96.947,152Zm0,0" transform="translate(-89.374 -145.374)" fill="#006df0"/>
        <path id="Trazado_1013564" data-name="Trazado 1013564" d="M152.947,152h1.893a.947.947,0,0,1,.947.947v1.893a.947.947,0,0,1-.947.947h-1.893a.947.947,0,0,1-.947-.947v-1.893A.947.947,0,0,1,152.947,152Zm0,0" transform="translate(-138.749 -145.374)" fill="#006df0"/>
        <path id="Trazado_1013565" data-name="Trazado 1013565" d="M40.947,208H42.84a.947.947,0,0,1,.947.947v1.893a.947.947,0,0,1-.947.947H40.947A.947.947,0,0,1,40,210.84v-1.893A.947.947,0,0,1,40.947,208Zm0,0" transform="translate(-40 -194.749)" fill="#006df0"/>
        <path id="Trazado_1013566" data-name="Trazado 1013566" d="M96.947,208H98.84a.947.947,0,0,1,.947.947v1.893a.947.947,0,0,1-.947.947H96.947A.947.947,0,0,1,96,210.84v-1.893A.947.947,0,0,1,96.947,208Zm0,0" transform="translate(-89.374 -194.749)" fill="#006df0"/>
      </g>
      <path id="Trazado_1013567" data-name="Trazado 1013567" d="M437.152,259.467a1.893,1.893,0,0,0-2.677-2.677l-1.338,1.338,2.678,2.678Zm0,0" transform="translate(-381.89 -225.919)" fill="#d1d3d4"/>
      <path id="Trazado_1013568" data-name="Trazado 1013568" d="M290.285,302.024,288,306.986l4.963-2.285,12.887-12.888-2.677-2.677Zm0,0" transform="translate(-253.926 -254.928)" fill="#ed1c24"/>
      <path id="Trazado_1013569" data-name="Trazado 1013569" d="M416.234,274.241l2-2,2.677,2.677-2,2Zm0,0" transform="translate(-366.987 -240.033)" fill="#f7941d"/>
      <path id="Trazado_1013570" data-name="Trazado 1013570" d="M129.038,304.519A8.519,8.519,0,1,1,120.519,296,8.519,8.519,0,0,1,129.038,304.519Zm0,0" transform="translate(-98.749 -260.979)" fill="#ff9811"/>
      <path id="Trazado_1013571" data-name="Trazado 1013571" d="M40,137.038H58.931a1.9,1.9,0,0,0,1.893-1.893V120C60.824,129.417,51.51,137.038,40,137.038Zm0,0" transform="translate(-35.268 -105.803)" fill="#c2dff6"/>
      <path id="Trazado_1013572" data-name="Trazado 1013572" d="M152.947,208h1.893a.947.947,0,0,1,.947.947v1.893a.947.947,0,0,1-.947.947h-1.893a.947.947,0,0,1-.947-.947v-1.893A.947.947,0,0,1,152.947,208Zm0,0" transform="translate(-134.016 -183.391)" fill="#006df0"/>
      <path id="Trazado_1013573" data-name="Trazado 1013573" d="M113.465,288a9.465,9.465,0,1,0,9.465,9.465A9.465,9.465,0,0,0,113.465,288Zm0,17.038a7.572,7.572,0,1,1,7.572-7.572A7.572,7.572,0,0,1,113.465,305.038Zm0,0" transform="translate(-91.696 -253.926)"/>
      <path id="Trazado_1013574" data-name="Trazado 1013574" d="M155.786,322.84c1.156,0,1.893.56,1.893.947h1.893c0-1.345-1.191-2.434-2.84-2.745V320H154.84v1.041c-1.648.308-2.84,1.4-2.84,2.745,0,1.593,1.663,2.84,3.786,2.84,1.156,0,1.893.56,1.893.947s-.737.947-1.893.947-1.893-.56-1.893-.947H152c0,1.345,1.191,2.434,2.84,2.745v1.041h1.893v-1.041c1.648-.308,2.84-1.4,2.84-2.745,0-1.593-1.663-2.84-3.786-2.84-1.156,0-1.893-.56-1.893-.947S154.63,322.84,155.786,322.84Zm0,0" transform="translate(-134.016 -282.14)"/>
      <path id="Trazado_1013575" data-name="Trazado 1013575" d="M48.273,54.9H8.518V32.181H23.663a2.84,2.84,0,0,0,2.84-2.84V5.678H36.914V17.037H48.273V30.288h1.893V15.7L38.253,3.785H26.5V2.839A2.84,2.84,0,0,0,23.663,0H2.839A2.84,2.84,0,0,0,0,2.839v26.5a2.84,2.84,0,0,0,2.84,2.84H6.625v24.61h43.54V43.539H48.272ZM38.807,7.017l8.127,8.127H38.807ZM1.893,29.342V2.839a.947.947,0,0,1,.947-.947H23.663a.947.947,0,0,1,.947.947v26.5a.947.947,0,0,1-.947.947H2.839a.947.947,0,0,1-.947-.947Zm0,0" transform="translate(0 0)"/>
      <path id="Trazado_1013576" data-name="Trazado 1013576" d="M256,200h1.893v1.893H256Zm0,0" transform="translate(-225.712 -176.338)"/>
      <path id="Trazado_1013577" data-name="Trazado 1013577" d="M288,200h11.358v1.893H288Zm0,0" transform="translate(-253.925 -176.338)"/>
      <path id="Trazado_1013578" data-name="Trazado 1013578" d="M256,168h1.893v1.893H256Zm0,0" transform="translate(-225.712 -148.124)"/>
      <path id="Trazado_1013579" data-name="Trazado 1013579" d="M288,168h11.358v1.893H288Zm0,0" transform="translate(-253.925 -148.124)"/>
      <path id="Trazado_1013580" data-name="Trazado 1013580" d="M256,232h1.893v1.893H256Zm0,0" transform="translate(-225.712 -204.552)"/>
      <path id="Trazado_1013581" data-name="Trazado 1013581" d="M288,232h11.358v1.893H288Zm0,0" transform="translate(-253.925 -204.552)"/>
      <path id="Trazado_1013582" data-name="Trazado 1013582" d="M256,264h1.893v1.893H256Zm0,0" transform="translate(-225.712 -232.765)"/>
      <path id="Trazado_1013583" data-name="Trazado 1013583" d="M288,264h11.358v1.893H288Zm0,0" transform="translate(-253.925 -232.765)"/>
      <path id="Trazado_1013584" data-name="Trazado 1013584" d="M44.824,24H24v6.626H44.824Zm-1.893,4.733H25.893v-2.84H42.931Zm0,0" transform="translate(-21.161 -21.161)"/>
      <path id="Trazado_1013585" data-name="Trazado 1013585" d="M35.786,88H33.893A1.893,1.893,0,0,0,32,89.893v1.893a1.893,1.893,0,0,0,1.893,1.893h1.893a1.893,1.893,0,0,0,1.893-1.893V89.893A1.893,1.893,0,0,0,35.786,88Zm-1.893,3.786V89.893h1.893v1.893Zm0,0" transform="translate(-28.214 -77.589)"/>
      <path id="Trazado_1013586" data-name="Trazado 1013586" d="M91.786,88H89.893A1.893,1.893,0,0,0,88,89.893v1.893a1.893,1.893,0,0,0,1.893,1.893h1.893a1.893,1.893,0,0,0,1.893-1.893V89.893A1.893,1.893,0,0,0,91.786,88Zm-1.893,3.786V89.893h1.893v1.893Zm0,0" transform="translate(-77.589 -77.589)"/>
      <path id="Trazado_1013587" data-name="Trazado 1013587" d="M147.786,88h-1.893A1.893,1.893,0,0,0,144,89.893v1.893a1.893,1.893,0,0,0,1.893,1.893h1.893a1.893,1.893,0,0,0,1.893-1.893V89.893A1.893,1.893,0,0,0,147.786,88Zm-1.893,3.786V89.893h1.893v1.893Zm0,0" transform="translate(-126.963 -77.589)"/>
      <path id="Trazado_1013588" data-name="Trazado 1013588" d="M35.786,144H33.893A1.893,1.893,0,0,0,32,145.893v1.893a1.893,1.893,0,0,0,1.893,1.893h1.893a1.893,1.893,0,0,0,1.893-1.893v-1.893A1.893,1.893,0,0,0,35.786,144Zm-1.893,3.786v-1.893h1.893v1.893Zm0,0" transform="translate(-28.214 -126.963)"/>
      <path id="Trazado_1013589" data-name="Trazado 1013589" d="M91.786,144H89.893A1.893,1.893,0,0,0,88,145.893v1.893a1.893,1.893,0,0,0,1.893,1.893h1.893a1.893,1.893,0,0,0,1.893-1.893v-1.893A1.893,1.893,0,0,0,91.786,144Zm-1.893,3.786v-1.893h1.893v1.893Zm0,0" transform="translate(-77.589 -126.963)"/>
      <path id="Trazado_1013590" data-name="Trazado 1013590" d="M147.786,144h-1.893A1.893,1.893,0,0,0,144,145.893v1.893a1.893,1.893,0,0,0,1.893,1.893h1.893a1.893,1.893,0,0,0,1.893-1.893v-1.893A1.893,1.893,0,0,0,147.786,144Zm-1.893,3.786v-1.893h1.893v1.893Zm0,0" transform="translate(-126.963 -126.963)"/>
      <path id="Trazado_1013591" data-name="Trazado 1013591" d="M35.786,200H33.893A1.893,1.893,0,0,0,32,201.893v1.893a1.893,1.893,0,0,0,1.893,1.893h1.893a1.893,1.893,0,0,0,1.893-1.893v-1.893A1.893,1.893,0,0,0,35.786,200Zm-1.893,3.786v-1.893h1.893v1.893Zm0,0" transform="translate(-28.214 -176.338)"/>
      <path id="Trazado_1013592" data-name="Trazado 1013592" d="M91.786,200H89.893A1.893,1.893,0,0,0,88,201.893v1.893a1.893,1.893,0,0,0,1.893,1.893h1.893a1.893,1.893,0,0,0,1.893-1.893v-1.893A1.893,1.893,0,0,0,91.786,200Zm-1.893,3.786v-1.893h1.893v1.893Zm0,0" transform="translate(-77.589 -176.338)"/>
      <path id="Trazado_1013593" data-name="Trazado 1013593" d="M147.786,200h-1.893A1.893,1.893,0,0,0,144,201.893v1.893a1.893,1.893,0,0,0,1.893,1.893h1.893a1.893,1.893,0,0,0,1.893-1.893v-1.893A1.893,1.893,0,0,0,147.786,200Zm-1.893,3.786v-1.893h1.893v1.893Zm0,0" transform="translate(-126.963 -176.338)"/>
      <path id="Trazado_1013594" data-name="Trazado 1013594" d="M302.815,249.271a2.907,2.907,0,0,0-4.015,0L282.574,265.5a.958.958,0,0,0-.189.274l-2.285,4.962a.947.947,0,0,0,1.255,1.255l4.962-2.285a.949.949,0,0,0,.274-.19l16.225-16.226a2.839,2.839,0,0,0,0-4.016ZM285.37,268.053l-2.48,1.142,1.142-2.48,12.1-12.1,1.338,1.338Zm13.44-13.441-1.338-1.338.663-.663,1.338,1.338Zm2.669-2.669-.669.669-1.338-1.338.67-.669a.968.968,0,0,1,1.337,0A.947.947,0,0,1,301.48,251.943Zm0,0" transform="translate(-246.883 -219.07)"/>
    </g>
  </g>
</svg>
