<svg xmlns="http://www.w3.org/2000/svg" xmlns:xlink="http://www.w3.org/1999/xlink" width="505" height="352" viewBox="0 0 505 352">
  <defs>
    <clipPath id="clip-path">
      <rect id="Rectángulo_413865" data-name="Rectángulo 413865" width="505" height="352" transform="translate(180.487 1472.614)" fill="#fff" stroke="#707070" stroke-width="1" opacity="0.92"/>
    </clipPath>
    <linearGradient id="linear-gradient" x1="0.5" y1="0.946" x2="0.5" y2="0.17" gradientUnits="objectBoundingBox">
      <stop offset="0" stop-color="#1e2b56"/>
      <stop offset="1" stop-color="#354986"/>
    </linearGradient>
    <linearGradient id="linear-gradient-2" x1="0.29" y1="-0.026" x2="0.669" y2="0.924" gradientUnits="objectBoundingBox">
      <stop offset="0" stop-color="#c900ff"/>
      <stop offset="1" stop-color="#8900ae"/>
    </linearGradient>
    <linearGradient id="linear-gradient-3" y1="0.5" x2="1" y2="0.5" gradientUnits="objectBoundingBox">
      <stop offset="0" stop-color="#349cff"/>
      <stop offset="1" stop-color="#2f85fe"/>
    </linearGradient>
    <linearGradient id="linear-gradient-4" x1="0.768" y1="1.123" x2="0.358" y2="0.171" gradientUnits="objectBoundingBox">
      <stop offset="0" stop-color="#f6070c"/>
      <stop offset="1" stop-color="#f95d5e"/>
    </linearGradient>
    <linearGradient id="linear-gradient-5" y1="0.5" x2="1" y2="0.5" gradientUnits="objectBoundingBox">
      <stop offset="0" stop-color="#30a781"/>
      <stop offset="1" stop-color="#64ca77"/>
    </linearGradient>
  </defs>
  <g id="Enmascarar_grupo_1098787" data-name="Enmascarar grupo 1098787" transform="translate(-180.487 -1472.614)" clip-path="url(#clip-path)">
    <g id="_251283652_d2a1b688-a977-4cab-85d4-8090ac55ad14" data-name="251283652_d2a1b688-a977-4cab-85d4-8090ac55ad14" transform="translate(95.408 1420.592)">
      <g id="Layer_2" transform="translate(23.283 51.95)">
        <g id="Grupo_1168930" data-name="Grupo 1168930">
          <g id="Grupo_1168893" data-name="Grupo 1168893" transform="translate(61.31 39.884)">
            <path id="Trazado_1015200" data-name="Trazado 1015200" d="M591.59,491.031a30.654,30.654,0,0,1-3.826,15.012v0h0c-.115.207-.235.409-.354.611s-.241.4-.365.6v.005a26.733,26.733,0,0,1-3.854,4.782c-.126.123-.251.244-.381.362-.088.081-.176.163-.264.239-.048.044-.1.089-.145.13-.136.123-.274.241-.415.359-.119.1-.239.2-.36.3s-.214.175-.323.259q-.377.3-.764.576c-.107.079-.216.155-.325.229-.08.059-.159.116-.241.172a.3.3,0,0,1-.038.022q-.157.107-.314.207c-.065.044-.132.086-.2.13l-.115.074-.12.074c-.067.039-.132.081-.2.121-.1.064-.214.128-.32.192h0l-.327.185-.019.01c-.1.057-.205.113-.308.168-.488.264-.982.5-1.487.724-.094.042-.189.084-.285.123-.239.1-.48.2-.72.291-.067.025-.134.052-.2.074-.14.049-.279.1-.419.148-.239.084-.482.16-.725.234a19.458,19.458,0,0,1-2.052.5c-.04.007-.078.015-.117.02-.056.012-.113.022-.169.032a19.427,19.427,0,0,1-2.92.293c-.174,0-.348.01-.526.01H498.676c-.107,0-.211,0-.318,0l-.241.007-.078,0c-.032,0-.065,0-.1.005-.3.017-.6.042-.9.079-.084.01-.168.02-.251.034-.065.007-.128.015-.191.027-.032,0-.063.007-.094.012l-.1.017c-.1.02-.2.037-.3.057-.031.005-.063.01-.094.017q-.2.041-.4.089c-.057.01-.111.022-.165.037-.208.049-.413.106-.618.167-.146.042-.293.086-.438.135-.046.015-.092.029-.136.047s-.1.032-.157.052c-.036.015-.069.027-.1.039-.247.091-.49.187-.733.291-.008,0-.01,0-.017.01q-.141.059-.283.126c-.079.037-.157.074-.234.108a.661.661,0,0,1-.071.034c-.153.076-.306.153-.457.232-.128.069-.256.14-.383.212l-.1.059c-.04.022-.08.047-.12.071s-.1.057-.142.086c-.078.044-.155.094-.23.143l-.113.074c-.057.034-.111.069-.165.106-.032.022-.063.044-.094.064,0,0,0,0,0,0-.031.02-.061.039-.092.062s-.092.061-.136.1c-.107.074-.211.15-.314.227-.086.064-.174.128-.26.2-.239.185-.473.377-.7.579-.063.054-.124.108-.184.163l-.042.037c-.052.044-.1.089-.149.136-.258.239-.511.487-.754.744-.006,0-.015.015-.023.022-.029.03-.057.062-.086.094-.069.071-.136.145-.2.219-.025.027-.05.054-.073.084-.092.1-.182.2-.27.31-.057.067-.113.133-.165.2s-.111.136-.165.2q-.195.24-.377.487l-.1.123c-.033.049-.069.1-.1.145-.094.128-.186.261-.274.394-.163.236-.32.48-.469.726l-.082.133c-.082.138-.163.276-.243.416s-.174.308-.255.465-.157.3-.233.453c-.115.228-.223.461-.328.7-.071.158-.138.319-.205.48s-.126.3-.185.446c-.03.075-.057.15-.086.226-.072.19-.141.382-.207.577q-.132.377-.245.761c-.019.064-.037.13-.056.194-.034.12-.069.243-.1.362s-.061.229-.088.345c-.015.059-.032.118-.046.175a.257.257,0,0,0-.008.037c-.017.069-.033.138-.046.209l-.038.153c-.01.049-.021.1-.032.153-.056.255-.1.514-.149.771-.014.08-.029.16-.042.241s-.025.15-.036.227c-.008.047-.015.1-.023.143s-.017.113-.023.167c-.024.173-.04.349-.059.524-.054.49-.1.984-.121,1.488-.017.315-.023.635-.023.955,0,.16,0,.318.006.475.006.318.021.633.042.946.01.16.023.323.038.483.006.121.019.236.034.354s.023.217.036.325c.01.088.022.175.034.263.022.159.045.319.069.478.006.042.01.084.019.126s.01.076.019.113c.008.054.019.108.029.162.01.074.023.15.038.224q.044.236.094.473c.017.081.034.165.052.246s.038.167.057.251c.012.047.023.094.036.14.017.071.036.143.052.217.034.136.069.271.1.4l.063.224c.084.293.176.586.272.874s.195.554.3.83l.044.118.069.172c.015.039.032.076.048.116.038.088.075.18.111.271q.032.066.057.133c.115.266.235.524.364.783,0,0,0,0,0,0q.189.384.394.761c.109.2.22.394.335.589.061.1.121.2.182.3.042.069.086.138.13.207,0,0,0,0,0,0,.038.059.075.118.115.175q.085.136.176.266c.031.047.061.093.092.138l.086.118c.159.229.323.451.494.67.031.044.065.089.1.13a.752.752,0,0,0,.052.064c.033.044.069.086.107.13s.067.086.1.128c.1.128.21.254.318.374.038.042.073.084.111.123s.052.061.078.089c.04.047.08.091.119.133l.08.081c.092.1.186.2.281.3s.193.192.289.286c.029.032.059.061.09.091s.088.084.134.123.086.077.129.116c.18.163.361.324.548.479.1.086.2.172.308.256h0c.157.126.314.246.475.362.073.057.149.111.224.16a1.442,1.442,0,0,0,.166.116c.034.025.067.044.1.067.057.037.111.076.165.113s.109.071.166.106.092.062.14.091l.01.007c.071.044.143.085.214.127q.177.107.357.208c.129.072.258.144.388.212.075.042.149.079.226.116a.207.207,0,0,0,.04.02c.159.081.318.155.48.227.036.02.073.034.111.052s.082.034.124.052c.258.113.522.214.787.313.241.086.484.168.731.241.075.025.151.047.226.064a.894.894,0,0,0,.111.029.812.812,0,0,0,.1.03c.057.017.113.032.172.044.079.02.158.036.237.054l.255.057.094.022c.08.017.157.032.239.047a.33.33,0,0,1,.055.01c.21.037.419.069.63.1.061.01.119.017.18.025.124.017.245.029.369.037h.015a3.425,3.425,0,0,0,.389.03h.015q.144.011.289.015c.036,0,.069,0,.1,0l.1.005c.1,0,.2,0,.3,0h47.857c.1,0,.205,0,.308,0l.281.007c.113,0,.226.008.337.015l.306.022c.189.015.375.032.561.052a.153.153,0,0,1,.033,0,.127.127,0,0,1,.034.005c.149.015.3.037.446.057s.3.042.444.066l.436.081a.526.526,0,0,1,.063.01.119.119,0,0,1,.027.007c.057.01.113.022.168.034s.122.027.184.042c.2.044.392.091.586.14s.385.108.578.165c.063.02.126.037.186.057s.123.039.184.062c.1.034.21.071.312.108s.226.076.337.121c.128.044.255.094.381.143l.063.027c.113.044.224.094.337.143.149.064.3.128.44.194.057.025.113.052.168.079.029.012.057.027.086.042l.178.089c.038.02.075.037.111.054.057.027.113.056.168.086.013.007.027.015.042.024.054.029.109.057.161.084.124.066.247.133.371.2s.278.16.417.244c.274.17.547.34.813.522l.09.059c.063.042.126.086.187.131a.148.148,0,0,1,.025.02c.065.044.13.089.193.135q.44.314.863.662l.182.153.163.138c.052.044.107.091.159.138.082.069.161.14.241.209a.32.32,0,0,1,.04.039l.163.148c.065.059.128.118.191.18.119.116.241.234.36.352s.241.241.358.367.235.249.35.377c.073.081.151.165.224.249.042.047.082.094.121.14l.109.128c.121.143.243.288.362.436.23.283.452.571.666.869a.587.587,0,0,1,.055.074l.153.214q.547.776,1.03,1.61c.04.066.08.135.119.2q.4.7.758,1.443l.113.234.05.111c.036.079.073.16.107.239s.079.175.117.261l.046.106c.055.121.1.244.153.367,0,0,0,0,0,0a0,0,0,0,0,0,0c.015.034.029.066.042.1.025.054.046.111.067.167.015.035.027.069.04.1.048.123.1.241.14.364.071.185.138.372.2.559.025.071.05.143.073.214.044.131.086.259.126.389.071.214.136.431.2.648.048.175.1.347.142.522.031.113.061.224.086.337.017.067.034.131.048.2s.027.108.04.163q.151.628.264,1.273c.025.148.05.3.078.451.034.192.063.386.088.581.01.067.019.133.029.2.013.084.023.17.031.256.021.162.04.328.057.49s.034.33.046.5c.006.064.013.131.017.194s.01.113.013.17.006.106.01.16q.019.27.031.547a.205.205,0,0,1,0,.034c.006.172.01.345.015.517,0,.108,0,.216.006.322s0,.217,0,.325,0,.212,0,.318,0,.209-.006.313-.006.226-.01.337-.006.231-.015.345l-.013.261c0,.086-.013.172-.019.258s-.01.158-.015.237-.013.158-.021.236-.01.145-.017.219c-.01.116-.023.232-.035.347-.017.155-.034.308-.055.463q-.015.115-.031.229c-.036.276-.078.547-.123.817-.008.061-.019.121-.029.18-.021.121-.042.239-.067.357-.01.057-.023.116-.033.175l-.025.135c-.027.135-.055.271-.086.406s-.052.241-.082.359l-.044.177c-.05.214-.1.426-.161.635q-.044.177-.094.347c-.027.094-.057.185-.084.278-.059.2-.117.391-.18.586-.057.177-.117.354-.178.532,0,.015-.01.029-.015.044-.063.172-.126.347-.191.519a.1.1,0,0,1-.013.032c-.04.106-.08.212-.122.315s-.086.219-.132.327c-.031.081-.067.16-.1.241-.046.113-.092.222-.142.332q-.126.281-.258.561c-.082.18-.17.357-.26.534s-.191.372-.289.556q-.185.351-.388.694c-.05.089-.1.175-.157.263s-.094.158-.142.236q-.223.366-.459.719c-.027.037-.052.074-.08.111s-.069.1-.1.155-.071.1-.107.155-.069.1-.1.148-.075.106-.115.16l-.151.2c-.055.074-.107.145-.161.217s-.111.143-.166.214c-.258.33-.526.652-.8.963-.061.069-.122.138-.182.2a.215.215,0,0,1-.029.032c-.063.071-.128.14-.193.209l-.172.18c-.059.062-.115.121-.174.18s-.1.108-.157.158a.968.968,0,0,1-.071.071c-.063.064-.126.123-.191.182-.034.034-.069.071-.1.1a19.139,19.139,0,0,1-2.084,1.724c-.132.094-.264.187-.4.276-.1.069-.2.138-.306.2s-.205.131-.31.192c-.059.039-.122.079-.182.116s-.153.094-.23.135a.17.17,0,0,1-.036.017l-.211.126c-.071.042-.142.081-.216.118-.1.054-.195.106-.293.157s-.2.1-.3.155-.184.091-.277.133-.184.086-.276.128c-.042.017-.082.037-.122.054-.1.047-.207.094-.314.138-.163.069-.327.136-.492.2-.092.037-.186.071-.281.106-.149.054-.3.108-.45.16s-.306.1-.461.145c-.306.091-.616.175-.926.254-.146.034-.293.069-.442.1-.094.02-.186.039-.281.057-.186.037-.375.072-.563.1-.119.02-.241.037-.362.054a.009.009,0,0,1-.01,0c-.255.034-.513.064-.773.084l-.17.015c-.057,0-.113.01-.17.012a1.981,1.981,0,0,1-.207.01c-.132.01-.262.017-.394.022-.163,0-.329.01-.494.01H507.3c-.12,0-.239,0-.358.005s-.255.01-.383.02c-.228.017-.452.039-.677.069-.117.017-.23.034-.348.054-.086.012-.172.027-.256.044-.029,0-.059.01-.088.015s-.036.007-.052.012c-.1.02-.195.042-.291.066-.113.025-.226.052-.337.084-.226.062-.45.128-.672.207-.113.037-.222.079-.333.121l-.071.025a.581.581,0,0,0-.056.024c-.218.081-.431.175-.641.273l-.1.044-.149.074q-.094.044-.188.1a.461.461,0,0,0-.052.027l-.233.126c-.138.076-.272.155-.406.239s-.266.167-.4.254q-.126.081-.245.17c-.2.135-.387.278-.576.429a.143.143,0,0,1-.023.017c-.075.059-.149.118-.22.182-.163.136-.323.276-.478.419-.073.066-.149.138-.22.209s-.159.155-.237.234c-.149.153-.3.31-.438.47-.071.081-.142.162-.212.244-.088.1-.174.207-.258.313a.147.147,0,0,0-.017.02,1.658,1.658,0,0,0-.111.141c-.008.01-.015.022-.023.032a.857.857,0,0,0-.056.074c-.05.062-.1.123-.142.187-.015.017-.029.037-.042.054-.038.049-.073.1-.115.158-.073.108-.149.214-.222.328-.063.091-.124.185-.182.278-.038.057-.073.116-.109.175-.048.079-.1.155-.142.234-.088.148-.174.3-.258.453-.056.1-.109.194-.159.293,0,0,0,0,0,0-.05.1-.1.2-.151.3a16.025,16.025,0,0,0-.676,1.6c-.033.1-.067.192-.1.288-.025.071-.048.143-.071.214-.033.1-.065.209-.1.313a.175.175,0,0,0-.013.042c-.013.037-.025.076-.036.116s-.021.074-.029.108q-.054.185-.1.369c0,.022-.01.042-.015.064-.034.123-.061.246-.088.369l-.032.136c-.01.047-.021.091-.029.135s-.021.1-.031.153l-.013.071c-.023.108-.044.217-.061.327s-.042.237-.059.355-.031.219-.046.327c0,.027-.006.054-.01.081-.015.1-.025.195-.036.291,0,.044-.008.089-.013.133q-.019.177-.031.354l-.013.143c0,.032,0,.066,0,.1,0,.066-.01.13-.013.194-.013.17-.019.337-.023.507,0,.148-.006.293-.006.441,0,.089,0,.172,0,.258,0,.044,0,.089,0,.131s0,.084,0,.126v.037c0,.067.006.136.01.2a16.907,16.907,0,0,0,.235,2.181c.019.118.042.236.065.354q.072.362.157.716c.054.224.113.443.176.662.034.113.067.227.1.337s.071.221.109.33.082.244.126.364c.073.2.149.4.23.6.163.4.343.788.536,1.165.1.2.205.4.316.589.035.064.071.128.109.19s.067.111.1.17c.059.1.119.192.178.288.124.192.249.379.379.564.023.035.046.066.069.1a.064.064,0,0,0,.015.02c.038.054.075.1.113.155.055.074.107.145.161.214l.071.091c.117.153.239.3.36.446.14.165.283.325.429.48.08.081.159.165.241.246s.138.143.207.212c.147.14.291.273.442.4.019.017.04.037.061.054.147.133.3.256.45.379s.335.254.5.377c0,0,0,0,0,0,.143.106.289.2.436.3.04.027.08.052.121.079.059.039.119.076.18.113.109.066.22.131.331.192.157.089.316.175.475.254l.059.03c.09.044.18.089.27.131s.191.086.287.128a2.441,2.441,0,0,0,.285.118c.17.067.341.131.515.187a.588.588,0,0,0,.067.025c.1.034.193.069.291.1.05.015.1.029.151.042l.149.042c.1.03.2.057.3.076a2.358,2.358,0,0,0,.23.052.4.4,0,0,0,.073.015l.073.017q.113.026.226.044c.113.02.224.037.34.054l.205.029.157.017c.077.007.157.017.235.022l.063.007a2.1,2.1,0,0,0,.251.017c.107.008.212.012.318.015l.1,0,.055,0c.055,0,.109,0,.159,0h17.991c.331,0,.662.005.991.029a1.825,1.825,0,0,1,.2.007c.147.005.293.015.438.029a2.856,2.856,0,0,1,.329.027l.038,0a.174.174,0,0,1,.036,0,.734.734,0,0,0,.075.007.038.038,0,0,0,.017,0,.333.333,0,0,1,.05.007.063.063,0,0,1,.023.005c.17.02.346.039.517.064s.343.049.513.079c.352.054.7.126,1.039.2h.021a0,0,0,0,1,0,0s.006,0,.008,0a.248.248,0,0,1,.061.012.016.016,0,0,1,.015.005c.26.064.519.126.775.194.111.027.22.059.329.089a.27.27,0,0,1,.061.015.1.1,0,0,1,.05.015.5.5,0,0,1,.055.017c.057.017.111.037.165.057.176.044.344.1.513.158.188.061.377.126.563.192a.134.134,0,0,1,.044.015.33.33,0,0,1,.044.02c.08.027.157.057.235.086s.157.059.234.091c.031.01.061.022.09.034.073.029.145.059.216.091q.075.03.151.066c.046.017.094.037.14.057s.094.042.14.064c.1.042.195.084.291.128l.036.015c.1.047.2.1.3.148s.2.1.3.148c.323.158.641.325.951.51l.207.111c.121.069.241.14.36.212l.356.221.172.111c.073.049.14.1.21.145.17.108.337.222.507.337.1.066.195.138.291.212.245.177.494.359.735.556.017.01.038.025.055.037l.048.042c.119.094.243.192.362.293.094.076.191.158.281.234.042.032.084.067.124.1s.084.071.123.108.082.076.121.116c.207.18.415.372.616.571a3.243,3.243,0,0,1,.362.359,3.607,3.607,0,0,1,.327.325c.134.131.266.268.4.421.233.251.467.51.693.776.1.116.195.231.291.35s.193.236.289.357c.122.155.239.308.358.463.042.052.082.106.119.157s.1.133.149.2c.069.093.138.187.2.283.044.064.088.126.132.187.057.079.109.155.161.234.075.111.151.221.224.335.059.086.117.175.172.261.036.054.071.111.107.167a.948.948,0,0,1,.057.091c.073.111.142.224.209.337.015.022.029.047.044.072l.006.007c.092.153.184.305.272.463q.459.791.867,1.623c.057.116.113.232.17.35.046.091.09.182.13.273l.1.214s0,0,0,.007q.123.266.239.539c.036.081.069.16.1.241.065.15.128.3.186.453.084.2.165.411.241.621.025.066.05.133.073.2s.063.165.092.249c.138.384.27.776.392,1.169.038.121.075.244.111.367s.071.234.1.354c.046.155.088.31.13.468.015.054.029.108.042.165.034.121.065.241.094.364.015.064.032.128.046.195.021.084.042.167.061.251a.02.02,0,0,1,0,.012c.021.086.042.172.061.261,0,.025.01.047.015.071q.154.679.272,1.374c.029.167.057.337.084.507.006.054.015.106.023.16.01.074.023.148.033.221q.025.163.044.325c.013.081.023.16.034.241q.032.24.057.48c.01.089.019.177.027.266.034.318.063.638.084.958.013.16.023.32.031.483s.017.32.023.483c0,.069.006.138.008.207.008.15.013.3.015.453v.025c.006.229.008.458.008.689s0,.471-.008.7c0,.089,0,.175-.008.263,0,.106-.006.214-.013.32,0,.007,0,.01,0,.015v0a.8.8,0,0,1-.006.1c0,.1-.008.209-.013.31,0,0,0,.007,0,.01a.065.065,0,0,1,0,.02c0,.062-.006.121-.01.18s-.006.116-.01.172c0,.094-.01.185-.019.276a.569.569,0,0,1,0,.064c-.008.089-.015.18-.023.268-.008.111-.017.219-.027.327a.95.95,0,0,1-.013.111c-.008.1-.019.192-.029.288,0,.017,0,.034,0,.042-.021.167-.04.335-.059.5-.013.106-.027.212-.04.318-.006.057-.015.111-.025.165-.01.089-.025.177-.038.266-.017.118-.034.234-.055.352-.023.162-.05.325-.08.485-.032.177-.063.35-.1.524-.029.158-.061.315-.1.47-.027.121-.054.241-.082.359-.017.084-.034.17-.052.254s-.04.167-.063.251-.042.185-.065.278c-.069.286-.144.571-.224.852-.01.03-.021.059-.031.091q-.17.613-.369,1.216c-.025.079-.05.155-.077.234-.042.128-.088.258-.134.386-.088.251-.178.5-.274.744-.075.2-.155.4-.235.6-.063.153-.126.3-.189.448a.3.3,0,0,0-.017.039c-.015.037-.031.072-.048.106-.042.1-.086.194-.13.291a.286.286,0,0,1-.017.037c-.076.17-.153.337-.234.5-.029.071-.063.14-.1.207q-.066.148-.144.3c-.063.131-.13.261-.2.391-.1.187-.195.374-.3.559s-.2.367-.306.549c-.08.143-.165.288-.251.433-.027.039-.046.076-.063.106-.044.074-.092.143-.138.217-.029.047-.059.1-.09.143l-.107.17c-.057.091-.113.18-.174.268q-.543.839-1.141,1.618c-.092.121-.186.241-.281.359,0,0,0,.007-.008.012a.432.432,0,0,1-.04.049.036.036,0,0,1-.013.015c-.065.084-.132.167-.2.249-.209.259-.425.512-.643.756-.061.066-.122.135-.18.2-.071.081-.14.158-.211.234-.111.118-.224.236-.335.352s-.247.254-.373.379c-.18.177-.362.357-.549.532-.08.074-.157.148-.237.219-.18.165-.362.325-.547.483-.153.133-.308.263-.465.389-.048.042-.1.081-.147.121-.119.093-.237.187-.358.278-.245.192-.492.374-.743.552-.04.029-.082.057-.121.086-.075.054-.153.1-.226.155-.017.012-.034.022-.052.034-.117.079-.235.158-.354.234-.029.02-.059.039-.088.057-.1.069-.211.136-.318.2-.124.074-.245.148-.367.222-.025.015-.05.032-.078.049a.2.2,0,0,1-.023.012l-.266.158c-.111.062-.224.121-.337.18s-.22.123-.331.177-.21.111-.314.16-.234.118-.354.172-.235.113-.354.167l-.084.037c-.113.052-.226.1-.341.15l-.036.015c-.176.079-.354.153-.534.224-.111.042-.224.086-.333.123-.048.02-.1.037-.149.054a1.389,1.389,0,0,1-.132.044c-.057.022-.111.042-.168.061s-.111.039-.168.057-.132.047-.2.066-.132.042-.2.061-.111.037-.168.054-.113.032-.168.049c-.126.039-.253.076-.379.108s-.255.069-.385.1a.1.1,0,0,1-.025.007.05.05,0,0,1-.025.007.007.007,0,0,1-.006,0l0,0c-.092.022-.18.047-.272.066-.046.012-.092.022-.14.032l-.143.034h0a.091.091,0,0,1-.036.007.031.031,0,0,1-.015,0c-.1.022-.2.044-.3.064s-.2.042-.3.057l-.327.059c-.128.025-.256.044-.385.064-.176.027-.352.049-.528.071l-.08.01c-.046.007-.09.012-.136.017a.831.831,0,0,0-.117.015c-.1.01-.205.02-.31.027-.2.017-.394.032-.591.044-.065.005-.136.005-.2.005s-.128.01-.191.012-.134.007-.2.007c-.2.01-.4.012-.6.012H145.7c-.377,0-.754-.01-1.125-.035a.077.077,0,0,1-.042,0l-.3-.017c-.067,0-.134-.007-.2-.015-.2-.017-.4-.034-.6-.057-.121-.012-.243-.025-.362-.039-.142-.015-.285-.034-.425-.057l-.3-.044c-.235-.037-.467-.076-.7-.121a.32.32,0,0,1-.052-.01c-.2-.039-.4-.079-.593-.123l-.128-.03c-.1-.022-.2-.047-.3-.071-.117-.027-.233-.057-.348-.089s-.233-.062-.348-.094-.23-.064-.343-.1-.23-.069-.343-.106l-.341-.111c-.086-.027-.17-.057-.253-.086s-.18-.062-.27-.1l-.138-.049c-.172-.064-.341-.128-.511-.2s-.337-.135-.5-.209c-.126-.054-.251-.108-.375-.165s-.249-.113-.373-.172q-.126-.055-.251-.118c-.147-.069-.293-.143-.438-.219s-.293-.15-.44-.229c-.113-.059-.224-.121-.335-.185-.216-.121-.429-.244-.643-.372-.14-.084-.278-.17-.417-.259l-.117-.074c-.088-.057-.176-.113-.264-.172a24.566,24.566,0,0,1-2.639-2c-.117-.1-.23-.2-.346-.308l-.233-.209c-.075-.069-.153-.14-.228-.214-.126-.118-.249-.236-.371-.357-.193-.187-.381-.376-.568-.571s-.369-.392-.549-.593c-.094-.1-.188-.212-.283-.318-.117-.133-.233-.266-.346-.4-.038-.042-.075-.086-.111-.128a.775.775,0,0,1-.055-.066c-.031-.037-.063-.076-.092-.113-.078-.094-.155-.187-.23-.283s-.153-.189-.226-.286l-.153-.2c-.052-.069-.1-.135-.155-.2l-.132-.177c-.038-.049-.073-.1-.111-.15l-.031-.047c-.04-.054-.078-.106-.113-.16s-.082-.111-.117-.165q-.2-.281-.39-.569c-.046-.069-.094-.141-.14-.212a2.456,2.456,0,0,1-.138-.212c-.063-.1-.126-.194-.184-.291s-.132-.209-.2-.315-.13-.214-.193-.323c-.077-.131-.153-.258-.228-.389s-.155-.273-.23-.411c-.052-.091-.1-.185-.151-.276s-.094-.172-.138-.258-.086-.167-.13-.251c-.117-.229-.233-.458-.343-.689l-.126-.258-.057-.121c-.048-.1-.092-.2-.138-.3-.069-.148-.136-.3-.2-.451s-.128-.3-.191-.453l-.149-.359c-.046-.118-.094-.239-.14-.36s-.088-.226-.13-.34q-.129-.333-.245-.672c-.04-.106-.077-.214-.113-.323-.011-.03-.021-.062-.031-.094-.147-.446-.287-.894-.419-1.349-.019-.064-.038-.128-.057-.194q-.054-.185-.1-.369c-.01-.042-.021-.081-.031-.123-.031-.113-.061-.229-.09-.345-.065-.249-.126-.5-.182-.751-.025-.118-.052-.236-.078-.357-.013-.057-.025-.113-.038-.172-.023-.1-.044-.2-.065-.308l-.031-.165c-.019-.1-.038-.192-.055-.286-.059-.305-.113-.611-.159-.921-.017-.1-.031-.195-.046-.293,0-.022-.008-.044-.01-.066-.013-.089-.025-.18-.036-.268-.023-.155-.044-.313-.065-.471-.042-.33-.08-.662-.109-.995-.008-.066-.015-.135-.021-.2,0-.042-.006-.084-.011-.126-.017-.187-.031-.374-.044-.564,0-.025,0-.049,0-.076-.006-.091-.013-.182-.017-.274a.658.658,0,0,1-.006-.091c-.006-.094-.013-.185-.015-.278-.008-.118-.012-.234-.015-.352-.01-.2-.017-.4-.021-.6v-.017c-.006-.251-.008-.5-.008-.751V641.337c0-.1,0-.2,0-.305,0-.025,0-.047,0-.071,0-.079,0-.158-.008-.234s-.008-.182-.015-.273c0-.01,0-.02,0-.029,0-.034,0-.069-.006-.1,0-.066-.01-.133-.017-.2-.008-.1-.019-.2-.029-.3s-.019-.175-.031-.258c-.012-.111-.027-.222-.044-.33-.023-.138-.046-.276-.071-.414-.015-.081-.031-.165-.046-.244-.033-.165-.069-.328-.109-.49-.013-.059-.027-.116-.044-.175s-.036-.138-.055-.207c-.013-.052-.027-.106-.044-.158s-.031-.1-.046-.155c-.067-.229-.14-.453-.22-.677-.008-.022-.017-.042-.025-.061a.011.011,0,0,0,0-.007.008.008,0,0,0,0,0,.194.194,0,0,0-.013-.032c-.033-.091-.067-.18-.1-.268s-.082-.2-.124-.3c-.035-.084-.071-.165-.109-.249s-.082-.177-.126-.263c-.023-.052-.048-.1-.073-.155-.048-.1-.1-.2-.153-.3-.071-.135-.145-.268-.222-.4-.031-.054-.065-.108-.1-.162s-.05-.091-.08-.135a1.4,1.4,0,0,0-.086-.135c-.033-.054-.067-.108-.1-.16-.065-.1-.13-.194-.2-.29a.126.126,0,0,1-.019-.03c-.044-.064-.09-.126-.136-.187-.082-.111-.168-.221-.253-.33-.031-.039-.063-.079-.1-.118a.007.007,0,0,0,0-.007.01.01,0,0,0-.008-.007c-.021-.027-.042-.054-.065-.081l-.069-.079c-.046-.054-.092-.108-.138-.16a1.242,1.242,0,0,0-.088-.1c-.015-.017-.031-.034-.048-.052-.084-.094-.17-.182-.256-.271l-.186-.185q-.094-.092-.188-.177a.034.034,0,0,1-.008-.007c-.033-.032-.069-.062-.1-.091a.279.279,0,0,0-.025-.025.236.236,0,0,1-.025-.024c-.013-.007-.023-.017-.036-.025-.11-.1-.223-.191-.337-.284l-.067-.055c-.083-.065-.167-.127-.252-.189-.114-.084-.227-.17-.345-.25-.136-.091-.272-.18-.411-.264-.069-.042-.138-.081-.207-.121s-.138-.079-.21-.116q-.229-.125-.465-.236l-.042-.02-.109-.044c-.077-.037-.157-.071-.241-.106s-.155-.062-.234-.092-.184-.071-.277-.1-.212-.071-.318-.1c-.161-.049-.323-.094-.486-.133h0a.169.169,0,0,0-.031-.005c-.092-.02-.184-.042-.279-.061s-.193-.037-.289-.054a.141.141,0,0,0-.046-.007,9.3,9.3,0,0,0-.951-.1c-.147-.007-.291-.01-.438-.01-4.955,0-8.979-4.73-8.979-10.558v-7.963c0-.047,0-.094,0-.138,0-.015,0-.029,0-.047,0-.113,0-.227.01-.342a.079.079,0,0,1,0-.022c0-.089.008-.177.015-.266,0-.03,0-.057,0-.086a.2.2,0,0,0,0-.037c0-.03,0-.057.006-.086.006-.081.015-.165.023-.246.019-.194.044-.386.073-.578,0-.007,0-.015,0-.02l.044-.263c.01-.067.023-.133.036-.2.006-.034.013-.071.021-.106.031-.153.065-.3.1-.453.019-.084.04-.167.063-.249.042-.165.092-.327.14-.49s.1-.325.163-.483.117-.31.178-.465l0,0c.05-.126.1-.249.161-.372.01-.027.023-.054.036-.081.052-.113.107-.224.163-.335.063-.128.13-.254.2-.379s.143-.249.216-.369c.063-.1.128-.207.193-.308.075-.118.155-.234.237-.347s.165-.226.251-.335q.088-.118.182-.229c.008-.012.019-.024.029-.037l.082-.1c.1-.118.2-.231.306-.345.086-.091.176-.18.264-.268a.775.775,0,0,1,.063-.061c.055-.054.111-.108.167-.16q.129-.118.258-.229a8.833,8.833,0,0,1,.869-.657c.044-.03.09-.059.136-.089.063-.042.128-.081.193-.121l.195-.113c.048-.027.1-.054.145-.079.075-.042.151-.081.226-.118a7.71,7.71,0,0,1,.98-.414c.059-.017.117-.037.174-.057.115-.039.232-.074.35-.1s.21-.054.316-.079c.08-.017.159-.034.239-.049q.17-.033.346-.059c.1-.015.2-.027.3-.037l.094-.012c.237-.017.478-.029.721-.029h24.833c.165,0,.329,0,.492-.01h.036c.153,0,.306-.012.457-.022s.3-.02.45-.035c.078,0,.155-.012.233-.022.1-.01.195-.022.291-.034.063-.005.126-.012.186-.02.1-.012.2-.027.3-.042h0c.113-.015.228-.032.339-.057a.021.021,0,0,0,.017,0c.092-.015.182-.032.272-.049a.155.155,0,0,0,.033,0q.277-.052.553-.118c.178-.037.354-.079.528-.128.048-.012.1-.025.145-.039l.123-.032c.113-.032.226-.064.339-.1s.22-.066.329-.1l.128-.044c.031-.01.065-.02.1-.032.27-.089.538-.19.8-.293l0,0c.276-.108.549-.226.819-.352l.176-.081a17.776,17.776,0,0,0,2.469-1.418c.111-.074.222-.153.331-.229l0-.005c.132-.091.262-.187.39-.286.222-.165.442-.337.656-.517.038-.03.073-.059.111-.091.14-.118.276-.236.413-.357.233-.2.461-.416.685-.633.132-.13.264-.261.394-.394.073-.076.149-.153.222-.231.027-.027.052-.057.08-.086s.046-.047.069-.074c.075-.079.153-.162.228-.249.059-.066.115-.131.172-.2s.132-.145.2-.224v0a22.465,22.465,0,0,0,2.346-3.339c.172-.3.339-.6.5-.913a0,0,0,0,0,0,0,24.317,24.317,0,0,0,1.083-2.411c.193-.5.368-1.009.532-1.529a26.1,26.1,0,0,0,1.162-7.754c0-.108,0-.216,0-.323s0-.212-.006-.318-.006-.219-.01-.325-.006-.19-.013-.283c0-.061,0-.123-.006-.182,0,0,0,0,0,0,0-.061-.008-.123-.013-.182,0-.084-.008-.167-.015-.254,0-.064-.006-.126-.013-.187s-.01-.118-.017-.177c-.015-.192-.031-.382-.054-.569-.008-.086-.017-.175-.027-.261-.025-.246-.059-.49-.094-.734-.029-.207-.065-.411-.1-.616-.015-.1-.031-.192-.048-.288-.036-.2-.073-.4-.115-.6-.019-.084-.036-.167-.055-.251-.008-.039-.017-.081-.025-.123s-.019-.079-.029-.118c-.068-.307-.143-.608-.221-.906-.018-.068-.037-.136-.055-.2l-.055-.2c-.01-.042-.021-.081-.031-.121a.066.066,0,0,0,0-.017c-.01-.034-.021-.069-.033-.1-.015-.054-.029-.106-.044-.158-.008-.032-.019-.066-.029-.1-.017-.054-.033-.108-.052-.163s-.04-.133-.061-.2a.225.225,0,0,0-.017-.049c-.065-.207-.134-.411-.207-.616-.05-.145-.1-.288-.157-.428-.021-.057-.042-.116-.063-.172s-.044-.113-.067-.17c-.035-.094-.071-.185-.107-.276-.061-.153-.126-.305-.193-.458-.019-.044-.038-.084-.059-.128q-.108-.256-.224-.508c-.078-.169-.158-.337-.241-.5s-.163-.33-.249-.495c-.126-.246-.258-.488-.4-.726-.021-.042-.046-.086-.071-.128-.075-.13-.153-.261-.23-.389s-.166-.271-.249-.406c-.04-.063-.079-.127-.119-.19s-.071-.111-.109-.167l-.163-.241q-.044-.07-.088-.133c-.029-.044-.059-.089-.092-.133s-.071-.1-.107-.153-.071-.1-.107-.15c-.071-.1-.147-.2-.22-.3-.013-.017-.023-.034-.036-.052-.027-.037-.055-.071-.084-.108-.05-.066-.1-.133-.153-.2s-.123-.16-.188-.239c-.09-.113-.182-.227-.279-.337s-.186-.226-.285-.335-.193-.219-.291-.328-.2-.214-.3-.32c-.05-.054-.1-.106-.153-.157s-.1-.106-.151-.155c-.193-.195-.387-.384-.585-.568-.117-.11-.235-.22-.355-.326-.054-.049-.109-.1-.163-.143s-.109-.094-.163-.138c-.109-.1-.216-.185-.329-.276s-.222-.18-.333-.266c-.038-.032-.075-.062-.113-.089-.019-.015-.038-.03-.057-.042l0,0c-.169-.129-.338-.257-.51-.378a17.829,17.829,0,0,0-1.512-.965c-.092-.054-.184-.106-.281-.157-.042-.025-.088-.049-.134-.074s-.121-.066-.182-.1c-.13-.069-.258-.135-.39-.2-.22-.108-.442-.212-.668-.31-.084-.039-.17-.076-.256-.111-.109-.047-.218-.091-.325-.133-.055-.022-.111-.044-.168-.064-.136-.054-.272-.1-.408-.153-.071-.027-.142-.052-.216-.074-.057-.022-.115-.042-.172-.059-.218-.074-.438-.14-.66-.2-.084-.027-.17-.049-.255-.071s-.172-.047-.26-.067c-.145-.037-.291-.067-.437-.1l-.254-.052c-.116-.025-.232-.048-.346-.069-.159-.029-.317-.06-.477-.083q-.207-.033-.415-.059c-.1-.012-.2-.022-.3-.032l-.086-.012c-.057-.007-.111-.012-.168-.017s-.128-.012-.191-.015-.1,0-.149-.01c-.1-.007-.2-.015-.3-.02a.031.031,0,0,0-.021,0,.063.063,0,0,0-.021,0c-.063,0-.126,0-.188-.01h-.067l-.3-.007c-.1,0-.2,0-.3,0H102.319a13.53,13.53,0,0,1-4.675-.832,15.485,15.485,0,0,1-6.447-4.582v0c-.09-.106-.178-.212-.264-.32-.174-.212-.341-.431-.509-.652v0c-.163-.224-.323-.451-.48-.682a19.547,19.547,0,0,1-2.4-5.057c-.09-.283-.172-.569-.247-.859-.038-.145-.075-.291-.111-.436a21.694,21.694,0,0,1,.082-10.437,20.149,20.149,0,0,1,1.047-3.051q.173-.4.362-.783c.188-.389.392-.768.6-1.138s.436-.726.67-1.076a17.481,17.481,0,0,1,1.252-1.659,14.608,14.608,0,0,1,11.115-5.407h23.552a17.548,17.548,0,0,0,13.356-6.5,24.255,24.255,0,0,0,5.529-15.7c0-17.863,12.319-32.349,27.516-32.349H260.4a14.489,14.489,0,0,0,9.737-3.883,17.133,17.133,0,0,0,1.579-1.625,19.94,19.94,0,0,0,4.337-9.4,22.181,22.181,0,0,0,0-7.8,19.952,19.952,0,0,0-4.187-9.219,14.9,14.9,0,0,0-11.467-5.693h-32.13a18.778,18.778,0,0,1-14.286-6.956,25.965,25.965,0,0,1-5.917-16.795c0-13.121,9.052-23.755,20.2-23.755h240.4a4.823,4.823,0,0,1,.5.017,12.774,12.774,0,0,1,7.444,2.807A17.769,17.769,0,0,1,483,395.473v21.471a10.033,10.033,0,0,0,2.289,6.5,7.278,7.278,0,0,0,5.535,2.694A10.752,10.752,0,0,1,499,430.114a14.861,14.861,0,0,1,3.393,9.617c0,12.991,8.771,23.581,19.736,24.007.228.007.461.015.7.015h45.566C581.205,463.754,591.59,475.967,591.59,491.031Z" transform="translate(-86.59 -378.629)" fill="#01899b" opacity="0.5"/>
            <path id="Trazado_1015201" data-name="Trazado 1015201" d="M576.263,852.833h5.46a21.069,21.069,0,0,1-14.755,6.262H497.46a14.526,14.526,0,0,0-11.087,5.415,20.182,20.182,0,0,0-4.593,13.073c0,10.213,7.019,18.489,15.68,18.489h47.713a17.737,17.737,0,0,1,13.526,6.613,24.646,24.646,0,0,1,5.608,15.957c0,12.455-8.571,22.562-19.135,22.562H506.058a11.419,11.419,0,0,0-8.713,4.256,15.849,15.849,0,0,0-3.616,10.274c0,8.032,5.524,14.538,12.329,14.538H524a21.459,21.459,0,0,1,16.359,7.986,29.821,29.821,0,0,1,6.773,19.29c0,15.064-10.357,27.276-23.132,27.276H145.529c-13.752,0-24.9-13.15-24.9-29.358V982.134a13,13,0,0,0-2.943-8.39,9.354,9.354,0,0,0-7.116-3.47c-4.942,0-8.953-4.729-8.953-10.556v-7.963c0-5.827,4.011-10.549,8.953-10.549h24.756a17.737,17.737,0,0,0,13.526-6.613,24.624,24.624,0,0,0,5.608-15.949c0-12.463-8.571-22.57-19.135-22.57H102.279a14.546,14.546,0,0,1-11.087-5.415A20.9,20.9,0,0,1,91.2,864.5v4.553h8.526v-6l10.052.053V853.39H111.8v-1.922h.265v1.922h7.769v.008h1.552v-1.93h.265v1.93h1.869v19.328H135.5v7.116h6.65v-4.134h6.171v-16.4H151.4v-7.65h.466v7.65h7.374v-14.34h.725v14.34h4.877v-.2h-.007v-1.823h.007v-1.724h-.007V852.7h.007v-1.823h-.007v-2.868h.007v-1.831h-.007v-2.868h.007v-1.976h-.007v-2.868h.007v-2.517h-.007v-2.868h.007v-1.9h1.456v-2.143h.233v2.143H177.3v-2.143h.233v2.143H179.5v15l1.384.008v-.008h-.013v-2.868h.013v-1.976h-.013v-2.868h.013V836.5h-.013v-2.868h.013v-.008h13.06v.008h2.245l.349.229v19.122h2.406v-2.761H226.5V871.7h8.422V831.965h1.831v-2.776h.33v2.776h6.643v-2.776h.33v2.776h9.418v-2.776h.33v2.776h5.925v-2.776h.323v2.776H262.5v37.092h9.3v-6l10.971.053V853.39h2.212v-1.922h.291v1.922h8.474v.007h1.695v-1.93h.291v1.93h2.044v19.328h13.06v7.116H318.1v-4.134h6.734v-16.4H328.2v-7.65h.5v7.65h8.054V844.97h.789v14.34h9.192V833.994h25.254V855.48h7.717V815.741h1.675v-2.776h.3v2.776h6.094v-2.776h.3v2.776H396.7v-2.776h.3v2.776h5.427v-2.776h.3v2.776h2.232v37.092h8.526v-6l10.052.053v-9.725h2.025v-1.922h.265v1.922H433.6v.008h1.553v-1.93h.265v1.93H437.3V856.5h11.967v7.116h6.656v-4.134h6.171v-16.4h3.079v-7.65h.459v7.65H473V828.746h.725v14.339h4.884v-.2H478.6v-1.823h.007V839.34H478.6v-2.868h.007V834.65H478.6v-2.868h.007v-1.831H478.6v-2.868h.007v-1.975H478.6V822.24h.007v-2.517H478.6v-2.868h.007v-1.9h1.449v-2.143h.233v2.143H491.07v-2.143h.226v2.143h1.966v15l1.384.008v-.008h-.013v-2.868h.013v-1.975h-.013V822.24h.013v-1.968h-.013V817.4h.013V817.4h13.06v.008h2.245l.349.229v19.114h2.406v-2.753h27.57V855.48h8.416V815.741h1.831v-2.776h.33v2.776h6.65v-2.776h.323v2.776h9.418v-2.776h.33v2.776H573.5v-2.776h.323v2.776h2.439v37.092Z" transform="translate(-86.597 -719.423)" fill="#01899b"/>
            <path id="Trazado_1015202" data-name="Trazado 1015202" d="M2822.74,971.005q-.411.618-.846,1.213v-1.213Z" transform="translate(-2322.239 -843.589)" fill="#01899b"/>
          </g>
          <g id="Grupo_1168894" data-name="Grupo 1168894" transform="translate(61.309 345.289)">
            <path id="Trazado_1015203" data-name="Trazado 1015203" d="M698.462,1799.4a.858.858,0,0,1-.822.892H194.284a.895.895,0,0,1,0-1.784H697.641A.861.861,0,0,1,698.462,1799.4Z" transform="translate(-193.462 -1798.504)" fill="#1d3b77"/>
          </g>
          <g id="Grupo_1168896" data-name="Grupo 1168896" transform="translate(252.536 307.522)">
            <g id="Grupo_1168895" data-name="Grupo 1168895">
              <path id="Trazado_1015204" data-name="Trazado 1015204" d="M1386.148,1651.835l-1.564-11.781h0l-2.28-17.134H1329.65l-.953,7.171h0l-2.893,21.744-.163,1.215h60.671Z" transform="translate(-1311.666 -1622.92)" fill="#1a284d"/>
              <path id="Trazado_1015205" data-name="Trazado 1015205" d="M1345.473,1763.01h-80.984a3.818,3.818,0,1,0,0,7.636h80.984a3.818,3.818,0,1,0,0-7.636Z" transform="translate(-1260.67 -1732.878)" fill="#1a284d"/>
            </g>
          </g>
          <path id="Trazado_1015206" data-name="Trazado 1015206" d="M1395.736,1640.056l-55.885-9.965.953-7.171h52.653Z" transform="translate(-1070.283 -1315.398)" fill="#c3d7f2" opacity="0.25"/>
          <path id="Trazado_1015207" data-name="Trazado 1015207" d="M1386.148,1678l-1.564-11.78-55.888-9.963L1325.8,1678l-.163,1.215h60.671Z" transform="translate(-1059.13 -1341.567)" fill="#1a284d"/>
          <path id="Trazado_1015208" data-name="Trazado 1015208" d="M1349.29,1766.829a3.817,3.817,0,0,1-3.818,3.818h-80.984a3.818,3.818,0,1,1,0-7.636h80.984A3.819,3.819,0,0,1,1349.29,1766.829Z" transform="translate(-1008.133 -1425.357)" fill="#c3d7f2" opacity="0.25"/>
          <path id="Trazado_1015209" data-name="Trazado 1015209" d="M1082.322,717.776V874.464H792.156V717.776a6.83,6.83,0,0,1,6.831-6.832h276.506A6.83,6.83,0,0,1,1082.322,717.776Z" transform="translate(-640.394 -599.582)" fill="#1d3557"/>
          <path id="Trazado_1015210" data-name="Trazado 1015210" d="M1082.322,717.776V874.464H792.156V717.776a6.83,6.83,0,0,1,6.831-6.832h276.506A6.83,6.83,0,0,1,1082.322,717.776Z" transform="translate(-640.394 -599.582)" fill="#c3d7f2"/>
          <path id="Trazado_1015211" data-name="Trazado 1015211" d="M810.355,884.83V732.056a2.92,2.92,0,0,1,2.917-2.917h276.506a2.918,2.918,0,0,1,2.913,2.917V884.83Z" transform="translate(-654.678 -613.863)" fill="#1a284d"/>
          <path id="Trazado_1015212" data-name="Trazado 1015212" d="M841.461,900.391V762.416a2.167,2.167,0,0,1,2.167-2.167h264.62a2.167,2.167,0,0,1,2.167,2.167V900.391a2.167,2.167,0,0,1-2.167,2.167H843.629A2.167,2.167,0,0,1,841.461,900.391Z" transform="translate(-679.094 -638.281)" fill="url(#linear-gradient)"/>
          <path id="Trazado_1015213" data-name="Trazado 1015213" d="M1082.322,1471.17v28.688a5.775,5.775,0,0,1-5.776,5.775H797.932a5.774,5.774,0,0,1-5.775-5.775V1471.17Z" transform="translate(-640.394 -1196.288)" fill="#1a284d"/>
          <g id="Grupo_1168910" data-name="Grupo 1168910" transform="translate(232.164)">
            <g id="Grupo_1168906" data-name="Grupo 1168906" transform="translate(0 35.271)">
              <path id="Trazado_1015214" data-name="Trazado 1015214" d="M1792.76,561.551l16.3,36.578,12.222-5.62a20.032,20.032,0,0,0,11.637-19.145,26.472,26.472,0,0,1-3.531,7.584,27.214,27.214,0,0,1-14.539,10.633q-7.739-16.535-15.481-33.071Z" transform="translate(-1657.94 -515.206)" fill="#fab001"/>
              <g id="Grupo_1168905" data-name="Grupo 1168905">
                <path id="Trazado_1015215" data-name="Trazado 1015215" d="M1377.258,1357.77v8.69l-36.088,1.7V1357.77Z" transform="translate(-1303.483 -1142.551)" fill="#fcc632"/>
                <path id="Trazado_1015216" data-name="Trazado 1015216" d="M1364.374,1080.331c-.343,5.9-2.387,10.041-5.293,15.783-1.859,3.669-4.536,7.807-9.89,16.083-.8,1.233-1.522,2.342-2.148,3.3h-29.118q.449-6.693.9-13.385c-.39-1.241-1.005-3.16-1.8-5.495-1.306-3.848-1.879-5.242-3.4-9.49-2.081-5.831-3.13-8.791-3.5-10.988a31.935,31.935,0,0,1,2.149-18.378,36.52,36.52,0,0,0,5.309,3.459c6.031,3.215,9.869,3.065,10.948,2.991,1.319-.09,4.51-.355,6.392-2.651a3.8,3.8,0,0,0,.985-2.346,4.063,4.063,0,0,0-3.06-3.671q-2.521-.843-5.047-1.677a26.95,26.95,0,0,1,6.6-3.2c2.781-.9,8.925-2.9,15.483-.2a20.347,20.347,0,0,1,8.49,6.892c3.77,4.932,4.627,10.175,5.394,14.884A34.3,34.3,0,0,1,1364.374,1080.331Z" transform="translate(-1278.738 -900.273)" fill="#ffa6aa"/>
                <g id="Grupo_1168900" data-name="Grupo 1168900">
                  <path id="Trazado_1015217" data-name="Trazado 1015217" d="M1484.418,453.7l2.98,6.685c-5.739,8.987-15.679,23.148-27.349,33.665a128.794,128.794,0,0,1-19.141,14.162,106.906,106.906,0,0,1-10.8,5.486l-3-6.737c2.961-1.357,6.983-3.329,11.587-5.995.768-.44,13.279-7.75,22.926-16.6C1472.057,474.775,1479.54,463.009,1484.418,453.7Z" transform="translate(-1370.931 -432.938)" fill="#ffd652"/>
                  <path id="Trazado_1015218" data-name="Trazado 1015218" d="M1472.074,415.092l3.7,8.3c-4.88,9.311-12.362,21.077-22.805,30.663-9.646,8.855-22.158,16.164-22.926,16.6-4.6,2.665-8.626,4.638-11.587,5.995l-2.368-5.312c3.425-1.956,7.932-4.684,13.021-8.239a135.829,135.829,0,0,0,20.694-17.084,128.215,128.215,0,0,0,17.866-23.428C1469.287,420.007,1470.749,417.5,1472.074,415.092Z" transform="translate(-1362.289 -402.636)" fill="#fdca01"/>
                  <path id="Trazado_1015219" data-name="Trazado 1015219" d="M1498.361,484.779l35.068,78.663a146.6,146.6,0,0,0-24.206-3.8,136.652,136.652,0,0,0-30.579,1.113,127.285,127.285,0,0,0-24.595,6.455l-12.983-29.123a106.882,106.882,0,0,0,10.8-5.486,128.809,128.809,0,0,0,19.141-14.162C1482.683,507.927,1492.623,493.766,1498.361,484.779Z" transform="translate(-1381.893 -457.334)" fill="#fdca01"/>
                  <path id="Trazado_1015220" data-name="Trazado 1015220" d="M1665.935,365.509l1.84,4.129.336.755,3.366,7.55,2.981,6.682L1690.223,420l11.939,26.782h0l7.359,16.513h0l6.438,14.45h0l1.84,4.132a5.911,5.911,0,0,0,11-.5.45.45,0,0,0,.031-.084,5.9,5.9,0,0,0-.22-4.234l-15.7-35.22-11.939-26.782-24.234-54.36a5.9,5.9,0,0,0-3-3,.536.536,0,0,0-.081-.031,5.913,5.913,0,0,0-7.722,7.846Z" transform="translate(-1557.99 -357.182)" fill="#8b4507"/>
                  <g id="Grupo_1168899" data-name="Grupo 1168899" transform="translate(6.789 109.882)">
                    <g id="Grupo_1168898" data-name="Grupo 1168898" transform="translate(0 0)">
                      <g id="Grupo_1168897" data-name="Grupo 1168897">
                        <path id="Trazado_1015221" data-name="Trazado 1015221" d="M1269.45,882.756l-17.615,7.854-6.4,2.852-.923.411-14.824,6.609-4.619,2.059a15.885,15.885,0,0,1-20.99-8.048l-6.561-14.716a15.9,15.9,0,0,0,20.991,8.048l44.378-19.784Z" transform="translate(-1197.521 -868.04)" fill="#652500"/>
                      </g>
                    </g>
                  </g>
                  <path id="Trazado_1015222" data-name="Trazado 1015222" d="M1175.385,696.406l44.378-19.784,2.368,5.312,3,6.736L1180.6,708.526a17.516,17.516,0,0,0-8.239,7.888,17.326,17.326,0,0,0-1.873,8.04l-3.146-7.057a15.892,15.892,0,0,1,8.046-20.991Z" transform="translate(-1165.959 -607.913)" fill="#8b4507"/>
                  <path id="Trazado_1015223" data-name="Trazado 1015223" d="M1222.542,701.32l3,6.736-44.538,19.855a17.514,17.514,0,0,0-8.239,7.888,17.327,17.327,0,0,0-1.873,8.04l-3.146-7.057a15.821,15.821,0,0,1-1.264-4.567,22.483,22.483,0,0,1,2.276-3.6,26.668,26.668,0,0,1,8.264-6.825,34.446,34.446,0,0,1,5.1-2.451Z" transform="translate(-1166.373 -627.299)" fill="#fff" opacity="0.15"/>
                  <path id="Trazado_1015224" data-name="Trazado 1015224" d="M1241.642,732.639l12.983,29.123-44.378,19.784a15.9,15.9,0,0,1-20.992-8.046l-2.263-5.077a17.322,17.322,0,0,1,1.873-8.04,17.516,17.516,0,0,1,8.239-7.888Z" transform="translate(-1182.468 -651.881)" fill="#8b4507"/>
                  <path id="Trazado_1015225" data-name="Trazado 1015225" d="M1371.118,1080.817a14.813,14.813,0,0,1-2.222,1.229,14.637,14.637,0,0,1-19.346-7.417l-16.463-36.926-1.488-3.341-5.991-13.436,4.618-2.059,5.9,13.226,1.279,2.868,16.765,37.61a14.646,14.646,0,0,0,16.951,8.245Z" transform="translate(-1291.269 -876.544)" fill="#652500"/>
                  <path id="Trazado_1015226" data-name="Trazado 1015226" d="M1391.77,1041.056a12.061,12.061,0,0,1-20.753-4.516l-16.765-37.61-1.279-2.869-5.9-13.225,14.824-6.609.923-.411,6.4-2.852,23.941,53.7A14.639,14.639,0,0,1,1391.77,1041.056Z" transform="translate(-1308.12 -840.514)" fill="#8b4507"/>
                  <path id="Trazado_1015227" data-name="Trazado 1015227" d="M1580.8,835.29l6.442,14.451c-2.675-.621-5.519-1.212-8.523-1.739a128.205,128.205,0,0,0-29.367-2.372,135.839,135.839,0,0,0-26.539,3.972c-6.046,1.409-11.087,2.937-14.831,4.177l-6.561-14.716a127.264,127.264,0,0,1,24.6-6.455,136.639,136.639,0,0,1,30.579-1.113A146.482,146.482,0,0,1,1580.8,835.29Z" transform="translate(-1429.265 -729.182)" fill="#fab001"/>
                  <path id="Trazado_1015228" data-name="Trazado 1015228" d="M1667.87,418.3l3.742,8.388,2.83,6.357L1702.15,495.2h.006l5.66,12.7,1.7,3.813,4.76,10.676c1.239.262,2.442.524,3.616.8l-6.44-14.453-35.072-78.663-2.979-6.684-3.7-8.3C1669.115,416.133,1668.509,417.206,1667.87,418.3Z" transform="translate(-1559.913 -402.626)" fill="#8b4507" opacity="0.15"/>
                </g>
                <g id="Grupo_1168901" data-name="Grupo 1168901" transform="translate(57.176 148.826)">
                  <path id="Trazado_1015229" data-name="Trazado 1015229" d="M1455.751,1052.659h0a6.5,6.5,0,0,1-2.86,8.733l-11.715,5.934a6.469,6.469,0,0,1-5.863-11.534c5.871-2.994,8.012-4.1,11.677-5.979A6.5,6.5,0,0,1,1455.751,1052.659Z" transform="translate(-1431.781 -1049.096)" fill="#ffa6aa"/>
                  <path id="Trazado_1015230" data-name="Trazado 1015230" d="M1468.3,1052.66a6.5,6.5,0,0,1-2.859,8.733l-11.716,5.935a6.461,6.461,0,0,1-5.955-.056l12.052-6.105a6.094,6.094,0,0,0,3.374-5.276,7.032,7.032,0,0,0-.458-2.863,7.257,7.257,0,0,0-2.824-3.391A6.5,6.5,0,0,1,1468.3,1052.66Z" transform="translate(-1444.332 -1049.097)" fill="#ff797d"/>
                  <path id="Trazado_1015231" data-name="Trazado 1015231" d="M1443.616,1084.176l2.321-1.176a4.474,4.474,0,0,1,4.043,7.982l-2.32,1.176a2.537,2.537,0,0,1-3.41-1.117l-1.75-3.455A2.539,2.539,0,0,1,1443.616,1084.176Z" transform="translate(-1439.979 -1075.328)" fill="#fffaf6" opacity="0.5"/>
                </g>
                <g id="Grupo_1168902" data-name="Grupo 1168902" transform="translate(51.169 135.696)">
                  <path id="Trazado_1015232" data-name="Trazado 1015232" d="M1429.805,991.913h0a7.037,7.037,0,0,1-3.1,9.457l-12.686,6.426a7.005,7.005,0,0,1-6.348-12.49c6.357-3.243,8.676-4.441,12.645-6.475A7.038,7.038,0,0,1,1429.805,991.913Z" transform="translate(-1403.85 -988.055)" fill="#ffa6aa"/>
                  <path id="Trazado_1015233" data-name="Trazado 1015233" d="M1443.4,991.914a7.036,7.036,0,0,1-3.1,9.457l-12.686,6.426a7,7,0,0,1-6.449-.061l13.051-6.611a6.6,6.6,0,0,0,3.653-5.713,7.619,7.619,0,0,0-.5-3.1,7.859,7.859,0,0,0-3.058-3.672A7.039,7.039,0,0,1,1443.4,991.914Z" transform="translate(-1417.44 -988.056)" fill="#ff797d"/>
                  <path id="Trazado_1015234" data-name="Trazado 1015234" d="M1416.662,1026.044l2.513-1.273a4.844,4.844,0,0,1,4.378,8.643l-2.513,1.273a2.747,2.747,0,0,1-3.692-1.209l-1.9-3.741A2.746,2.746,0,0,1,1416.662,1026.044Z" transform="translate(-1412.724 -1016.463)" fill="#fffaf6" opacity="0.5"/>
                </g>
                <g id="Grupo_1168903" data-name="Grupo 1168903" transform="translate(63.305 161.237)">
                  <path id="Trazado_1015235" data-name="Trazado 1015235" d="M1481.882,1110.125h0a6.063,6.063,0,0,1-2.669,8.149l-10.172,5.153a6.037,6.037,0,0,1-5.471-10.763c5.478-2.794,6.717-3.442,10.136-5.194A6.062,6.062,0,0,1,1481.882,1110.125Z" transform="translate(-1460.275 -1106.799)" fill="#ffa6aa"/>
                  <path id="Trazado_1015236" data-name="Trazado 1015236" d="M1494.087,1110.122a6.064,6.064,0,0,1-2.669,8.15l-10.172,5.153a6.022,6.022,0,0,1-5.422.017l9.686-4.907a6.953,6.953,0,0,0,2.946-2.779c.039-.069.078-.139.115-.212a6,6,0,0,0,.785-2.925,5.9,5.9,0,0,0-.929-3.049,6.852,6.852,0,0,0-2.208-2.249A6.065,6.065,0,0,1,1494.087,1110.122Z" transform="translate(-1472.48 -1106.798)" fill="#ff797d"/>
                  <path id="Trazado_1015237" data-name="Trazado 1015237" d="M1472.925,1138.7l2.037-1.032a3.927,3.927,0,0,1,3.549,7.006l-2.037,1.032a2.226,2.226,0,0,1-2.993-.98l-1.536-3.033A2.228,2.228,0,0,1,1472.925,1138.7Z" transform="translate(-1469.245 -1130.692)" fill="#fffaf6" opacity="0.5"/>
                </g>
                <g id="Grupo_1168904" data-name="Grupo 1168904" transform="translate(69.687 172.441)">
                  <path id="Trazado_1015238" data-name="Trazado 1015238" d="M1509.577,1162.059h0a5.788,5.788,0,0,1-2.548,7.779l-8.718,4.416a5.762,5.762,0,0,1-5.222-10.274c5.229-2.667,5.419-2.783,8.684-4.456A5.788,5.788,0,0,1,1509.577,1162.059Z" transform="translate(-1489.944 -1158.885)" fill="#ffa6aa"/>
                  <path id="Trazado_1015239" data-name="Trazado 1015239" d="M1520.585,1162.064a5.788,5.788,0,0,1-2.548,7.779l-8.718,4.416a5.756,5.756,0,0,1-5.35-.075l8.635-4.374a6.946,6.946,0,0,0,2.328-1.875,6.694,6.694,0,0,0,.638-.974,5.282,5.282,0,0,0,.7-2.124,5.337,5.337,0,0,0-.713-3.041,6.409,6.409,0,0,0-2.39-2.445A5.788,5.788,0,0,1,1520.585,1162.064Z" transform="translate(-1500.952 -1158.89)" fill="#ff797d"/>
                  <path id="Trazado_1015240" data-name="Trazado 1015240" d="M1499.485,1189.227l1.876-.95a3.616,3.616,0,0,1,3.268,6.452l-1.876.95a2.05,2.05,0,0,1-2.756-.9l-1.415-2.793A2.051,2.051,0,0,1,1499.485,1189.227Z" transform="translate(-1496.55 -1181.648)" fill="#fffaf6" opacity="0.5"/>
                </g>
                <path id="Trazado_1015241" data-name="Trazado 1015241" d="M1345.536,1067.639a3.805,3.805,0,0,1-.985,2.346c-1.882,2.3-5.073,2.561-6.392,2.651-1.078.075-4.917.225-10.948-2.991a36.543,36.543,0,0,1-5.31-3.459q.385-.93.848-1.9.239-.5.481-.966a6.443,6.443,0,0,1,7.728-3.16q2.173.711,4.344,1.428,1.064.35,2.126.7,2.526.834,5.047,1.677A4.064,4.064,0,0,1,1345.536,1067.639Z" transform="translate(-1288.36 -908.703)" fill="#ffa6aa"/>
                <path id="Trazado_1015242" data-name="Trazado 1015242" d="M1345.517,1068.764a4.036,4.036,0,0,1-.96,1.987c-1.882,2.3-5.073,2.561-6.392,2.651-1.078.074-4.917.225-10.947-2.991a36.528,36.528,0,0,1-5.31-3.459q.385-.93.848-1.9l.036-.074a7.4,7.4,0,0,1,8.964-3.792q1.73.567,3.461,1.138a6.879,6.879,0,0,0,4.578,5.5A15.54,15.54,0,0,0,1345.517,1068.764Z" transform="translate(-1288.364 -909.469)" fill="#ffa6aa"/>
                <path id="Trazado_1015243" data-name="Trazado 1015243" d="M1394.1,1073.908a2.6,2.6,0,0,1-.025.359,15.552,15.552,0,0,1-5.722-.943,6.88,6.88,0,0,1-4.579-5.5l.094.031q1.063.35,2.126.7,2.526.834,5.047,1.676A4.064,4.064,0,0,1,1394.1,1073.908Z" transform="translate(-1336.924 -914.972)" fill="#fffaf6" opacity="0.5"/>
                <path id="Trazado_1015244" data-name="Trazado 1015244" d="M1357.49,1107.12c.123.283.244.564.367.847,0,0,0,0,0,0q8.113,18.7,16.222,37.407a15.333,15.333,0,0,0,8.447,8.21c.032.013.066.026.1.037a19.8,19.8,0,0,0,5.9,1.279q.885-1.365,1.657-2.567c-.262.042-.527.074-.792.1a14.654,14.654,0,0,1-14.814-8.619l-15.824-35.49c-.121-.045-.241-.092-.365-.142.123.05.244.1.365.139v0c.3.113.585.215.865.309l.328.11c.218.068.427.134.635.194.1.031.2.06.3.086.152.044.3.084.443.121q.169.043.33.079c.27.066.527.121.773.168.084.018.168.034.249.047.244.044.477.081.7.113.289.039.556.068.8.089l.2.016h.013c.07.005.139.01.2.013.1.008.2.013.3.013a11.215,11.215,0,0,0,1.2-.019c1.319-.089,4.509-.354,6.391-2.65a21.07,21.07,0,0,1-8.124,1.442h-.016a20.5,20.5,0,0,1-2.176-.17,20.912,20.912,0,0,1-3.822-.867C1358.049,1107.322,1357.763,1107.221,1357.49,1107.12Z" transform="translate(-1316.293 -945.731)" fill="#ff797d"/>
                <path id="Trazado_1015245" data-name="Trazado 1015245" d="M1486.52,1393.794H1499.5V1386.1l-8.152.142-4.28.073-.189,2.592Z" transform="translate(-1417.57 -1164.787)" fill="#3e4756"/>
                <path id="Trazado_1015246" data-name="Trazado 1015246" d="M1303.27,1387.786v6.793h39.416l.355-4.887.189-2.592-31.81.547Z" transform="translate(-1273.735 -1165.572)" fill="#636a7a"/>
              </g>
              <path id="Trazado_1015247" data-name="Trazado 1015247" d="M1823.5,543.118q7.743,16.536,15.48,33.071a27.212,27.212,0,0,0,14.539-10.633,26.468,26.468,0,0,0,3.531-7.584,20.022,20.022,0,0,0-28.373-17.236Z" transform="translate(-1682.068 -499.814)" fill="#fdca01"/>
            </g>
            <g id="Grupo_1168907" data-name="Grupo 1168907" transform="translate(163.802 105.628)">
              <path id="Trazado_1015248" data-name="Trazado 1015248" d="M1979.561,750.947l-3.4-13.89,40.536,5.574-47.239-14.467,1.609,13.048L1927.5,732.84Z" transform="translate(-1927.5 -718.726)" fill="#fab001"/>
              <path id="Trazado_1015249" data-name="Trazado 1015249" d="M1971.065,706.769l-1.609-13.048,47.239,14.467-55.558-23.906,3.115,17.009-36.751-2.9Z" transform="translate(-1927.5 -684.282)" fill="#fdca01"/>
            </g>
            <g id="Grupo_1168908" data-name="Grupo 1168908" transform="translate(174.759 19.14)">
              <path id="Trazado_1015250" data-name="Trazado 1015250" d="M2026.875,315.244l-12.561-6.833,31.408-26.225-42.5,25.2,10.731,7.593-35.516,26.581Z" transform="translate(-1978.44 -282.185)" fill="#fab001"/>
              <path id="Trazado_1015251" data-name="Trazado 1015251" d="M2013.956,314.974l-10.731-7.593,42.5-25.2-55.077,25,14.676,9.146-26.88,25.229Z" transform="translate(-1978.44 -282.185)" fill="#fdca01"/>
            </g>
            <g id="Grupo_1168909" data-name="Grupo 1168909" transform="translate(135.427)">
              <path id="Trazado_1015252" data-name="Trazado 1015252" d="M1813.837,227.314l-10.391,2.884,7.8-37-15.669,44.932,13.174-3.4-.224,29.005Z" transform="translate(-1795.58 -193.202)" fill="#fdca01"/>
              <path id="Trazado_1015253" data-name="Trazado 1015253" d="M1848.547,221.881l-10.712,3.441,2.119-32.12-7.8,37,10.391-2.884-5.307,36.429Z" transform="translate(-1824.284 -193.202)" fill="#fab001"/>
            </g>
          </g>
          <g id="Grupo_1168914" data-name="Grupo 1168914" transform="translate(86.048 181.458)">
            <path id="Trazado_1015254" data-name="Trazado 1015254" d="M636.084,1036.84c44.7-.731,81.166,35.346,81.46,80.581s-35.7,82.5-80.4,83.228-81.166-35.346-81.46-80.581S591.389,1037.572,636.084,1036.84Z" transform="translate(-540.835 -1036.829)" fill="#ba3e50"/>
            <g id="Grupo_1168913" data-name="Grupo 1168913" transform="translate(0 0.001)">
              <g id="Grupo_1168912" data-name="Grupo 1168912">
                <g id="Grupo_1168911" data-name="Grupo 1168911" transform="translate(21.66)">
                  <path id="Trazado_1015255" data-name="Trazado 1015255" d="M749.2,1117.427c.294,45.234-35.7,82.5-80.4,83.228s-81.166-35.346-81.46-80.581,35.7-82.5,80.4-83.228S748.9,1072.191,749.2,1117.427Z" transform="translate(-587.341 -1036.835)" fill="#f44d5e"/>
                  <path id="Trazado_1015256" data-name="Trazado 1015256" d="M796.353,1183.466c.229,35.285-27.848,64.352-62.712,64.922s-63.313-27.572-63.542-62.856,27.848-64.352,62.712-64.922S796.125,1148.181,796.353,1183.466Z" transform="translate(-652.297 -1102.584)" fill="#fff"/>
                  <path id="Trazado_1015257" data-name="Trazado 1015257" d="M843.018,1248.814c.166,25.44-20.078,46.4-45.214,46.807a45.252,45.252,0,0,1-45.812-45.318c-.165-25.44,20.078-46.4,45.214-46.807S842.852,1223.376,843.018,1248.814Z" transform="translate(-716.576 -1167.644)" fill="#f44d5e"/>
                  <path id="Trazado_1015258" data-name="Trazado 1015258" d="M890.19,1314.865a28.214,28.214,0,0,1-27.527,28.5,27.55,27.55,0,0,1-27.891-27.59,28.214,28.214,0,0,1,27.527-28.5A27.553,27.553,0,0,1,890.19,1314.865Z" transform="translate(-781.551 -1233.404)" fill="#fff"/>
                  <path id="Trazado_1015259" data-name="Trazado 1015259" d="M930.913,1371.9a12.56,12.56,0,0,1-12.254,12.686,12.265,12.265,0,0,1-12.417-12.282A12.56,12.56,0,0,1,918.5,1359.62,12.266,12.266,0,0,1,930.913,1371.9Z" transform="translate(-837.649 -1290.19)" fill="#f44d5e"/>
                </g>
                <path id="Trazado_1015260" data-name="Trazado 1015260" d="M592.93,1204.4l-3.884-4.711a1.44,1.44,0,0,0-2.546.8l-.164,2.089-80.009-42.071a24.939,24.939,0,0,1-1.593-4.888,1.438,1.438,0,0,0-.739-.966l-10.738-5.614a1.439,1.439,0,0,0-2.029,1.74l1.764,5.165-5.334,1.624a1.439,1.439,0,0,0-.247,2.652l10.77,5.63a1.438,1.438,0,0,0,1.194.064l5.051-1.58,79.933,42.031-1.64,1.342a1.439,1.439,0,0,0,.789,2.548l5.955.507c.041,0,.081.006.123.006a1.44,1.44,0,0,0,1.257-.74l2.234-4.014A1.441,1.441,0,0,0,592.93,1204.4Z" transform="translate(-486.64 -1124.778)" fill="#20468f"/>
              </g>
            </g>
          </g>
          <g id="Grupo_1168919" data-name="Grupo 1168919" transform="translate(139.733 112.782)">
            <circle id="Elipse_11815" data-name="Elipse 11815" cx="21.412" cy="21.412" r="21.412" transform="matrix(0.951, -0.31, 0.31, 0.951, 0, 13.288)" fill="#582e89"/>
            <g id="Grupo_1168918" data-name="Grupo 1168918" transform="translate(3.692 1.713)">
              <g id="Grupo_1168917" data-name="Grupo 1168917">
                <g id="Grupo_1168916" data-name="Grupo 1168916">
                  <circle id="Elipse_11816" data-name="Elipse 11816" cx="21.412" cy="21.412" r="21.412" fill="url(#linear-gradient-2)"/>
                  <g id="Grupo_1168915" data-name="Grupo 1168915" transform="translate(9.181 8.787)">
                    <path id="Trazado_1015261" data-name="Trazado 1015261" d="M828.413,771.386c-.355,3.294,1.933,7.138,5.227,7.492s6.347-2.914,6.7-6.208a6.009,6.009,0,0,0-11.929-1.284Z" transform="translate(-821.43 -766.358)" fill="#fff"/>
                    <path id="Trazado_1015262" data-name="Trazado 1015262" d="M814.328,844.195l-14.56-1.568a3.544,3.544,0,0,1-3.093-2.812l-.52-2.533a3.541,3.541,0,0,1,2.6-4.152c6.159-1.529,12.256-.591,18.308,2.173a3.529,3.529,0,0,1,1.791,4.5l-.843,2.159A3.545,3.545,0,0,1,814.328,844.195Z" transform="translate(-796.082 -818.194)" fill="#fff"/>
                  </g>
                </g>
              </g>
            </g>
          </g>
          <g id="Grupo_1168924" data-name="Grupo 1168924" transform="translate(334.497 176.826)">
            <circle id="Elipse_11817" data-name="Elipse 11817" cx="28.765" cy="28.765" r="28.765" transform="translate(0 40.679) rotate(-45)" fill="#355baf"/>
            <g id="Grupo_1168923" data-name="Grupo 1168923" transform="translate(14.999 15.434)">
              <g id="Grupo_1168922" data-name="Grupo 1168922">
                <g id="Grupo_1168921" data-name="Grupo 1168921">
                  <circle id="Elipse_11818" data-name="Elipse 11818" cx="28.765" cy="28.765" r="28.765" fill="url(#linear-gradient-3)"/>
                  <g id="Grupo_1168920" data-name="Grupo 1168920" transform="translate(9.129 8.638)">
                    <path id="Trazado_1015263" data-name="Trazado 1015263" d="M1763,1216.223l-8.284,4.04a1.472,1.472,0,0,0-.678,1.968l7.762,15.917a1.472,1.472,0,0,0,1.968.678l8.284-4.039a1.472,1.472,0,0,0,.678-1.968l-7.762-15.917A1.469,1.469,0,0,0,1763,1216.223Z" transform="translate(-1753.892 -1196.959)" fill="#fff"/>
                    <path id="Trazado_1015264" data-name="Trazado 1015264" d="M1822.222,1137.558c.788-5.431-3.621-4.784-3.621-4.784l-9.975,4.864-.249-.952s-2.432-7.189-4.575-8.721-6.642-.411-6.435.454,2.159,4.208,2.743,6.286.678,9.977.625,10.969a2.728,2.728,0,0,1-.3.908l7.529,15.44a4.4,4.4,0,0,0,2.543-.5l14.486-7.063a3.726,3.726,0,0,0,.183-5.35c1.978-3.649-.5-5.875-.5-5.875C1826.7,1138.6,1822.222,1137.558,1822.222,1137.558Z" transform="translate(-1788.01 -1127.207)" fill="#fff"/>
                  </g>
                </g>
              </g>
            </g>
          </g>
          <g id="Grupo_1168926" data-name="Grupo 1168926" transform="translate(201.191 5.383)">
            <circle id="Elipse_11819" data-name="Elipse 11819" cx="31.325" cy="31.325" r="31.325" transform="translate(0 44.3) rotate(-45)" fill="#ba3e50"/>
            <g id="Grupo_1168925" data-name="Grupo 1168925" transform="translate(14.236 9.057)">
              <circle id="Elipse_11820" data-name="Elipse 11820" cx="31.325" cy="31.325" r="31.325" fill="url(#linear-gradient-4)"/>
              <path id="Trazado_1015265" data-name="Trazado 1015265" d="M1139.368,339.351A10.367,10.367,0,0,1,1157,329.839a10.367,10.367,0,0,1,20.03.525c1.109,4.649-1.46,9.607-3.579,13.592-2.854,5.366-9.182,14.937-9.182,14.937s-10.62-5.527-15.59-9.027C1144.806,347.137,1140.54,344.263,1139.368,339.351Z" transform="translate(-1128.126 -309.048)" fill="#fff"/>
            </g>
          </g>
          <g id="Grupo_1168929" data-name="Grupo 1168929" transform="translate(479.38 65.221)">
            <path id="Trazado_1015266" data-name="Trazado 1015266" d="M2369.77,539.425a23.451,23.451,0,1,0-25.595,21.09A23.451,23.451,0,0,0,2369.77,539.425Z" transform="translate(-2321.325 -510)" fill="#1f664e"/>
            <g id="Grupo_1168928" data-name="Grupo 1168928">
              <circle id="Elipse_11821" data-name="Elipse 11821" cx="23.451" cy="23.451" r="23.451" fill="url(#linear-gradient-5)"/>
              <g id="Grupo_1168927" data-name="Grupo 1168927" transform="translate(11.284 11.537)">
                <path id="Trazado_1015267" data-name="Trazado 1015267" d="M2385.521,557.714l5.966,1.538a1.454,1.454,0,0,1,.534,2.553l-4.851,3.8a1.454,1.454,0,0,0-.554,1.235l.38,6.15a1.454,1.454,0,0,1-2.263,1.3l-5.112-3.438a1.456,1.456,0,0,0-1.346-.146l-5.731,2.262a1.454,1.454,0,0,1-1.933-1.752l1.69-5.925a1.455,1.455,0,0,0-.277-1.325l-3.922-4.751a1.454,1.454,0,0,1,1.069-2.38l6.157-.223a1.455,1.455,0,0,0,1.175-.673l3.307-5.2a1.454,1.454,0,0,1,2.593.281l2.116,5.787A1.456,1.456,0,0,0,2385.521,557.714Z" transform="translate(-2367.767 -550.062)" fill="#fff"/>
              </g>
            </g>
          </g>
        </g>
      </g>
    </g>
  </g>
</svg>
