<svg xmlns="http://www.w3.org/2000/svg" xmlns:xlink="http://www.w3.org/1999/xlink" width="113" height="113" viewBox="0 0 113 113">
  <defs>
    <filter id="Trazado_982547" x="0" y="0" width="113" height="113" filterUnits="userSpaceOnUse">
      <feOffset dy="3" input="SourceAlpha"/>
      <feGaussianBlur stdDeviation="3" result="blur"/>
      <feFlood flood-opacity="0.161"/>
      <feComposite operator="in" in2="blur"/>
      <feComposite in="SourceGraphic"/>
    </filter>
  </defs>
  <g id="Grupo_1168736" data-name="Grupo 1168736" transform="translate(-171.487 -3184.614)">
    <g id="Grupo_1168179" data-name="Grupo 1168179" transform="translate(180.487 3190.614)">
      <g id="Grupo_1166845" data-name="Grupo 1166845" transform="translate(0)">
        <g id="Grupo_1166720" data-name="Grupo 1166720">
          <g id="Grupo_1164305" data-name="Grupo 1164305">
            <g id="Grupo_1163948" data-name="Grupo 1163948">
              <g id="Grupo_1158168" data-name="Grupo 1158168">
                <g id="Grupo_1152576" data-name="Grupo 1152576">
                  <g id="Grupo_1148633" data-name="Grupo 1148633">
                    <g id="Grupo_1148525" data-name="Grupo 1148525">
                      <g transform="matrix(1, 0, 0, 1, -9, -6)" filter="url(#Trazado_982547)">
                        <g id="Trazado_982547-2" data-name="Trazado 982547" transform="translate(9 6)" fill="#f5fdfa">
                          <path d="M 47.5 93.5 C 41.28937149047852 93.5 35.26533508300781 92.28397369384766 29.59518623352051 89.88570404052734 C 24.11771965026855 87.56893157958984 19.19813346862793 84.25196075439453 14.97309303283691 80.02691650390625 C 10.74804019927979 75.80186462402344 7.431066513061523 70.88229370117188 5.114293098449707 65.40481567382812 C 2.716026782989502 59.73468017578125 1.5 53.71062850952148 1.5 47.5 C 1.5 41.28937149047852 2.716026782989502 35.26533508300781 5.114293098449707 29.59518623352051 C 7.431066513061523 24.11771965026855 10.74804019927979 19.19813346862793 14.97309303283691 14.97309303283691 C 19.19813346862793 10.74804019927979 24.11771965026855 7.431066513061523 29.59518623352051 5.114293098449707 C 35.26533508300781 2.716026782989502 41.28937149047852 1.5 47.5 1.5 C 53.71062850952148 1.5 59.73468017578125 2.716026782989502 65.40481567382812 5.114293098449707 C 70.88229370117188 7.431066513061523 75.80186462402344 10.74804019927979 80.02691650390625 14.97309303283691 C 84.25196075439453 19.19813346862793 87.56893157958984 24.11771965026855 89.88570404052734 29.59518623352051 C 92.28397369384766 35.26533508300781 93.5 41.28937149047852 93.5 47.5 C 93.5 53.71062850952148 92.28397369384766 59.73468017578125 89.88570404052734 65.40481567382812 C 87.56893157958984 70.88229370117188 84.25196075439453 75.80186462402344 80.02691650390625 80.02691650390625 C 75.80186462402344 84.25196075439453 70.88229370117188 87.56893157958984 65.40481567382812 89.88570404052734 C 59.73468017578125 92.28397369384766 53.71062850952148 93.5 47.5 93.5 Z" stroke="none"/>
                          <path d="M 47.5 3 C 41.49121475219727 3 35.66376876831055 4.176155090332031 30.17950439453125 6.495796203613281 C 24.88084411621094 8.736953735351562 20.12152099609375 11.94598388671875 16.03375244140625 16.03375244140625 C 11.94598388671875 20.12152099609375 8.736953735351562 24.88084411621094 6.495796203613281 30.17950439453125 C 4.176155090332031 35.66376876831055 3 41.49121475219727 3 47.5 C 3 53.50878524780273 4.176155090332031 59.33623123168945 6.495796203613281 64.82049560546875 C 8.736953735351562 70.11915588378906 11.94598388671875 74.87847900390625 16.03375244140625 78.96624755859375 C 20.12152099609375 83.05401611328125 24.88084411621094 86.26304626464844 30.17950439453125 88.50419616699219 C 35.66376876831055 90.82384490966797 41.49121475219727 92 47.5 92 C 53.50878524780273 92 59.33623123168945 90.82384490966797 64.82049560546875 88.50419616699219 C 70.11915588378906 86.26304626464844 74.87847900390625 83.05401611328125 78.96624755859375 78.96624755859375 C 83.05401611328125 74.87847900390625 86.26304626464844 70.11915588378906 88.50419616699219 64.82049560546875 C 90.82384490966797 59.33623123168945 92 53.50878524780273 92 47.5 C 92 41.49121475219727 90.82384490966797 35.66376876831055 88.50419616699219 30.17950439453125 C 86.26304626464844 24.88084411621094 83.05401611328125 20.12152099609375 78.96624755859375 16.03375244140625 C 74.87847900390625 11.94598388671875 70.11915588378906 8.736953735351562 64.82049560546875 6.495796203613281 C 59.33623123168945 4.176155090332031 53.50878524780273 3 47.5 3 M 47.5 0 C 73.7335205078125 0 95 21.2664794921875 95 47.5 C 95 73.7335205078125 73.7335205078125 95 47.5 95 C 21.2664794921875 95 0 73.7335205078125 0 47.5 C 0 21.2664794921875 21.2664794921875 0 47.5 0 Z" stroke="none" fill="#598475"/>
                        </g>
                      </g>
                    </g>
                  </g>
                </g>
              </g>
            </g>
          </g>
        </g>
      </g>
    </g>
    <g id="objetivo" transform="translate(185.652 3209.614)">
      <g id="Grupo_1168730" data-name="Grupo 1168730" transform="translate(14.691 0.856)">
        <g id="Grupo_1168719" data-name="Grupo 1168719" transform="translate(22.573)">
          <path id="Trazado_1013595" data-name="Trazado 1013595" d="M249.954,54.926h-30.78l-.114.114V79.391a13.937,13.937,0,0,1,7.281,19.156h23.175a.553.553,0,0,0,.553-.553V55.04Z" transform="translate(-219.06 -49.512)" fill="#c8effe"/>
          <path id="Trazado_1013596" data-name="Trazado 1013596" d="M222.478,81.366V55.04l.114-.114h-3.418l-.114.114V79.391A13.918,13.918,0,0,1,222.478,81.366Z" transform="translate(-219.06 -49.512)" fill="#99e6fc"/>
          <g id="Grupo_1168705" data-name="Grupo 1168705">
            <path id="Trazado_1013597" data-name="Trazado 1013597" d="M250.068,13.029H219.06V8.642A1.142,1.142,0,0,1,220.2,7.5h28.725a1.142,1.142,0,0,1,1.142,1.142Z" transform="translate(-219.06 -7.5)" fill="#7ca1b1"/>
          </g>
          <g id="Grupo_1168706" data-name="Grupo 1168706">
            <path id="Trazado_1013598" data-name="Trazado 1013598" d="M220.2,7.5a1.142,1.142,0,0,0-1.142,1.142v4.387h6.851V7.5Z" transform="translate(-219.06 -7.5)" fill="#678d98"/>
          </g>
          <g id="Grupo_1168707" data-name="Grupo 1168707">
            <path id="Trazado_1013599" data-name="Trazado 1013599" d="M223.62,7.5H220.2a1.142,1.142,0,0,0-1.142,1.142v4.387h3.418V8.642A1.142,1.142,0,0,1,223.62,7.5Z" transform="translate(-219.06 -7.5)" fill="#537983"/>
          </g>
          <g id="Grupo_1168710" data-name="Grupo 1168710" transform="translate(5.168 9.284)">
            <g id="Grupo_1168708" data-name="Grupo 1168708">
              <path id="Trazado_1013600" data-name="Trazado 1013600" d="M268.312,93.151h-3.642a.342.342,0,0,1-.342-.343V89.166a.342.342,0,0,1,.342-.342h3.642a.342.342,0,0,1,.342.342v3.642A.342.342,0,0,1,268.312,93.151Z" transform="translate(-264.328 -88.824)" fill="#01d0fb"/>
            </g>
            <g id="Grupo_1168709" data-name="Grupo 1168709">
              <path id="Trazado_1013601" data-name="Trazado 1013601" d="M266.243,92.808V89.166a.342.342,0,0,1,.342-.342h-1.915a.342.342,0,0,0-.342.342v3.642a.342.342,0,0,0,.342.343h1.915A.342.342,0,0,1,266.243,92.808Z" transform="translate(-264.328 -88.824)" fill="#01c0fa"/>
            </g>
          </g>
          <g id="Grupo_1168713" data-name="Grupo 1168713" transform="translate(5.168 16.946)">
            <g id="Grupo_1168711" data-name="Grupo 1168711">
              <path id="Trazado_1013602" data-name="Trazado 1013602" d="M268.312,160.263h-3.642a.342.342,0,0,1-.342-.342v-3.642a.342.342,0,0,1,.342-.342h3.642a.342.342,0,0,1,.342.342v3.642A.342.342,0,0,1,268.312,160.263Z" transform="translate(-264.328 -155.936)" fill="#01d0fb"/>
            </g>
            <g id="Grupo_1168712" data-name="Grupo 1168712">
              <path id="Trazado_1013603" data-name="Trazado 1013603" d="M266.243,159.92v-3.642a.342.342,0,0,1,.342-.342h-1.915a.342.342,0,0,0-.342.342v3.642a.342.342,0,0,0,.342.342h1.915A.342.342,0,0,1,266.243,159.92Z" transform="translate(-264.328 -155.936)" fill="#01c0fa"/>
            </g>
          </g>
          <g id="Grupo_1168716" data-name="Grupo 1168716" transform="translate(5.168 24.608)">
            <g id="Grupo_1168714" data-name="Grupo 1168714">
              <path id="Trazado_1013604" data-name="Trazado 1013604" d="M268.312,227.375h-3.642a.342.342,0,0,1-.342-.342v-3.642a.342.342,0,0,1,.342-.342h3.642a.342.342,0,0,1,.342.342v3.642A.342.342,0,0,1,268.312,227.375Z" transform="translate(-264.328 -223.048)" fill="#01d0fb"/>
            </g>
            <g id="Grupo_1168715" data-name="Grupo 1168715">
              <path id="Trazado_1013605" data-name="Trazado 1013605" d="M266.243,227.032v-3.642a.342.342,0,0,1,.342-.342h-1.915a.342.342,0,0,0-.342.342v3.642a.342.342,0,0,0,.342.342h1.915A.342.342,0,0,1,266.243,227.032Z" transform="translate(-264.328 -223.048)" fill="#01c0fa"/>
            </g>
          </g>
          <g id="Grupo_1168718" data-name="Grupo 1168718" transform="translate(5.168 32.27)">
            <path id="Trazado_1013606" data-name="Trazado 1013606" d="M268.312,290.159h-3.642a.342.342,0,0,0-.342.342v.879a13.956,13.956,0,0,1,2.117,3.106h1.867a.342.342,0,0,0,.342-.342V290.5A.342.342,0,0,0,268.312,290.159Z" transform="translate(-264.328 -290.159)" fill="#01d0fb"/>
            <g id="Grupo_1168717" data-name="Grupo 1168717">
              <path id="Trazado_1013607" data-name="Trazado 1013607" d="M266.243,294.095V290.5a.342.342,0,0,1,.342-.342h-1.915a.342.342,0,0,0-.342.342v.879A13.978,13.978,0,0,1,266.243,294.095Z" transform="translate(-264.328 -290.159)" fill="#01c0fa"/>
            </g>
          </g>
        </g>
        <g id="Grupo_1168726" data-name="Grupo 1168726" transform="translate(3.462 28.883)">
          <path id="Trazado_1013608" data-name="Trazado 1013608" d="M65.591,260.489a13.983,13.983,0,0,0-2.934.311,7.372,7.372,0,0,1-10.122,8.757,13.931,13.931,0,1,0,13.056-9.067Z" transform="translate(-51.662 -260.489)" fill="#fd5426"/>
          <g id="Grupo_1168720" data-name="Grupo 1168720" transform="translate(0 9.068)">
            <path id="Trazado_1013609" data-name="Trazado 1013609" d="M54.553,344.776a13.921,13.921,0,0,1,.649-4.215,7.33,7.33,0,0,1-2.669-.646A13.936,13.936,0,0,0,65.59,358.7a14.074,14.074,0,0,0,1.446-.074A13.93,13.93,0,0,1,54.553,344.776Z" transform="translate(-51.661 -339.915)" fill="#ef4424"/>
          </g>
          <path id="Trazado_1013610" data-name="Trazado 1013610" d="M100.68,300.1a9.36,9.36,0,0,0-3.167.55,7.385,7.385,0,0,1-5.139,4.448,9.4,9.4,0,1,0,8.306-5Z" transform="translate(-86.752 -295.579)" fill="#fff"/>
          <path id="Trazado_1013611" data-name="Trazado 1013611" d="M94.211,309.508a9.421,9.421,0,0,1,7.938-9.291,9.395,9.395,0,0,0-4.636.435,7.385,7.385,0,0,1-5.139,4.448,9.4,9.4,0,0,0,9.775,13.7,9.421,9.421,0,0,1-7.938-9.291Z" transform="translate(-86.752 -295.579)" fill="#eef5f6"/>
          <g id="Grupo_1168721" data-name="Grupo 1168721" transform="translate(31.374 10.67)">
            <path id="Trazado_1013612" data-name="Trazado 1013612" d="M335.626,353.952h-6.747a.342.342,0,0,0-.283.149l-2.122,3.109,2.122,3.109a.342.342,0,0,0,.283.149h6.747a.342.342,0,0,0,.279-.541l-1.939-2.717,1.939-2.717A.343.343,0,0,0,335.626,353.952Z" transform="translate(-326.474 -353.952)" fill="#fff"/>
          </g>
          <g id="Grupo_1168722" data-name="Grupo 1168722" transform="translate(31.374 10.67)">
            <path id="Trazado_1013613" data-name="Trazado 1013613" d="M335.626,353.952h-6.747a.342.342,0,0,0-.283.149l-2.122,3.109,2.122,3.109a.342.342,0,0,0,.283.149h6.747a.342.342,0,0,0,.279-.541l-1.939-2.717,1.939-2.717A.343.343,0,0,0,335.626,353.952Z" transform="translate(-326.474 -353.952)" fill="#fff"/>
          </g>
          <g id="Grupo_1168723" data-name="Grupo 1168723" transform="translate(31.374 10.67)">
            <path id="Trazado_1013614" data-name="Trazado 1013614" d="M331.491,360.319l-2.122-3.109,2.122-3.109a.343.343,0,0,1,.283-.149h-2.895a.343.343,0,0,0-.283.149l-2.122,3.109,2.122,3.109a.343.343,0,0,0,.283.149h2.895A.342.342,0,0,1,331.491,360.319Z" transform="translate(-326.475 -353.951)" fill="#eef5f6"/>
          </g>
          <g id="Grupo_1168724" data-name="Grupo 1168724" transform="translate(9.045 9.045)">
            <circle id="Elipse_11813" data-name="Elipse 11813" cx="4.884" cy="4.884" r="4.884" fill="#fd5426"/>
          </g>
          <g id="Grupo_1168725" data-name="Grupo 1168725" transform="translate(9.045 9.045)">
            <path id="Trazado_1013615" data-name="Trazado 1013615" d="M133.753,344.6a4.893,4.893,0,0,1,3.451-4.669,4.884,4.884,0,1,0,0,9.338A4.893,4.893,0,0,1,133.753,344.6Z" transform="translate(-130.886 -339.714)" fill="#ef4424"/>
          </g>
        </g>
        <g id="Grupo_1168729" data-name="Grupo 1168729" transform="translate(0 23.861)">
          <g id="Grupo_1168727" data-name="Grupo 1168727">
            <circle id="Elipse_11814" data-name="Elipse 11814" cx="7.372" cy="7.372" r="7.372" fill="#fed402"/>
          </g>
          <g id="Grupo_1168728" data-name="Grupo 1168728" transform="translate(0)">
            <path id="Trazado_1013616" data-name="Trazado 1013616" d="M25.178,223.874a7.374,7.374,0,0,1,5.451-7.118,7.372,7.372,0,1,0,0,14.236A7.374,7.374,0,0,1,25.178,223.874Z" transform="translate(-21.335 -216.502)" fill="#fac600"/>
          </g>
        </g>
      </g>
      <g id="Grupo_1168734" data-name="Grupo 1168734" transform="translate(21.046 5.594)">
        <g id="Grupo_1168732" data-name="Grupo 1168732" transform="translate(0 0)">
          <g id="Grupo_1168731" data-name="Grupo 1168731">
            <path id="Trazado_1013617" data-name="Trazado 1013617" d="M79.5,49.117,77.117,51.5a.4.4,0,0,0-.117.283v12.97a.4.4,0,0,0,.4.4H89.5a.4.4,0,0,0,.4-.4V49.4a.4.4,0,0,0-.4-.4H79.784a.4.4,0,0,0-.283.117Z" transform="translate(-77 -49)" fill="#fdf6ec"/>
          </g>
        </g>
        <g id="Grupo_1168733" data-name="Grupo 1168733">
          <path id="Trazado_1013618" data-name="Trazado 1013618" d="M80.882,64.754V51.784A.4.4,0,0,1,81,51.5l2.383-2.383A.4.4,0,0,1,83.665,49H79.784a.4.4,0,0,0-.283.117L77.117,51.5a.4.4,0,0,0-.117.283v12.97a.4.4,0,0,0,.4.4h3.882A.4.4,0,0,1,80.882,64.754Z" transform="translate(-77 -49)" fill="#fef1da"/>
        </g>
      </g>
      <g id="Grupo_1168735" data-name="Grupo 1168735" transform="translate(13.835)">
        <path id="Trazado_1013619" data-name="Trazado 1013619" d="M68.273,26.315a.856.856,0,0,0,.856-.856V2a2,2,0,0,0-2-2H38.406a2,2,0,0,0-2,2V29.529a14.791,14.791,0,0,0-6.691-.456A8.227,8.227,0,1,0,17.98,39.229a14.783,14.783,0,0,0,27.079,11.52H67.72a1.41,1.41,0,0,0,1.409-1.409V29.455a.856.856,0,0,0-1.712,0V49.036H45.858a14.681,14.681,0,0,0,.984-4.512h2.233l1.866,2.735a1.2,1.2,0,0,0,.991.523H58.68a1.2,1.2,0,0,0,.976-1.9l-.973-1.363h.041a.856.856,0,1,0,0-1.712h-.041l.973-1.363a1.2,1.2,0,0,0-.976-1.9H51.932a1.2,1.2,0,0,0-.99.523l-1.867,2.736H46.842a14.683,14.683,0,0,0-.98-4.5h.555a1.2,1.2,0,0,0,1.2-1.2V33.469a1.2,1.2,0,0,0-1.2-1.2H42.775a1.194,1.194,0,0,0-.861.366,14.829,14.829,0,0,0-3.794-2.463V7.241h29.3V25.459a.856.856,0,0,0,.856.856ZM52.2,46.07l-1.055-1.546h5.43l1.1,1.546Zm0-4.8h5.478l-1.1,1.546h-5.43ZM15.547,32.089a6.516,6.516,0,1,1,6.516,6.516A6.523,6.523,0,0,1,15.547,32.089ZM32.082,56.74A13.075,13.075,0,0,1,19.556,39.926a8.2,8.2,0,0,0,2.508.392c.108,0,.214,0,.321-.008A10.257,10.257,0,0,0,37.692,52.255a.856.856,0,1,0-.939-1.432A8.544,8.544,0,0,1,24.368,39.987a8.265,8.265,0,0,0,5.18-4.485,8.547,8.547,0,0,1,11.042,7.309H37.758a5.74,5.74,0,1,0,0,1.712h2.83a8.509,8.509,0,0,1-1.284,3.71.856.856,0,0,0,1.446.918,10.217,10.217,0,0,0,1.557-4.628h2.818A13.089,13.089,0,0,1,32.082,56.74Zm0-12.216h3.935a4.028,4.028,0,1,1,0-1.712H32.082a.856.856,0,1,0,0,1.712ZM43.289,33.982H45.9V36.6h-.839a14.853,14.853,0,0,0-1.775-2.562v-.052Zm1.837,8.829H42.309a10.259,10.259,0,0,0-12.156-9.223,8.138,8.138,0,0,0,.026-2.853A13.067,13.067,0,0,1,45.126,42.812ZM43.259,5.529H38.121V2a.286.286,0,0,1,.285-.285h4.853V5.529Zm1.712,0V1.712h22.16A.286.286,0,0,1,67.416,2V5.529Z" transform="translate(-13.835)"/>
        <path id="Trazado_1013620" data-name="Trazado 1013620" d="M335.241,87.114H321.9a.856.856,0,0,0,0,1.712h13.341a.856.856,0,1,0,0-1.712Z" transform="translate(-285.971 -77.169)"/>
        <path id="Trazado_1013621" data-name="Trazado 1013621" d="M321.9,115.144h7.9a.856.856,0,0,0,0-1.712h-7.9a.856.856,0,0,0,0,1.712Z" transform="translate(-285.971 -100.482)"/>
        <path id="Trazado_1013622" data-name="Trazado 1013622" d="M335.241,154.226H321.9a.856.856,0,0,0,0,1.712h13.341a.856.856,0,1,0,0-1.712Z" transform="translate(-285.971 -136.619)"/>
        <path id="Trazado_1013623" data-name="Trazado 1013623" d="M321.9,182.256h7.9a.856.856,0,0,0,0-1.712h-7.9a.856.856,0,0,0,0,1.712Z" transform="translate(-285.971 -159.932)"/>
        <path id="Trazado_1013624" data-name="Trazado 1013624" d="M335.241,221.337H321.9a.856.856,0,0,0,0,1.712h13.341a.856.856,0,1,0,0-1.712Z" transform="translate(-285.971 -196.068)"/>
        <path id="Trazado_1013625" data-name="Trazado 1013625" d="M321.9,249.368h7.9a.856.856,0,0,0,0-1.712h-7.9a.856.856,0,0,0,0,1.712Z" transform="translate(-285.971 -219.382)"/>
        <path id="Trazado_1013626" data-name="Trazado 1013626" d="M262.867,82.523a1.2,1.2,0,0,0-1.2-1.2h-3.642a1.2,1.2,0,0,0-1.2,1.2v3.642a1.2,1.2,0,0,0,1.2,1.2h3.642a1.2,1.2,0,0,0,1.2-1.2Zm-1.713,3.128H258.54V83.036h2.614Z" transform="translate(-229.087 -72.04)"/>
        <path id="Trazado_1013627" data-name="Trazado 1013627" d="M262.867,149.635a1.2,1.2,0,0,0-1.2-1.2h-3.642a1.2,1.2,0,0,0-1.2,1.2v3.642a1.2,1.2,0,0,0,1.2,1.2h3.642a1.2,1.2,0,0,0,1.2-1.2Zm-1.713,3.128H258.54v-2.614h2.614Z" transform="translate(-229.087 -131.49)"/>
        <path id="Trazado_1013628" data-name="Trazado 1013628" d="M261.668,215.547h-3.642a1.2,1.2,0,0,0-1.2,1.2v3.642a1.2,1.2,0,0,0,1.2,1.2h3.642a1.2,1.2,0,0,0,1.2-1.2v-3.642A1.2,1.2,0,0,0,261.668,215.547Zm-.514,4.327H258.54V217.26h2.614Z" transform="translate(-229.087 -190.939)"/>
        <path id="Trazado_1013629" data-name="Trazado 1013629" d="M336.1,289.305a.856.856,0,0,0-.856-.856H321.9a.856.856,0,0,0,0,1.712h13.341A.856.856,0,0,0,336.1,289.305Z" transform="translate(-285.971 -255.518)"/>
        <path id="Trazado_1013630" data-name="Trazado 1013630" d="M321.9,314.768a.856.856,0,0,0,0,1.712h7.9a.856.856,0,0,0,0-1.712Z" transform="translate(-285.971 -278.832)"/>
        <path id="Trazado_1013631" data-name="Trazado 1013631" d="M62.852,245.107v-.618a2.289,2.289,0,0,0-.064-4.577H61.2a.577.577,0,1,1,0-1.155H64a.856.856,0,1,0,0-1.712H62.852v-.615a.856.856,0,1,0-1.712,0v.618a2.289,2.289,0,0,0,.064,4.577h1.585a.577.577,0,1,1,0,1.155H60a.856.856,0,0,0,0,1.712H61.14v.615a.856.856,0,0,0,1.712,0Z" transform="translate(-53.768 -208.679)"/>
        <path id="Trazado_1013632" data-name="Trazado 1013632" d="M70.757,59.367h12.1a1.258,1.258,0,0,0,1.257-1.257V52.289a.856.856,0,1,0-1.712,0v5.366H71.212V45.329l2.116-2.116H82.4v5.08a.856.856,0,1,0,1.712,0V42.757A1.258,1.258,0,0,0,82.854,41.5H73.14a1.249,1.249,0,0,0-.889.368l-2.383,2.383a1.248,1.248,0,0,0-.368.889V58.11A1.258,1.258,0,0,0,70.757,59.367Z" transform="translate(-63.145 -36.762)"/>
        <path id="Trazado_1013633" data-name="Trazado 1013633" d="M108.592,74.185h-5.4a.856.856,0,0,0,0,1.712h5.4a.856.856,0,0,0,0-1.712Z" transform="translate(-92.231 -65.716)"/>
        <path id="Trazado_1013634" data-name="Trazado 1013634" d="M108.592,99.448h-5.4a.856.856,0,0,0,0,1.712h5.4a.856.856,0,0,0,0-1.712Z" transform="translate(-92.231 -88.094)"/>
        <path id="Trazado_1013635" data-name="Trazado 1013635" d="M109.448,125.794a.856.856,0,0,0-.856-.856h-5.4a.856.856,0,0,0,0,1.712h5.4A.856.856,0,0,0,109.448,125.794Z" transform="translate(-92.231 -110.674)"/>
        <path id="Trazado_1013636" data-name="Trazado 1013636" d="M103.191,150.315a.856.856,0,1,0,0,1.712h2.421a.856.856,0,1,0,0-1.712Z" transform="translate(-92.231 -133.154)"/>
      </g>
    </g>
  </g>
</svg>
