<svg xmlns="http://www.w3.org/2000/svg" xmlns:xlink="http://www.w3.org/1999/xlink" width="113" height="113" viewBox="0 0 113 113">
  <defs>
    <filter id="Trazado_982547" x="0" y="0" width="113" height="113" filterUnits="userSpaceOnUse">
      <feOffset dy="3" input="SourceAlpha"/>
      <feGaussianBlur stdDeviation="3" result="blur"/>
      <feFlood flood-opacity="0.161"/>
      <feComposite operator="in" in2="blur"/>
      <feComposite in="SourceGraphic"/>
    </filter>
  </defs>
  <g id="Grupo_1168664" data-name="Grupo 1168664" transform="translate(-902 -903)">
    <g id="Grupo_1168127" data-name="Grupo 1168127" transform="translate(911 909)">
      <g id="Grupo_1167343" data-name="Grupo 1167343">
        <g id="Grupo_1166777" data-name="Grupo 1166777">
          <g id="Grupo_1164305" data-name="Grupo 1164305" transform="translate(0)">
            <g id="Grupo_1163948" data-name="Grupo 1163948">
              <g id="Grupo_1158168" data-name="Grupo 1158168">
                <g id="Grupo_1152576" data-name="Grupo 1152576">
                  <g id="Grupo_1148633" data-name="Grupo 1148633">
                    <g id="Grupo_1148525" data-name="Grupo 1148525">
                      <g transform="matrix(1, 0, 0, 1, -9, -6)" filter="url(#Trazado_982547)">
                        <g id="Trazado_982547-2" data-name="Trazado 982547" transform="translate(9 6)" fill="#e8edf7">
                          <path d="M 47.5 93.5 C 41.28937149047852 93.5 35.26533508300781 92.28397369384766 29.59518623352051 89.88570404052734 C 24.11771965026855 87.56893157958984 19.19813346862793 84.25196075439453 14.97309303283691 80.02691650390625 C 10.74804019927979 75.80186462402344 7.431066513061523 70.88229370117188 5.114293098449707 65.40481567382812 C 2.716026782989502 59.73468017578125 1.5 53.71062850952148 1.5 47.5 C 1.5 41.28937149047852 2.716026782989502 35.26533508300781 5.114293098449707 29.59518623352051 C 7.431066513061523 24.11771965026855 10.74804019927979 19.19813346862793 14.97309303283691 14.97309303283691 C 19.19813346862793 10.74804019927979 24.11771965026855 7.431066513061523 29.59518623352051 5.114293098449707 C 35.26533508300781 2.716026782989502 41.28937149047852 1.5 47.5 1.5 C 53.71062850952148 1.5 59.73468017578125 2.716026782989502 65.40481567382812 5.114293098449707 C 70.88229370117188 7.431066513061523 75.80186462402344 10.74804019927979 80.02691650390625 14.97309303283691 C 84.25196075439453 19.19813346862793 87.56893157958984 24.11771965026855 89.88570404052734 29.59518623352051 C 92.28397369384766 35.26533508300781 93.5 41.28937149047852 93.5 47.5 C 93.5 53.71062850952148 92.28397369384766 59.73468017578125 89.88570404052734 65.40481567382812 C 87.56893157958984 70.88229370117188 84.25196075439453 75.80186462402344 80.02691650390625 80.02691650390625 C 75.80186462402344 84.25196075439453 70.88229370117188 87.56893157958984 65.40481567382812 89.88570404052734 C 59.73468017578125 92.28397369384766 53.71062850952148 93.5 47.5 93.5 Z" stroke="none"/>
                          <path d="M 47.5 3 C 41.49121475219727 3 35.66376876831055 4.176155090332031 30.17950439453125 6.495796203613281 C 24.88084411621094 8.736953735351562 20.12152099609375 11.94598388671875 16.03375244140625 16.03375244140625 C 11.94598388671875 20.12152099609375 8.736953735351562 24.88084411621094 6.495796203613281 30.17950439453125 C 4.176155090332031 35.66376876831055 3 41.49121475219727 3 47.5 C 3 53.50878524780273 4.176155090332031 59.33623123168945 6.495796203613281 64.82049560546875 C 8.736953735351562 70.11915588378906 11.94598388671875 74.87847900390625 16.03375244140625 78.96624755859375 C 20.12152099609375 83.05401611328125 24.88084411621094 86.26304626464844 30.17950439453125 88.50419616699219 C 35.66376876831055 90.82384490966797 41.49121475219727 92 47.5 92 C 53.50878524780273 92 59.33623123168945 90.82384490966797 64.82049560546875 88.50419616699219 C 70.11915588378906 86.26304626464844 74.87847900390625 83.05401611328125 78.96624755859375 78.96624755859375 C 83.05401611328125 74.87847900390625 86.26304626464844 70.11915588378906 88.50419616699219 64.82049560546875 C 90.82384490966797 59.33623123168945 92 53.50878524780273 92 47.5 C 92 41.49121475219727 90.82384490966797 35.66376876831055 88.50419616699219 30.17950439453125 C 86.26304626464844 24.88084411621094 83.05401611328125 20.12152099609375 78.96624755859375 16.03375244140625 C 74.87847900390625 11.94598388671875 70.11915588378906 8.736953735351562 64.82049560546875 6.495796203613281 C 59.33623123168945 4.176155090332031 53.50878524780273 3 47.5 3 M 47.5 0 C 73.7335205078125 0 95 21.2664794921875 95 47.5 C 95 73.7335205078125 73.7335205078125 95 47.5 95 C 21.2664794921875 95 0 73.7335205078125 0 47.5 C 0 21.2664794921875 21.2664794921875 0 47.5 0 Z" stroke="none" fill="#2e5bb6"/>
                        </g>
                      </g>
                    </g>
                  </g>
                </g>
              </g>
            </g>
          </g>
        </g>
      </g>
    </g>
    <g id="fijado" transform="translate(906.029 925.5)">
      <g id="Grupo_1168663" data-name="Grupo 1168663" transform="translate(25.697 1.214)">
        <g id="Grupo_1168645" data-name="Grupo 1168645" transform="translate(35.517 25.377)">
          <path id="Trazado_1013483" data-name="Trazado 1013483" d="M336.352,238.1a7.06,7.06,0,0,0,3.509-6.087v-7.925a7.04,7.04,0,1,0-14.08,0v7.925a7.063,7.063,0,0,0,3.512,6.087V224.088a3.529,3.529,0,0,1,7.059,0V238.1Z" transform="translate(-325.781 -217.046)" fill="#deddff" fill-rule="evenodd"/>
        </g>
        <g id="Grupo_1168646" data-name="Grupo 1168646" transform="translate(35.517 25.377)">
          <path id="Trazado_1013484" data-name="Trazado 1013484" d="M336.352,238.1a7.88,7.88,0,0,0,.746-.5V224.088a3.54,3.54,0,0,0-3.529-3.529,3.381,3.381,0,0,0-.373.02,3.543,3.543,0,0,1,3.156,3.509V238.1ZM333.2,217.056c-.123-.007-.246-.01-.373-.01a7.064,7.064,0,0,0-7.042,7.042v7.925a7.063,7.063,0,0,0,3.512,6.087v-.5a7.043,7.043,0,0,1-2.763-5.583v-7.925A7.063,7.063,0,0,1,333.2,217.056Z" transform="translate(-325.781 -217.046)" fill="#cbcafc" fill-rule="evenodd"/>
        </g>
        <g id="Grupo_1168647" data-name="Grupo 1168647" transform="translate(0 24.439)">
          <path id="Trazado_1013485" data-name="Trazado 1013485" d="M31,215.554c0-3.475,7.9-6.292,17.647-6.292S66.3,212.079,66.3,215.554v23.118c0,3.475-7.9,6.292-17.651,6.292S31,242.146,31,238.672V215.554Z" transform="translate(-31 -209.262)" fill="#fdd835" fill-rule="evenodd"/>
        </g>
        <g id="Grupo_1168648" data-name="Grupo 1168648" transform="translate(0 26.688)">
          <path id="Trazado_1013486" data-name="Trazado 1013486" d="M31,231.972c0-1.54,1.551-2.947,4.125-4.043v31.2C32.551,258.04,31,256.63,31,255.089Z" transform="translate(-31 -227.929)" fill="#fbc02d" fill-rule="evenodd"/>
        </g>
        <g id="Grupo_1168649" data-name="Grupo 1168649" transform="translate(0 24.439)">
          <path id="Trazado_1013487" data-name="Trazado 1013487" d="M48.647,221.845c9.722,0,17.651-2.828,17.651-6.292s-7.928-6.292-17.651-6.292S31,212.089,31,215.553s7.928,6.292,17.647,6.292Z" transform="translate(-31 -209.261)" fill="#fdd835" fill-rule="evenodd"/>
        </g>
        <g id="Grupo_1168650" data-name="Grupo 1168650" transform="translate(0 30.731)">
          <path id="Trazado_1013488" data-name="Trazado 1013488" d="M31,267.262c0,3.475,7.9,6.292,17.647,6.292S66.3,270.736,66.3,267.262v-5.779c0,3.475-7.9,6.292-17.651,6.292S31,264.958,31,261.483Z" transform="translate(-31 -261.483)" fill="#fd982e" fill-rule="evenodd"/>
        </g>
        <g id="Grupo_1168651" data-name="Grupo 1168651" transform="translate(0 30.731)">
          <path id="Trazado_1013489" data-name="Trazado 1013489" d="M31,267.263c0,1.541,1.551,2.951,4.125,4.043v-5.779c-2.574-1.1-4.125-2.5-4.125-4.043Z" transform="translate(-31 -261.484)" fill="#e48929" fill-rule="evenodd"/>
        </g>
        <g id="Grupo_1168652" data-name="Grupo 1168652" transform="translate(0 42.292)">
          <path id="Trazado_1013490" data-name="Trazado 1013490" d="M48.647,363.722C38.9,363.722,31,360.908,31,357.433v5.779c0,3.475,7.9,6.292,17.647,6.292S66.3,366.686,66.3,363.212v-5.779C66.3,360.908,58.4,363.722,48.647,363.722Z" transform="translate(-31 -357.433)" fill="#fd982e" fill-rule="evenodd"/>
        </g>
        <g id="Grupo_1168653" data-name="Grupo 1168653" transform="translate(0 42.292)">
          <path id="Trazado_1013491" data-name="Trazado 1013491" d="M35.125,361.473c-2.574-1.092-4.125-2.5-4.125-4.039v5.779c0,1.541,1.551,2.947,4.125,4.043Z" transform="translate(-31 -357.433)" fill="#e48929" fill-rule="evenodd"/>
        </g>
        <g id="Grupo_1168654" data-name="Grupo 1168654" transform="translate(0 24.439)">
          <path id="Trazado_1013492" data-name="Trazado 1013492" d="M50.639,221.8c-8.812-.353-15.662-3.016-15.662-6.251s6.85-5.9,15.662-6.251q-.981-.041-1.992-.041C38.9,209.26,31,212.078,31,215.552s7.9,6.292,17.647,6.292Q49.659,221.844,50.639,221.8Z" transform="translate(-31 -209.26)" fill="#fbc02d" fill-rule="evenodd"/>
        </g>
        <g id="Grupo_1168655" data-name="Grupo 1168655" transform="translate(2.249)">
          <path id="Trazado_1013493" data-name="Trazado 1013493" d="M65.069,37.223a15.4,15.4,0,1,0-15.4-15.4A15.43,15.43,0,0,0,65.069,37.223Z" transform="translate(-49.667 -6.423)" fill="#fd982e" fill-rule="evenodd"/>
        </g>
        <g id="Grupo_1168656" data-name="Grupo 1168656" transform="translate(30.899 38.731)">
          <path id="Trazado_1013494" data-name="Trazado 1013494" d="M291.29,349.293h15.645a3.851,3.851,0,0,0,3.838-3.838V331.725a3.852,3.852,0,0,0-3.838-3.841H291.29a3.852,3.852,0,0,0-3.838,3.841v13.731A3.851,3.851,0,0,0,291.29,349.293Z" transform="translate(-287.452 -327.884)" fill="#8399fe" fill-rule="evenodd"/>
        </g>
        <g id="Grupo_1168657" data-name="Grupo 1168657" transform="translate(6.484 4.235)">
          <path id="Trazado_1013495" data-name="Trazado 1013495" d="M95.981,63.9A11.165,11.165,0,1,0,84.814,52.732,11.186,11.186,0,0,0,95.981,63.9Z" transform="translate(-84.814 -41.569)" fill="#fdd835" fill-rule="evenodd"/>
        </g>
        <g id="Grupo_1168658" data-name="Grupo 1168658" transform="translate(39.039 44.462)">
          <path id="Trazado_1013496" data-name="Trazado 1013496" d="M358.537,382.489a3.521,3.521,0,1,0-3.519-3.523A3.528,3.528,0,0,0,358.537,382.489Z" transform="translate(-355.018 -375.447)" fill="#4a68e0" fill-rule="evenodd"/>
        </g>
        <g id="Grupo_1168659" data-name="Grupo 1168659" transform="translate(40.707 46.129)">
          <path id="Trazado_1013497" data-name="Trazado 1013497" d="M370.707,392.991a1.854,1.854,0,1,0-1.852-1.855A1.858,1.858,0,0,0,370.707,392.991Z" transform="translate(-368.855 -389.284)" fill="#3956cc" fill-rule="evenodd"/>
        </g>
        <g id="Grupo_1168660" data-name="Grupo 1168660" transform="translate(30.899 38.731)">
          <path id="Trazado_1013498" data-name="Trazado 1013498" d="M288.992,334.878v-3.153a3.853,3.853,0,0,1,2.859-3.711c.072-.021.147-.038.219-.051a3.721,3.721,0,0,1,.76-.079H291.29a3.793,3.793,0,0,0-.626.055,3.859,3.859,0,0,0-2.509,1.578,3.817,3.817,0,0,0-.7,2.208v13.731a3.809,3.809,0,0,0,.335,1.565,3.854,3.854,0,0,0,3.5,2.273h1.541a3.849,3.849,0,0,1-3.725-2.92,3.7,3.7,0,0,1-.113-.918V334.878Z" transform="translate(-287.452 -327.884)" fill="#728bf1" fill-rule="evenodd"/>
        </g>
        <g id="Grupo_1168661" data-name="Grupo 1168661" transform="translate(2.249 0)">
          <path id="Trazado_1013499" data-name="Trazado 1013499" d="M51.252,21.821A15.4,15.4,0,0,1,65.859,6.443q-.4-.021-.791-.02a15.4,15.4,0,0,0-11.276,25.89q.529.565,1.109,1.078a15.338,15.338,0,0,0,10.167,3.831q.4,0,.791-.021a15.34,15.34,0,0,1-9.88-4.276q-.477-.462-.914-.955A15.344,15.344,0,0,1,51.252,21.821Z" transform="translate(-49.667 -6.423)" fill="#e48929" fill-rule="evenodd"/>
        </g>
        <g id="Grupo_1168662" data-name="Grupo 1168662" transform="translate(6.484 4.235)">
          <path id="Trazado_1013500" data-name="Trazado 1013500" d="M86.58,52.732A11.167,11.167,0,0,1,96.86,41.6c-.291-.021-.585-.034-.883-.034a11.165,11.165,0,0,0-6,20.578c.294.188.6.363.907.524a11.148,11.148,0,0,0,5.1,1.229c.3,0,.592-.014.883-.034a11.107,11.107,0,0,1-4.676-1.448c-.24-.137-.472-.284-.7-.438A11.147,11.147,0,0,1,86.58,52.732Z" transform="translate(-84.813 -41.569)" fill="#fbc02d" fill-rule="evenodd"/>
        </g>
      </g>
      <path id="Trazado_1013501" data-name="Trazado 1013501" d="M43.388,32.852A16.176,16.176,0,1,0,27.211,16.678,16.194,16.194,0,0,0,43.388,32.852Zm0-30.668A14.492,14.492,0,1,1,28.895,16.678,14.51,14.51,0,0,1,43.388,2.184ZM76.044,39.071V33.622a7.85,7.85,0,0,0-14.839-3.576,8.432,8.432,0,0,0-3.823-2.819.842.842,0,0,0-.678,1.542c2.172.954,3.417,2.111,3.417,3.173,0,1.253-1.716,2.613-4.589,3.637a37.572,37.572,0,0,1-12.144,1.786,37.569,37.569,0,0,1-12.144-1.786c-2.874-1.024-4.589-2.384-4.589-3.637,0-1.062,1.245-2.219,3.417-3.173a.842.842,0,0,0-.678-1.542c-3.656,1.607-4.423,3.451-4.423,4.715V54.964c0,2.055,2.027,3.909,5.708,5.22a39.283,39.283,0,0,0,12.709,1.884,41.793,41.793,0,0,0,11.5-1.487.842.842,0,0,0-.48-1.614,40.071,40.071,0,0,1-11.019,1.417A37.582,37.582,0,0,1,31.244,58.6c-2.874-1.024-4.589-2.382-4.589-3.634V52.282a13.039,13.039,0,0,0,4.024,2.148,39.269,39.269,0,0,0,12.71,1.884A42.094,42.094,0,0,0,54.4,54.964a.842.842,0,1,0-.449-1.623A40.4,40.4,0,0,1,43.388,54.63a37.569,37.569,0,0,1-12.144-1.786c-2.874-1.024-4.589-2.384-4.589-3.637V46.528a13.039,13.039,0,0,0,4.024,2.148,39.269,39.269,0,0,0,12.71,1.884A42.093,42.093,0,0,0,54.4,49.211a.842.842,0,0,0-.449-1.623,40.4,40.4,0,0,1-10.564,1.289A37.569,37.569,0,0,1,31.244,47.09c-2.874-1.024-4.589-2.384-4.589-3.637V40.771a13.039,13.039,0,0,0,4.024,2.148A39.269,39.269,0,0,0,43.388,44.8a41.917,41.917,0,0,0,11.119-1.378.842.842,0,1,0-.456-1.621,40.809,40.809,0,0,1-10.663,1.315,37.569,37.569,0,0,1-12.144-1.786c-2.874-1.024-4.589-2.384-4.589-3.637V35.017a13.041,13.041,0,0,0,4.024,2.148,39.269,39.269,0,0,0,12.71,1.884A39.269,39.269,0,0,0,56.1,37.165a12.494,12.494,0,0,0,4.242-2.34v4.246a4.669,4.669,0,0,0-4.6,4.661V57.4A4.67,4.67,0,0,0,60.4,62.068H75.979A4.669,4.669,0,0,0,80.642,57.4V43.733a4.667,4.667,0,0,0-4.6-4.661ZM68.19,27.456a6.175,6.175,0,0,1,6.17,6.166V39.07H72.546V33.622a4.355,4.355,0,1,0-8.709,0V39.07H62.024V33.622a6.173,6.173,0,0,1,6.166-6.166Zm2.672,11.613H65.521V33.622a2.671,2.671,0,1,1,5.341,0Zm8.1,18.335a2.982,2.982,0,0,1-2.979,2.979H60.4A2.984,2.984,0,0,1,57.422,57.4V43.733A2.984,2.984,0,0,1,60.4,40.753H75.979a2.982,2.982,0,0,1,2.979,2.979ZM42.546,17.512V21.3H39.611a.842.842,0,1,0,0,1.684h2.935v1.435a.842.842,0,1,0,1.684,0V22.973a3.819,3.819,0,0,0,3.828-3.565,3.819,3.819,0,0,0-3.828-3.565V12.059h2.986a.842.842,0,1,0,0-1.684H44.23V8.937a.842.842,0,1,0-1.684,0v1.446a3.821,3.821,0,0,0-3.831,3.565,3.821,3.821,0,0,0,3.831,3.565Zm3.828,1.9a2.158,2.158,0,0,1-2.144,1.877V17.531A2.158,2.158,0,0,1,46.374,19.408ZM42.546,12.07v3.754A2.16,2.16,0,0,1,40.4,13.947a2.16,2.16,0,0,1,2.147-1.877Zm.842,16.565A11.959,11.959,0,1,0,31.431,16.678,11.971,11.971,0,0,0,43.388,28.635Zm0-22.235A10.276,10.276,0,1,1,33.115,16.678,10.287,10.287,0,0,1,43.388,6.4Zm24.8,38.372a4.348,4.348,0,0,0-.842,8.613V55.52a.842.842,0,1,0,1.684,0V53.385a4.348,4.348,0,0,0-.842-8.613Zm0,7.012a2.664,2.664,0,1,1,2.665-2.662A2.665,2.665,0,0,1,68.19,51.784Z" transform="translate(0 0)"/>
    </g>
  </g>
</svg>
