<svg xmlns="http://www.w3.org/2000/svg" xmlns:xlink="http://www.w3.org/1999/xlink" width="113" height="113" viewBox="0 0 113 113">
  <defs>
    <filter id="Trazado_982547" x="0" y="0" width="113" height="113" filterUnits="userSpaceOnUse">
      <feOffset dy="3" input="SourceAlpha"/>
      <feGaussianBlur stdDeviation="3" result="blur"/>
      <feFlood flood-opacity="0.161"/>
      <feComposite operator="in" in2="blur"/>
      <feComposite in="SourceGraphic"/>
    </filter>
  </defs>
  <g id="Grupo_1168688" data-name="Grupo 1168688" transform="translate(-1217 -903)">
    <g id="Grupo_1168128" data-name="Grupo 1168128" transform="translate(1226 909)">
      <g id="Grupo_1167343" data-name="Grupo 1167343">
        <g id="Grupo_1166777" data-name="Grupo 1166777">
          <g id="Grupo_1164305" data-name="Grupo 1164305" transform="translate(0)">
            <g id="Grupo_1163948" data-name="Grupo 1163948">
              <g id="Grupo_1158168" data-name="Grupo 1158168">
                <g id="Grupo_1152576" data-name="Grupo 1152576">
                  <g id="Grupo_1148633" data-name="Grupo 1148633">
                    <g id="Grupo_1148525" data-name="Grupo 1148525">
                      <g transform="matrix(1, 0, 0, 1, -9, -6)" filter="url(#Trazado_982547)">
                        <g id="Trazado_982547-2" data-name="Trazado 982547" transform="translate(9 6)" fill="#e8edf7">
                          <path d="M 47.5 93.5 C 41.28937149047852 93.5 35.26533508300781 92.28397369384766 29.59518623352051 89.88570404052734 C 24.11771965026855 87.56893157958984 19.19813346862793 84.25196075439453 14.97309303283691 80.02691650390625 C 10.74804019927979 75.80186462402344 7.431066513061523 70.88229370117188 5.114293098449707 65.40481567382812 C 2.716026782989502 59.73468017578125 1.5 53.71062850952148 1.5 47.5 C 1.5 41.28937149047852 2.716026782989502 35.26533508300781 5.114293098449707 29.59518623352051 C 7.431066513061523 24.11771965026855 10.74804019927979 19.19813346862793 14.97309303283691 14.97309303283691 C 19.19813346862793 10.74804019927979 24.11771965026855 7.431066513061523 29.59518623352051 5.114293098449707 C 35.26533508300781 2.716026782989502 41.28937149047852 1.5 47.5 1.5 C 53.71062850952148 1.5 59.73468017578125 2.716026782989502 65.40481567382812 5.114293098449707 C 70.88229370117188 7.431066513061523 75.80186462402344 10.74804019927979 80.02691650390625 14.97309303283691 C 84.25196075439453 19.19813346862793 87.56893157958984 24.11771965026855 89.88570404052734 29.59518623352051 C 92.28397369384766 35.26533508300781 93.5 41.28937149047852 93.5 47.5 C 93.5 53.71062850952148 92.28397369384766 59.73468017578125 89.88570404052734 65.40481567382812 C 87.56893157958984 70.88229370117188 84.25196075439453 75.80186462402344 80.02691650390625 80.02691650390625 C 75.80186462402344 84.25196075439453 70.88229370117188 87.56893157958984 65.40481567382812 89.88570404052734 C 59.73468017578125 92.28397369384766 53.71062850952148 93.5 47.5 93.5 Z" stroke="none"/>
                          <path d="M 47.5 3 C 41.49121475219727 3 35.66376876831055 4.176155090332031 30.17950439453125 6.495796203613281 C 24.88084411621094 8.736953735351562 20.12152099609375 11.94598388671875 16.03375244140625 16.03375244140625 C 11.94598388671875 20.12152099609375 8.736953735351562 24.88084411621094 6.495796203613281 30.17950439453125 C 4.176155090332031 35.66376876831055 3 41.49121475219727 3 47.5 C 3 53.50878524780273 4.176155090332031 59.33623123168945 6.495796203613281 64.82049560546875 C 8.736953735351562 70.11915588378906 11.94598388671875 74.87847900390625 16.03375244140625 78.96624755859375 C 20.12152099609375 83.05401611328125 24.88084411621094 86.26304626464844 30.17950439453125 88.50419616699219 C 35.66376876831055 90.82384490966797 41.49121475219727 92 47.5 92 C 53.50878524780273 92 59.33623123168945 90.82384490966797 64.82049560546875 88.50419616699219 C 70.11915588378906 86.26304626464844 74.87847900390625 83.05401611328125 78.96624755859375 78.96624755859375 C 83.05401611328125 74.87847900390625 86.26304626464844 70.11915588378906 88.50419616699219 64.82049560546875 C 90.82384490966797 59.33623123168945 92 53.50878524780273 92 47.5 C 92 41.49121475219727 90.82384490966797 35.66376876831055 88.50419616699219 30.17950439453125 C 86.26304626464844 24.88084411621094 83.05401611328125 20.12152099609375 78.96624755859375 16.03375244140625 C 74.87847900390625 11.94598388671875 70.11915588378906 8.736953735351562 64.82049560546875 6.495796203613281 C 59.33623123168945 4.176155090332031 53.50878524780273 3 47.5 3 M 47.5 0 C 73.7335205078125 0 95 21.2664794921875 95 47.5 C 95 73.7335205078125 73.7335205078125 95 47.5 95 C 21.2664794921875 95 0 73.7335205078125 0 47.5 C 0 21.2664794921875 21.2664794921875 0 47.5 0 Z" stroke="none" fill="#2e5bb6"/>
                        </g>
                      </g>
                    </g>
                  </g>
                </g>
              </g>
            </g>
          </g>
        </g>
      </g>
    </g>
    <g id="investigacion-de-mercado" transform="translate(1245 928)">
      <g id="Grupo_1168686" data-name="Grupo 1168686" transform="translate(0.912 0.912)">
        <g id="Grupo_1168665" data-name="Grupo 1168665" transform="translate(47.399 10.938)">
          <path id="Trazado_1013502" data-name="Trazado 1013502" d="M59.827,15.7l.465,2.771H53l.465-2.771a3.226,3.226,0,0,1,5.269-1.932A3.18,3.18,0,0,1,59.827,15.7Z" transform="translate(-53 -13)" fill="#e6e9ed"/>
        </g>
        <g id="Grupo_1168666" data-name="Grupo 1168666" transform="translate(36.46 23.699)">
          <path id="Trazado_1013503" data-name="Trazado 1013503" d="M47.827,29.7l.465,2.771H41l.465-2.771a3.226,3.226,0,0,1,5.269-1.932A3.18,3.18,0,0,1,47.827,29.7Z" transform="translate(-41 -27)" fill="#b4dd7f"/>
        </g>
        <g id="Grupo_1168667" data-name="Grupo 1168667" transform="translate(25.522 40.106)">
          <path id="Trazado_1013504" data-name="Trazado 1013504" d="M35.827,47.7l.465,2.771H29l.465-2.771a3.226,3.226,0,0,1,5.269-1.932A3.18,3.18,0,0,1,35.827,47.7Z" transform="translate(-29 -45)" fill="#fcd770"/>
        </g>
        <g id="Grupo_1168668" data-name="Grupo 1168668" transform="translate(47.399 20.053)">
          <path id="Trazado_1013505" data-name="Trazado 1013505" d="M60.292,23.912V57.637H53V23.912A.914.914,0,0,1,53.912,23h5.469A.914.914,0,0,1,60.292,23.912Z" transform="translate(-53 -23)" fill="#ff826e"/>
        </g>
        <g id="Grupo_1168669" data-name="Grupo 1168669" transform="translate(36.46 32.814)">
          <path id="Trazado_1013506" data-name="Trazado 1013506" d="M48.292,37.912V58.876H41V37.912A.914.914,0,0,1,41.912,37h5.469A.914.914,0,0,1,48.292,37.912Z" transform="translate(-41 -37)" fill="#ff826e"/>
        </g>
        <g id="Grupo_1168670" data-name="Grupo 1168670" transform="translate(25.522 49.222)">
          <path id="Trazado_1013507" data-name="Trazado 1013507" d="M36.292,55.912v4.558H29V55.912A.914.914,0,0,1,29.912,55h5.469A.914.914,0,0,1,36.292,55.912Z" transform="translate(-29 -55)" fill="#ff826e"/>
        </g>
        <g id="Grupo_1168671" data-name="Grupo 1168671" transform="translate(47.399 7.292)">
          <path id="Trazado_1013508" data-name="Trazado 1013508" d="M60.292,9A3.646,3.646,0,1,1,53,9Z" transform="translate(-53 -9)" fill="#f0d0b4"/>
        </g>
        <g id="Grupo_1168672" data-name="Grupo 1168672" transform="translate(36.46 20.053)">
          <path id="Trazado_1013509" data-name="Trazado 1013509" d="M41,23h7.292A3.646,3.646,0,1,1,41,23Z" transform="translate(-41 -23)" fill="#f0d0b4"/>
        </g>
        <g id="Grupo_1168673" data-name="Grupo 1168673" transform="translate(25.522 36.46)">
          <path id="Trazado_1013510" data-name="Trazado 1013510" d="M29,41h7.292A3.646,3.646,0,0,1,29,41Z" transform="translate(-29 -41)" fill="#f0d0b4"/>
        </g>
        <g id="Grupo_1168674" data-name="Grupo 1168674" transform="translate(36.46 16.407)">
          <path id="Trazado_1013511" data-name="Trazado 1013511" d="M41,22.646a3.646,3.646,0,1,1,7.292,0Z" transform="translate(-41 -19)" fill="#656d78"/>
        </g>
        <g id="Grupo_1168675" data-name="Grupo 1168675" transform="translate(47.399 3.646)">
          <path id="Trazado_1013512" data-name="Trazado 1013512" d="M53,8.646a3.646,3.646,0,1,1,7.292,0Z" transform="translate(-53 -5)" fill="#b27946"/>
        </g>
        <g id="Grupo_1168676" data-name="Grupo 1168676" transform="translate(25.522 32.814)">
          <path id="Trazado_1013513" data-name="Trazado 1013513" d="M29,40.646a3.646,3.646,0,1,1,7.292,0Z" transform="translate(-29 -37)" fill="#b27946"/>
        </g>
        <g id="Grupo_1168677" data-name="Grupo 1168677" transform="translate(12.761)">
          <path id="Trazado_1013514" data-name="Trazado 1013514" d="M15,6.469V2.823A1.828,1.828,0,0,1,16.823,1H38.7a1.828,1.828,0,0,1,1.823,1.823V6.469A1.828,1.828,0,0,1,38.7,8.292H29.584l-.693,2.762a1.165,1.165,0,0,1-2.261,0l-.693-2.762H16.823A1.828,1.828,0,0,1,15,6.469Z" transform="translate(-15 -1)" fill="#ffeaa7"/>
        </g>
        <g id="Grupo_1168678" data-name="Grupo 1168678" transform="translate(0 40.106)">
          <path id="Trazado_1013515" data-name="Trazado 1013515" d="M4.646,55.027v.912H1V45H3.735a.914.914,0,0,1,.912.912Z" transform="translate(-1 -45)" fill="#fcd770"/>
        </g>
        <g id="Grupo_1168679" data-name="Grupo 1168679" transform="translate(16.407 47.399)">
          <path id="Trazado_1013516" data-name="Trazado 1013516" d="M20.823,53h1.823a1.828,1.828,0,0,1,1.823,1.823,1.836,1.836,0,0,1-1.823,1.823H20.823A1.828,1.828,0,0,1,19,54.823,1.836,1.836,0,0,1,20.823,53Z" transform="translate(-19 -53)" fill="#f0d0b4"/>
        </g>
        <g id="Grupo_1168680" data-name="Grupo 1168680" transform="translate(16.407 43.752)">
          <path id="Trazado_1013517" data-name="Trazado 1013517" d="M20.823,49h1.823a1.828,1.828,0,0,1,1.823,1.823,1.836,1.836,0,0,1-1.823,1.823H20.823A1.828,1.828,0,0,1,19,50.823,1.836,1.836,0,0,1,20.823,49Z" transform="translate(-19 -49)" fill="#f0d0b4"/>
        </g>
        <g id="Grupo_1168681" data-name="Grupo 1168681" transform="translate(16.407 40.106)">
          <path id="Trazado_1013518" data-name="Trazado 1013518" d="M22.646,45a1.828,1.828,0,0,1,1.823,1.823,1.836,1.836,0,0,1-1.823,1.823H20.823A1.828,1.828,0,0,1,19,46.823a1.782,1.782,0,0,1,.538-1.285,1.83,1.83,0,0,1,.921-.5A1.6,1.6,0,0,1,20.823,45Z" transform="translate(-19 -45)" fill="#f0d0b4"/>
        </g>
        <g id="Grupo_1168682" data-name="Grupo 1168682" transform="translate(3.646 36.46)">
          <path id="Trazado_1013519" data-name="Trazado 1013519" d="M14.115,54.673v2.735H11.6A9.343,9.343,0,0,1,5,54.673V45.558A9.386,9.386,0,0,1,13.049,41H20.5a.914.914,0,0,1,.912.912,2.728,2.728,0,0,1-.8,1.932,2.68,2.68,0,0,1-1.395.747,2.625,2.625,0,0,1-.538.055H15.938a6.32,6.32,0,0,1-1.823,1.987Z" transform="translate(-5 -41)" fill="#f0d0b4"/>
        </g>
        <g id="Grupo_1168683" data-name="Grupo 1168683" transform="translate(12.761 40.052)">
          <path id="Trazado_1013520" data-name="Trazado 1013520" d="M15,46.982a6.32,6.32,0,0,0,1.823-1.987h2.735a2.625,2.625,0,0,0,.538-.055l.009.091a1.83,1.83,0,0,0-.921.5,1.782,1.782,0,0,0-.538,1.285,1.828,1.828,0,0,0,1.823,1.823,1.836,1.836,0,0,0-1.823,1.823,1.828,1.828,0,0,0,1.823,1.823,1.836,1.836,0,0,0-1.823,1.823,1.828,1.828,0,0,0,1.823,1.823v1.823a1.828,1.828,0,0,1-1.823,1.823H16.823A1.828,1.828,0,0,1,15,57.756V46.982Z" transform="translate(-15 -44.94)" fill="#969faa"/>
        </g>
        <g id="Grupo_1168684" data-name="Grupo 1168684" transform="translate(1.823 10.938)">
          <path id="Trazado_1013521" data-name="Trazado 1013521" d="M15.761,38.522A12.761,12.761,0,1,1,28.522,25.761,12.763,12.763,0,0,1,15.761,38.522Z" transform="translate(-3 -13)" fill="#ccd1d9"/>
        </g>
        <g id="Grupo_1168685" data-name="Grupo 1168685" transform="translate(5.469 14.584)">
          <circle id="Elipse_11807" data-name="Elipse 11807" cx="9.115" cy="9.115" r="9.115" fill="#69d6f4"/>
        </g>
      </g>
      <g id="Grupo_1168687" data-name="Grupo 1168687">
        <path id="Trazado_1013522" data-name="Trazado 1013522" d="M29.168,25.673A13.673,13.673,0,1,0,9.605,37.993a10.376,10.376,0,0,0-5.061,3.423,1.8,1.8,0,0,0-.9-.247H0V53.929H5.333a10.172,10.172,0,0,0,5.826,1.823h1.77A2.731,2.731,0,0,0,15.5,57.575H17.32a2.738,2.738,0,0,0,2.735-2.735v-.912h.912a2.723,2.723,0,0,0,2.024-4.558,2.693,2.693,0,0,0,0-3.646,2.712,2.712,0,0,0-1.64-4.518,3.622,3.622,0,0,0,.527-1.862,1.815,1.815,0,0,0-.567-1.315,13.678,13.678,0,0,0,7.859-12.357ZM3.646,52.106H1.823V42.991H3.646Zm13.673,3.646H15.5a.912.912,0,0,1-.912-.912v-10.3a5.771,5.771,0,0,0,1.443-1.551h.548a2.65,2.65,0,0,0,.543,2.735,2.693,2.693,0,0,0,0,3.646,2.709,2.709,0,0,0,1.112,4.39v1.079A.912.912,0,0,1,17.319,55.752Zm4.558-8.2a.912.912,0,0,1-.912.912H19.142a.912.912,0,0,1,0-1.823h1.823A.912.912,0,0,1,21.876,47.549Zm-.912,4.558H19.142a.912.912,0,1,1,0-1.823h1.823a.912.912,0,1,1,0,1.823Zm.912-8.2a.912.912,0,0,1-.912.912H19.142a.912.912,0,1,1,0-1.823h1.823A.912.912,0,0,1,21.876,43.9Zm-1.823-4.558a1.825,1.825,0,0,1-1.823,1.823h-3.3l-.252.5a3.985,3.985,0,0,1-2.318,2.011l-.8.267.577,1.728.623-.208v4.111A9.345,9.345,0,0,0,9.4,47.6l-.577,1.728a7.535,7.535,0,0,1,3.863,2.951l.072.108v1.547h-1.6A8.358,8.358,0,0,1,5.469,51.7V43.273a8.513,8.513,0,0,1,7.138-3.928ZM15.5,37.522a11.85,11.85,0,1,1,11.85-11.85A11.863,11.863,0,0,1,15.5,37.522Z" transform="translate(0 -1.062)"/>
        <path id="Trazado_1013523" data-name="Trazado 1013523" d="M16.027,16A10.027,10.027,0,1,0,26.053,26.027,10.038,10.038,0,0,0,16.027,16Zm0,18.23a8.2,8.2,0,1,1,8.2-8.2A8.212,8.212,0,0,1,16.027,34.23Z" transform="translate(-0.531 -1.416)"/>
        <path id="Trazado_1013524" data-name="Trazado 1013524" d="M18,4h1.823V5.823H18Z" transform="translate(-1.593 -0.354)"/>
        <path id="Trazado_1013525" data-name="Trazado 1013525" d="M22,4h1.823V5.823H22Z" transform="translate(-1.947 -0.354)"/>
        <path id="Trazado_1013526" data-name="Trazado 1013526" d="M26,4h1.823V5.823H26Z" transform="translate(-2.301 -0.354)"/>
        <path id="Trazado_1013527" data-name="Trazado 1013527" d="M30,4h1.823V5.823H30Z" transform="translate(-2.655 -0.354)"/>
        <path id="Trazado_1013528" data-name="Trazado 1013528" d="M34,4h1.823V5.823H34Z" transform="translate(-3.009 -0.354)"/>
        <path id="Trazado_1013529" data-name="Trazado 1013529" d="M38,4h1.823V5.823H38Z" transform="translate(-3.363 -0.354)"/>
        <path id="Trazado_1013530" data-name="Trazado 1013530" d="M16.735,9.115h8.4l.518,2.072a2.078,2.078,0,0,0,4.033,0l.518-2.071h8.4a2.738,2.738,0,0,0,2.735-2.735V2.735A2.738,2.738,0,0,0,38.611,0H16.735A2.738,2.738,0,0,0,14,2.735V6.381a2.738,2.738,0,0,0,2.735,2.735Zm-.912-6.381a.912.912,0,0,1,.912-.912H38.611a.912.912,0,0,1,.912.912V6.381a.912.912,0,0,1-.912.912H28.785l-.863,3.452a.266.266,0,0,1-.5,0l-.864-3.453H16.735a.912.912,0,0,1-.912-.912Z" transform="translate(-1.239)"/>
        <path id="Trazado_1013531" data-name="Trazado 1013531" d="M52.459,14.751l-.64,3.833h9.444l-.639-3.833a4.122,4.122,0,0,0-1.433-2.5,4.558,4.558,0,1,0-5.3,0A4.122,4.122,0,0,0,52.459,14.751Zm4.083-8.928a2.731,2.731,0,0,1,2.567,1.823H53.976A2.729,2.729,0,0,1,56.542,5.823ZM53.975,9.469h5.133a2.718,2.718,0,0,1-5.133,0Zm4.852,5.581.284,1.711h-5.14l.285-1.711a2.317,2.317,0,0,1,4.57,0Z" transform="translate(-4.585 -0.354)"/>
        <path id="Trazado_1013532" data-name="Trazado 1013532" d="M39.984,22.558a4.546,4.546,0,0,0,1.908,3.693,4.122,4.122,0,0,0-1.433,2.5l-.64,3.833h9.444l-.639-3.833a4.122,4.122,0,0,0-1.433-2.5,4.552,4.552,0,1,0-7.207-3.693Zm6.843,6.493.284,1.711h-5.14l.285-1.711a2.317,2.317,0,0,1,4.57,0Zm-4.852-5.581h5.133a2.718,2.718,0,0,1-5.133,0Zm2.567-3.646a2.731,2.731,0,0,1,2.567,1.823H41.976A2.729,2.729,0,0,1,44.542,19.823Z" transform="translate(-3.524 -1.593)"/>
        <path id="Trazado_1013533" data-name="Trazado 1013533" d="M57.168,22H51.7a1.825,1.825,0,0,0-1.823,1.823V56.637H48.053V36.584a1.825,1.825,0,0,0-1.823-1.823H40.761a1.825,1.825,0,0,0-1.823,1.823V56.637H37.115V52.991a1.825,1.825,0,0,0-1.823-1.823H29.823A1.825,1.825,0,0,0,28,52.991V58.46H58.991V23.823A1.825,1.825,0,0,0,57.168,22ZM35.292,56.637H29.823V52.991h5.469Zm5.469-20.053H46.23V56.637H40.761ZM57.168,56.637H51.7V23.823h5.469Z" transform="translate(-2.478 -1.947)"/>
        <path id="Trazado_1013534" data-name="Trazado 1013534" d="M28.459,46.751l-.64,3.833h9.444l-.639-3.833a4.122,4.122,0,0,0-1.433-2.5,4.558,4.558,0,1,0-5.3,0A4.122,4.122,0,0,0,28.459,46.751Zm4.083-8.928a2.731,2.731,0,0,1,2.567,1.823H29.976A2.729,2.729,0,0,1,32.542,37.823Zm-2.567,3.646h5.133a2.718,2.718,0,0,1-5.133,0Zm4.852,5.581.284,1.711h-5.14l.285-1.711a2.317,2.317,0,0,1,4.57,0Z" transform="translate(-2.462 -3.186)"/>
      </g>
    </g>
  </g>
</svg>
