<svg xmlns="http://www.w3.org/2000/svg" xmlns:xlink="http://www.w3.org/1999/xlink" width="113" height="113" viewBox="0 0 113 113">
  <defs>
    <filter id="Trazado_982547" x="0" y="0" width="113" height="113" filterUnits="userSpaceOnUse">
      <feOffset dy="3" input="SourceAlpha"/>
      <feGaussianBlur stdDeviation="3" result="blur"/>
      <feFlood flood-opacity="0.161"/>
      <feComposite operator="in" in2="blur"/>
      <feComposite in="SourceGraphic"/>
    </filter>
  </defs>
  <g id="Grupo_1168702" data-name="Grupo 1168702" transform="translate(-171 -2168)">
    <g id="Grupo_1168175" data-name="Grupo 1168175" transform="translate(180 2174)">
      <g id="Grupo_1166845" data-name="Grupo 1166845" transform="translate(0)">
        <g id="Grupo_1166720" data-name="Grupo 1166720">
          <g id="Grupo_1164305" data-name="Grupo 1164305">
            <g id="Grupo_1163948" data-name="Grupo 1163948">
              <g id="Grupo_1158168" data-name="Grupo 1158168">
                <g id="Grupo_1152576" data-name="Grupo 1152576">
                  <g id="Grupo_1148633" data-name="Grupo 1148633">
                    <g id="Grupo_1148525" data-name="Grupo 1148525">
                      <g transform="matrix(1, 0, 0, 1, -9, -6)" filter="url(#Trazado_982547)">
                        <g id="Trazado_982547-2" data-name="Trazado 982547" transform="translate(9 6)" fill="#f5fdfa">
                          <path d="M 47.5 93.5 C 41.28937149047852 93.5 35.26533508300781 92.28397369384766 29.59518623352051 89.88570404052734 C 24.11771965026855 87.56893157958984 19.19813346862793 84.25196075439453 14.97309303283691 80.02691650390625 C 10.74804019927979 75.80186462402344 7.431066513061523 70.88229370117188 5.114293098449707 65.40481567382812 C 2.716026782989502 59.73468017578125 1.5 53.71062850952148 1.5 47.5 C 1.5 41.28937149047852 2.716026782989502 35.26533508300781 5.114293098449707 29.59518623352051 C 7.431066513061523 24.11771965026855 10.74804019927979 19.19813346862793 14.97309303283691 14.97309303283691 C 19.19813346862793 10.74804019927979 24.11771965026855 7.431066513061523 29.59518623352051 5.114293098449707 C 35.26533508300781 2.716026782989502 41.28937149047852 1.5 47.5 1.5 C 53.71062850952148 1.5 59.73468017578125 2.716026782989502 65.40481567382812 5.114293098449707 C 70.88229370117188 7.431066513061523 75.80186462402344 10.74804019927979 80.02691650390625 14.97309303283691 C 84.25196075439453 19.19813346862793 87.56893157958984 24.11771965026855 89.88570404052734 29.59518623352051 C 92.28397369384766 35.26533508300781 93.5 41.28937149047852 93.5 47.5 C 93.5 53.71062850952148 92.28397369384766 59.73468017578125 89.88570404052734 65.40481567382812 C 87.56893157958984 70.88229370117188 84.25196075439453 75.80186462402344 80.02691650390625 80.02691650390625 C 75.80186462402344 84.25196075439453 70.88229370117188 87.56893157958984 65.40481567382812 89.88570404052734 C 59.73468017578125 92.28397369384766 53.71062850952148 93.5 47.5 93.5 Z" stroke="none"/>
                          <path d="M 47.5 3 C 41.49121475219727 3 35.66376876831055 4.176155090332031 30.17950439453125 6.495796203613281 C 24.88084411621094 8.736953735351562 20.12152099609375 11.94598388671875 16.03375244140625 16.03375244140625 C 11.94598388671875 20.12152099609375 8.736953735351562 24.88084411621094 6.495796203613281 30.17950439453125 C 4.176155090332031 35.66376876831055 3 41.49121475219727 3 47.5 C 3 53.50878524780273 4.176155090332031 59.33623123168945 6.495796203613281 64.82049560546875 C 8.736953735351562 70.11915588378906 11.94598388671875 74.87847900390625 16.03375244140625 78.96624755859375 C 20.12152099609375 83.05401611328125 24.88084411621094 86.26304626464844 30.17950439453125 88.50419616699219 C 35.66376876831055 90.82384490966797 41.49121475219727 92 47.5 92 C 53.50878524780273 92 59.33623123168945 90.82384490966797 64.82049560546875 88.50419616699219 C 70.11915588378906 86.26304626464844 74.87847900390625 83.05401611328125 78.96624755859375 78.96624755859375 C 83.05401611328125 74.87847900390625 86.26304626464844 70.11915588378906 88.50419616699219 64.82049560546875 C 90.82384490966797 59.33623123168945 92 53.50878524780273 92 47.5 C 92 41.49121475219727 90.82384490966797 35.66376876831055 88.50419616699219 30.17950439453125 C 86.26304626464844 24.88084411621094 83.05401611328125 20.12152099609375 78.96624755859375 16.03375244140625 C 74.87847900390625 11.94598388671875 70.11915588378906 8.736953735351562 64.82049560546875 6.495796203613281 C 59.33623123168945 4.176155090332031 53.50878524780273 3 47.5 3 M 47.5 0 C 73.7335205078125 0 95 21.2664794921875 95 47.5 C 95 73.7335205078125 73.7335205078125 95 47.5 95 C 21.2664794921875 95 0 73.7335205078125 0 47.5 C 0 21.2664794921875 21.2664794921875 0 47.5 0 Z" stroke="none" fill="#598475"/>
                        </g>
                      </g>
                    </g>
                  </g>
                </g>
              </g>
            </g>
          </g>
        </g>
      </g>
    </g>
    <g id="mercado" transform="translate(198 2192.104)">
      <g id="Grupo_1168700" data-name="Grupo 1168700" transform="translate(1.913 1.904)">
        <g id="Grupo_1168689" data-name="Grupo 1168689" transform="translate(0 32.863)">
          <path id="Trazado_1013535" data-name="Trazado 1013535" d="M18.431,38,9.914,52.606,6.062,59.2a1.426,1.426,0,0,1-1.232.712h-1.4A1.43,1.43,0,0,1,2,58.475a1.464,1.464,0,0,1,.2-.73L13.867,38Z" transform="translate(-2 -38)" fill="#cf9e76"/>
        </g>
        <g id="Grupo_1168690" data-name="Grupo 1168690" transform="translate(20.083 32.863)">
          <path id="Trazado_1013536" data-name="Trazado 1013536" d="M40.23,57.745a1.464,1.464,0,0,1,.2.73A1.43,1.43,0,0,1,39,59.908H37.6a1.426,1.426,0,0,1-1.232-.712l-3.852-6.591L24,38h4.564Z" transform="translate(-24 -38)" fill="#cf9e76"/>
        </g>
        <g id="Grupo_1168691" data-name="Grupo 1168691" transform="translate(51.12 40.165)">
          <circle id="Elipse_11808" data-name="Elipse 11808" cx="1.826" cy="1.826" r="1.826" fill="#ff826e"/>
        </g>
        <g id="Grupo_1168692" data-name="Grupo 1168692" transform="translate(22.584 20.083)">
          <path id="Trazado_1013537" data-name="Trazado 1013537" d="M40.67,24,54.6,33.968a18.286,18.286,0,0,1-27.86,0l4.865-3.487Z" transform="translate(-26.74 -24)" fill="#b4dd7f"/>
        </g>
        <g id="Grupo_1168693" data-name="Grupo 1168693" transform="translate(43.817 40.165)">
          <circle id="Elipse_11809" data-name="Elipse 11809" cx="1.826" cy="1.826" r="1.826" fill="#ff826e"/>
        </g>
        <g id="Grupo_1168694" data-name="Grupo 1168694" transform="translate(38.34)">
          <path id="Trazado_1013538" data-name="Trazado 1013538" d="M60.349,18.513A18.582,18.582,0,0,0,59.1,13.374a18.34,18.34,0,0,0-2.3-4.09,18.572,18.572,0,0,0-3.122-3.268,18.235,18.235,0,0,0-3.934-2.456A17.842,17.842,0,0,0,44,2V19.3l1.652,1.132,3.788,2.6,3.788,2.6,4.948,3.4a18.05,18.05,0,0,0,2.255-8.782C60.431,19.673,60.4,19.089,60.349,18.513Z" transform="translate(-44 -2)" fill="#ff826e"/>
        </g>
        <g id="Grupo_1168695" data-name="Grupo 1168695" transform="translate(36.514 40.165)">
          <circle id="Elipse_11810" data-name="Elipse 11810" cx="1.826" cy="1.826" r="1.826" fill="#ff826e"/>
        </g>
        <g id="Grupo_1168696" data-name="Grupo 1168696" transform="translate(18.257 0)">
          <path id="Trazado_1013539" data-name="Trazado 1013539" d="M31.129,24.319l-6.874,4.729A18.382,18.382,0,0,1,32.133,3.826,17.894,17.894,0,0,1,38.431,2V19.3Z" transform="translate(-22 -2)" fill="#fcd770"/>
        </g>
        <g id="Grupo_1168697" data-name="Grupo 1168697" transform="translate(0 1.826)">
          <path id="Trazado_1013540" data-name="Trazado 1013540" d="M2.913,4H30.39a18.336,18.336,0,0,0-6.509,5.477H2.913A.916.916,0,0,1,2,8.564V4.913A.916.916,0,0,1,2.913,4Z" transform="translate(-2 -4)" fill="#aab2bd"/>
        </g>
        <g id="Grupo_1168698" data-name="Grupo 1168698" transform="translate(16.431 32.863)">
          <path id="Trazado_1013541" data-name="Trazado 1013541" d="M20,38V58.475a1.43,1.43,0,0,0,1.433,1.433h.785a1.43,1.43,0,0,0,1.433-1.433V38Z" transform="translate(-20 -38)" fill="#cf9e76"/>
        </g>
        <g id="Grupo_1168699" data-name="Grupo 1168699" transform="translate(1.826 7.303)">
          <path id="Trazado_1013542" data-name="Trazado 1013542" d="M24.758,32.748l4.865-3.487-.064-.091V25.016l-6.874,4.729A18.322,18.322,0,0,1,24.055,10H4V34.647a.916.916,0,0,0,.913.913H27.734l.009-.009A18.079,18.079,0,0,1,24.758,32.748Z" transform="translate(-4 -10)" fill="#ccd1d9"/>
        </g>
      </g>
      <g id="Grupo_1168701" data-name="Grupo 1168701" transform="translate(1 0.896)">
        <path id="Trazado_1013543" data-name="Trazado 1013543" d="M30.826,19.786V21.78h1.826V19.954h1.826V17.216a2.742,2.742,0,0,0-2.739-2.739.914.914,0,0,1-.913-.913v-.913h.913a.914.914,0,0,1,.913.913v.913h1.826v-.913a2.735,2.735,0,0,0-1.826-2.571V9H30.826v1.826H29v2.739A2.742,2.742,0,0,0,31.739,16.3a.914.914,0,0,1,.913.913v.913h-.913a.914.914,0,0,1-.913-.913V16.3H29v.913A2.735,2.735,0,0,0,30.826,19.786Z" transform="translate(-3.44 -1.602)"/>
        <path id="Trazado_1013544" data-name="Trazado 1013544" d="M0,0H7.746V1.826H0Z" transform="translate(34.036 32.313) rotate(-45)"/>
        <circle id="Elipse_11811" data-name="Elipse 11811" cx="0.913" cy="0.913" r="0.913" transform="translate(38.34 31.132)"/>
        <circle id="Elipse_11812" data-name="Elipse 11812" cx="0.913" cy="0.913" r="0.913" transform="translate(34.688 27.48)"/>
        <path id="Trazado_1013545" data-name="Trazado 1013545" d="M53.693,31.788,38.427,20.865,23.16,31.788l.639.756c.388.459.8.893,1.224,1.31H4.651V10.119H22.045a19.334,19.334,0,0,0-.421,19.271l.486.885,15.4-10.593V.9l-1,.1A19.1,19.1,0,0,0,30.07,2.817H2.826A1.828,1.828,0,0,0,1,4.642V8.294a1.828,1.828,0,0,0,1.826,1.826V33.854a1.828,1.828,0,0,0,1.826,1.826H12.18L1.327,54.046a2.347,2.347,0,0,0,2.019,3.542H4.74a2.354,2.354,0,0,0,2.027-1.164l3.581-6.139h7.084v4.957a2.349,2.349,0,0,0,2.346,2.346h.784a2.349,2.349,0,0,0,2.346-2.346V50.285H29.99l3.581,6.139A2.357,2.357,0,0,0,35.6,57.588h1.394a2.348,2.348,0,0,0,2.02-3.541L28.774,36.719a19.15,19.15,0,0,0,24.279-4.175ZM35.688,18.722,22.764,27.61A17.429,17.429,0,0,1,35.688,2.942ZM2.826,4.642H27.044a19.069,19.069,0,0,0-3.738,3.651H2.826ZM21.083,35.679v12.78H19.257V35.679ZM5.19,55.5a.521.521,0,0,1-.449.258H3.346a.521.521,0,0,1-.52-.52.513.513,0,0,1,.073-.266l11.4-19.3h2.453Zm6.223-7.044,6.018-10.316V48.459Zm9.67,6.782a.521.521,0,0,1-.52.52h-.785a.521.521,0,0,1-.52-.52V50.285h1.826Zm1.826-6.782V38.144l6.018,10.315Zm14.606,6.782a.521.521,0,0,1-.52.52H35.6a.52.52,0,0,1-.449-.258L23.586,35.679h2.453l11.4,19.3A.515.515,0,0,1,37.514,55.242ZM38.427,37.5a17.294,17.294,0,0,1-12.571-5.4l12.571-9L51,32.1A17.291,17.291,0,0,1,38.427,37.5Z" transform="translate(-1 -0.896)"/>
        <path id="Trazado_1013546" data-name="Trazado 1013546" d="M58.888,29.385A19.243,19.243,0,0,0,44,1L43,.9V19.683L58.4,30.264Zm-.278-14.416a17.22,17.22,0,0,1,.681,3.127L53.03,24.358l-2.258-1.55Zm-9.369,6.787-2.257-1.551,9.564-9.564A17.781,17.781,0,0,1,57.9,13.1ZM44.826,9.585,49.819,4.59A17.349,17.349,0,0,1,52.18,6.037l-7.354,7.356ZM48.032,3.8,44.826,7V2.942A16.852,16.852,0,0,1,48.032,3.8ZM44.826,15.974,53.6,7.2a17.78,17.78,0,0,1,1.859,1.95l-10.006,10-.628-.432ZM54.56,25.41l4.86-4.86A17.266,17.266,0,0,1,57.753,27.6Z" transform="translate(-4.66 -0.896)"/>
        <path id="Trazado_1013547" data-name="Trazado 1013547" d="M7,33.78H19.78V31.954H17.954V21H16.129V31.954H14.3v-7.3H12.477v7.3H10.651V28.3H8.826v3.651H7Z" transform="translate(-1.523 -2.648)"/>
        <path id="Trazado_1013548" data-name="Trazado 1013548" d="M7,13h3.651v1.826H7Z" transform="translate(-1.523 -1.951)"/>
        <path id="Trazado_1013549" data-name="Trazado 1013549" d="M13,13h5.477v1.826H13Z" transform="translate(-2.046 -1.951)"/>
        <path id="Trazado_1013550" data-name="Trazado 1013550" d="M7,17H17.954v1.826H7Z" transform="translate(-1.523 -2.299)"/>
        <path id="Trazado_1013551" data-name="Trazado 1013551" d="M43.739,45a2.739,2.739,0,1,0,2.739,2.739A2.742,2.742,0,0,0,43.739,45Zm0,3.651a.913.913,0,1,1,.913-.913A.913.913,0,0,1,43.739,48.651Z" transform="translate(-4.486 -4.74)"/>
        <path id="Trazado_1013552" data-name="Trazado 1013552" d="M51.739,45a2.739,2.739,0,1,0,2.739,2.739A2.742,2.742,0,0,0,51.739,45Zm0,3.651a.913.913,0,1,1,.913-.913A.913.913,0,0,1,51.739,48.651Z" transform="translate(-5.183 -4.74)"/>
        <path id="Trazado_1013553" data-name="Trazado 1013553" d="M59.739,45a2.739,2.739,0,1,0,2.739,2.739A2.742,2.742,0,0,0,59.739,45Zm0,3.651a.913.913,0,1,1,.913-.913A.913.913,0,0,1,59.739,48.651Z" transform="translate(-5.88 -4.74)"/>
      </g>
    </g>
  </g>
</svg>
