<svg xmlns="http://www.w3.org/2000/svg" xmlns:xlink="http://www.w3.org/1999/xlink" width="113" height="113" viewBox="0 0 113 113">
  <defs>
    <filter id="Trazado_982547" x="0" y="0" width="113" height="113" filterUnits="userSpaceOnUse">
      <feOffset dy="3" input="SourceAlpha"/>
      <feGaussianBlur stdDeviation="3" result="blur"/>
      <feFlood flood-opacity="0.161"/>
      <feComposite operator="in" in2="blur"/>
      <feComposite in="SourceGraphic"/>
    </filter>
  </defs>
  <g id="Grupo_1168603" data-name="Grupo 1168603" transform="translate(-272 -903)">
    <g id="Grupo_1167569" data-name="Grupo 1167569" transform="translate(281 909)">
      <g id="Grupo_1167343" data-name="Grupo 1167343">
        <g id="Grupo_1166777" data-name="Grupo 1166777">
          <g id="Grupo_1164305" data-name="Grupo 1164305" transform="translate(0)">
            <g id="Grupo_1163948" data-name="Grupo 1163948">
              <g id="Grupo_1158168" data-name="Grupo 1158168">
                <g id="Grupo_1152576" data-name="Grupo 1152576">
                  <g id="Grupo_1148633" data-name="Grupo 1148633">
                    <g id="Grupo_1148525" data-name="Grupo 1148525">
                      <g transform="matrix(1, 0, 0, 1, -9, -6)" filter="url(#Trazado_982547)">
                        <g id="Trazado_982547-2" data-name="Trazado 982547" transform="translate(9 6)" fill="#e8edf7">
                          <path d="M 47.5 93.5 C 41.28937149047852 93.5 35.26533508300781 92.28397369384766 29.59518623352051 89.88570404052734 C 24.11771965026855 87.56893157958984 19.19813346862793 84.25196075439453 14.97309303283691 80.02691650390625 C 10.74804019927979 75.80186462402344 7.431066513061523 70.88229370117188 5.114293098449707 65.40481567382812 C 2.716026782989502 59.73468017578125 1.5 53.71062850952148 1.5 47.5 C 1.5 41.28937149047852 2.716026782989502 35.26533508300781 5.114293098449707 29.59518623352051 C 7.431066513061523 24.11771965026855 10.74804019927979 19.19813346862793 14.97309303283691 14.97309303283691 C 19.19813346862793 10.74804019927979 24.11771965026855 7.431066513061523 29.59518623352051 5.114293098449707 C 35.26533508300781 2.716026782989502 41.28937149047852 1.5 47.5 1.5 C 53.71062850952148 1.5 59.73468017578125 2.716026782989502 65.40481567382812 5.114293098449707 C 70.88229370117188 7.431066513061523 75.80186462402344 10.74804019927979 80.02691650390625 14.97309303283691 C 84.25196075439453 19.19813346862793 87.56893157958984 24.11771965026855 89.88570404052734 29.59518623352051 C 92.28397369384766 35.26533508300781 93.5 41.28937149047852 93.5 47.5 C 93.5 53.71062850952148 92.28397369384766 59.73468017578125 89.88570404052734 65.40481567382812 C 87.56893157958984 70.88229370117188 84.25196075439453 75.80186462402344 80.02691650390625 80.02691650390625 C 75.80186462402344 84.25196075439453 70.88229370117188 87.56893157958984 65.40481567382812 89.88570404052734 C 59.73468017578125 92.28397369384766 53.71062850952148 93.5 47.5 93.5 Z" stroke="none"/>
                          <path d="M 47.5 3 C 41.49121475219727 3 35.66376876831055 4.176155090332031 30.17950439453125 6.495796203613281 C 24.88084411621094 8.736953735351562 20.12152099609375 11.94598388671875 16.03375244140625 16.03375244140625 C 11.94598388671875 20.12152099609375 8.736953735351562 24.88084411621094 6.495796203613281 30.17950439453125 C 4.176155090332031 35.66376876831055 3 41.49121475219727 3 47.5 C 3 53.50878524780273 4.176155090332031 59.33623123168945 6.495796203613281 64.82049560546875 C 8.736953735351562 70.11915588378906 11.94598388671875 74.87847900390625 16.03375244140625 78.96624755859375 C 20.12152099609375 83.05401611328125 24.88084411621094 86.26304626464844 30.17950439453125 88.50419616699219 C 35.66376876831055 90.82384490966797 41.49121475219727 92 47.5 92 C 53.50878524780273 92 59.33623123168945 90.82384490966797 64.82049560546875 88.50419616699219 C 70.11915588378906 86.26304626464844 74.87847900390625 83.05401611328125 78.96624755859375 78.96624755859375 C 83.05401611328125 74.87847900390625 86.26304626464844 70.11915588378906 88.50419616699219 64.82049560546875 C 90.82384490966797 59.33623123168945 92 53.50878524780273 92 47.5 C 92 41.49121475219727 90.82384490966797 35.66376876831055 88.50419616699219 30.17950439453125 C 86.26304626464844 24.88084411621094 83.05401611328125 20.12152099609375 78.96624755859375 16.03375244140625 C 74.87847900390625 11.94598388671875 70.11915588378906 8.736953735351562 64.82049560546875 6.495796203613281 C 59.33623123168945 4.176155090332031 53.50878524780273 3 47.5 3 M 47.5 0 C 73.7335205078125 0 95 21.2664794921875 95 47.5 C 95 73.7335205078125 73.7335205078125 95 47.5 95 C 21.2664794921875 95 0 73.7335205078125 0 47.5 C 0 21.2664794921875 21.2664794921875 0 47.5 0 Z" stroke="none" fill="#2e5bb6"/>
                        </g>
                      </g>
                    </g>
                  </g>
                </g>
              </g>
            </g>
          </g>
        </g>
      </g>
    </g>
    <g id="reduction" transform="translate(296.931 898.16)">
      <g id="Grupo_1168602" data-name="Grupo 1168602" transform="translate(1.064 31.867)">
        <g id="Grupo_1168599" data-name="Grupo 1168599" transform="translate(7.926 22.09)">
          <path id="Trazado_1013442" data-name="Trazado 1013442" d="M206.906,216.087h4.982a1.092,1.092,0,0,1,1.09,1.09v26.277a1.092,1.092,0,0,1-1.09,1.09h-4.982a1.092,1.092,0,0,1-1.09-1.09V217.177A1.092,1.092,0,0,1,206.906,216.087Z" transform="translate(-189.062 -216.087)" fill="#6cf5c2" fill-rule="evenodd"/>
          <path id="Trazado_1013443" data-name="Trazado 1013443" d="M206.906,216.087h2.18a1.092,1.092,0,0,0-1.09,1.09v26.277a1.092,1.092,0,0,0,1.09,1.09h-2.18a1.092,1.092,0,0,1-1.09-1.09V217.177A1.092,1.092,0,0,1,206.906,216.087Z" transform="translate(-189.062 -216.087)" fill="#00e499" fill-rule="evenodd"/>
          <path id="Trazado_1013444" data-name="Trazado 1013444" d="M313.479,276.326h4.983a1.092,1.092,0,0,1,1.09,1.09v18.76a1.092,1.092,0,0,1-1.09,1.09h-4.983a1.092,1.092,0,0,1-1.09-1.09v-18.76A1.092,1.092,0,0,1,313.479,276.326Z" transform="translate(-282.336 -268.809)" fill="#ffe177" fill-rule="evenodd"/>
          <path id="Trazado_1013445" data-name="Trazado 1013445" d="M313.479,276.327h2.18a1.092,1.092,0,0,0-1.09,1.09v18.76a1.092,1.092,0,0,0,1.09,1.09h-2.18a1.092,1.092,0,0,1-1.09-1.09v-18.76A1.092,1.092,0,0,1,313.479,276.327Z" transform="translate(-282.336 -268.81)" fill="#ffd064" fill-rule="evenodd"/>
          <path id="Trazado_1013446" data-name="Trazado 1013446" d="M425.034,334.017h-4.982a1.092,1.092,0,0,0-1.09,1.09v11.561a1.092,1.092,0,0,0,1.09,1.09h4.982a1.092,1.092,0,0,0,1.09-1.09V335.107A1.092,1.092,0,0,0,425.034,334.017Z" transform="translate(-375.609 -319.301)" fill="#fe646f" fill-rule="evenodd"/>
          <path id="Trazado_1013447" data-name="Trazado 1013447" d="M422.232,334.017h-2.18a1.092,1.092,0,0,0-1.09,1.09v11.561a1.092,1.092,0,0,0,1.09,1.09h2.18a1.092,1.092,0,0,1-1.09-1.09V335.107A1.092,1.092,0,0,1,422.232,334.017Z" transform="translate(-375.609 -319.301)" fill="#fd4755" fill-rule="evenodd"/>
          <path id="Trazado_1013448" data-name="Trazado 1013448" d="M124.438,437.893H72.644a1.09,1.09,0,0,0-1.088,1.088v.524a1.09,1.09,0,0,0,1.088,1.088h51.794a1.09,1.09,0,0,0,1.088-1.088v-.524A1.09,1.09,0,0,0,124.438,437.893Z" transform="translate(-71.556 -410.214)" fill="#a79ba7" fill-rule="evenodd"/>
          <path id="Trazado_1013449" data-name="Trazado 1013449" d="M71.556,448.711v.262a1.09,1.09,0,0,0,1.088,1.088h51.794a1.09,1.09,0,0,0,1.088-1.088v-.262Z" transform="translate(-71.556 -419.682)" fill="#837683" fill-rule="evenodd"/>
        </g>
        <g id="Grupo_1168600" data-name="Grupo 1168600" transform="translate(20.618 0)">
          <path id="Trazado_1013450" data-name="Trazado 1013450" d="M203.038,61.825a32.518,32.518,0,0,1-15.552-4.714c-7.506-4.482-12.532-11.226-14.224-18.041a31.285,31.285,0,0,0,11.655,11.683,43.152,43.152,0,0,0,18.5,5.46l.212-3.149a.329.329,0,0,1,.549-.222l7.038,6.353a.329.329,0,0,1-.033.515l-7.831,5.445a.329.329,0,0,1-.516-.292Z" transform="translate(-173.262 -39.07)" fill="#ffe177" fill-rule="evenodd"/>
          <path id="Trazado_1013451" data-name="Trazado 1013451" d="M203.038,61.825a32.518,32.518,0,0,1-15.552-4.714c-7.506-4.482-12.532-11.226-14.224-18.041l.114.2,0,0,0,0h0l0,0,0,0,.046.079c2.115,6.1,7.714,12.475,13.617,16a31.308,31.308,0,0,0,15.989,4.74Zm7.2-3.508L202.932,63.4l-.1,1.464a.329.329,0,0,0,.516.292l7.831-5.445a.329.329,0,0,0,.033-.515Z" transform="translate(-173.262 -39.07)" fill="#ffd064" fill-rule="evenodd"/>
        </g>
        <g id="Grupo_1168601" data-name="Grupo 1168601" transform="translate(0 10.48)">
          <path id="Trazado_1013452" data-name="Trazado 1013452" d="M25.855,132.5l1.45,4.33a59.976,59.976,0,0,1,8.26,10.519c5.521,9.695-2.333,19.542-12.853,19.364-10.519.177-18.374-9.669-12.853-19.364a59.98,59.98,0,0,1,8.26-10.519l1.455-4.325-3.541-3.541a2.222,2.222,0,0,1,2.774-3.441,1.143,1.143,0,0,0,1.734-.718,2.222,2.222,0,0,1,4.344,0,1.143,1.143,0,0,0,1.734.718,2.231,2.231,0,0,1,2.774.3h0a2.229,2.229,0,0,1,0,3.143Z" transform="translate(-8.042 -123.051)" fill="#ffc338" fill-rule="evenodd"/>
          <path id="Trazado_1013453" data-name="Trazado 1013453" d="M88.631,132.5l1.45,4.33a59.971,59.971,0,0,1,8.26,10.519c5.521,9.695-2.333,19.542-12.853,19.364-.206,0-.411,0-.614,0,10.207-.207,17.652-9.857,12.238-19.362a59.981,59.981,0,0,0-8.26-10.519L87.4,132.5l3.536-3.536a2.229,2.229,0,0,0,0-3.143h0a2.2,2.2,0,0,0-.958-.563,2.228,2.228,0,0,1,2.186.563h0a2.229,2.229,0,0,1,0,3.143Zm-8.863-7.241a2.231,2.231,0,0,1,1.814.264l0,0a1.208,1.208,0,0,1-.178.091,1.112,1.112,0,0,1-1.055-.094A2.21,2.21,0,0,0,79.768,125.255Zm5.1-2.117a2.234,2.234,0,0,1,1.558,1.664,1.142,1.142,0,0,0,1.729.721,1.107,1.107,0,0,1-.5-.721,2.231,2.231,0,0,0-2.172-1.751A2.205,2.205,0,0,0,84.873,123.138Z" transform="translate(-70.817 -123.051)" fill="#f5b829" fill-rule="evenodd"/>
          <path id="Trazado_1013454" data-name="Trazado 1013454" d="M71.776,203.109h9.648a2.163,2.163,0,1,0,0-4.325H71.776a2.163,2.163,0,1,0,0,4.325Z" transform="translate(-61.93 -189.333)" fill="#837683" fill-rule="evenodd"/>
          <path id="Trazado_1013455" data-name="Trazado 1013455" d="M154.416,203.109h1.229a2.163,2.163,0,1,0,0-4.325h-1.229a2.163,2.163,0,1,1,0,4.325Z" transform="translate(-136.15 -189.333)" fill="#685e68" fill-rule="evenodd"/>
        </g>
      </g>
      <path id="Trazado_1013456" data-name="Trazado 1013456" d="M20.414,73.713a3.231,3.231,0,0,1-.757,2.572,4.881,4.881,0,0,1-2.969,1.485V78.5a1,1,0,0,1-2,0v-.744a4.488,4.488,0,0,1-3.725-3.272A1,1,0,0,1,12.905,74a2.7,2.7,0,0,0,2.778,1.846h.136a3.309,3.309,0,0,0,2.328-.867,1.235,1.235,0,0,0,.284-1.026c-.082-.684-.486-1.521-2.892-1.916-3.36-.553-4.144-2.288-4.21-3.648a3.872,3.872,0,0,1,3.253-3.918l.11-.023v-.759a1,1,0,1,1,2,0v.751a4.462,4.462,0,0,1,3.367,2.713,1,1,0,1,1-1.84.772,2.577,2.577,0,0,0-2.466-1.586,3.992,3.992,0,0,0-.725.079,1.915,1.915,0,0,0-1.7,1.873c.018.374.067,1.368,2.539,1.775,1.037.169,4.193.688,4.552,3.647Zm41.544,9.653h-35.5c.27-.224.53-.46.784-.7h34.72v.7Zm-46.244,1.67.3,0a13.643,13.643,0,0,0,11.865-6.358,11.066,11.066,0,0,0-.159-11.517,57.194,57.194,0,0,0-7.827-10.013H11.573A57.139,57.139,0,0,0,3.747,67.164a11.07,11.07,0,0,0-.16,11.517,13.689,13.689,0,0,0,12.127,6.355ZM10.907,52.824h9.649a1.165,1.165,0,0,1,0,2.33H10.907a1.165,1.165,0,0,1,0-2.33Zm-1.5-6.11a1.215,1.215,0,0,1,.356-.866,1.232,1.232,0,0,1,1.528-.163,2.142,2.142,0,0,0,3.249-1.346,1.224,1.224,0,0,1,2.393,0,2.142,2.142,0,0,0,3.249,1.346A1.224,1.224,0,0,1,21.7,47.579l-3.249,3.249h-5.45L9.758,47.579a1.213,1.213,0,0,1-.356-.865ZM26.757,55H31.91V80.666H28.961c.222-.313.434-.634.632-.967a13.157,13.157,0,0,0-.143-13.523,37.819,37.819,0,0,0-2.694-4.033V55Zm13.276,7.5h5.154V80.666H40.032ZM53.31,69.694h5.154V80.666H53.31Zm9.646,10.972h-2.5V68.7a1,1,0,0,0-1-1H52.312a1,1,0,0,0-1,1v11.97H47.183V61.509a1,1,0,0,0-1-1h-7.15a1,1,0,0,0-1,1V80.666H33.907V54a1,1,0,0,0-1-1h-7.15a1,1,0,0,0-1,1v5.638q-1.172-1.4-2.577-2.944a3.16,3.16,0,0,0-.972-5.8l1.905-1.905A3.221,3.221,0,0,0,19.1,44a.118.118,0,0,1-.133.012.12.12,0,0,1-.086-.1,3.22,3.22,0,0,0-6.294,0,.144.144,0,0,1-.22.09,3.239,3.239,0,0,0-4.018.433,3.227,3.227,0,0,0,0,4.555L10.252,50.9a3.16,3.16,0,0,0-.973,5.8,55.653,55.653,0,0,0-7.268,9.479A13.158,13.158,0,0,0,1.87,79.7a15.642,15.642,0,0,0,13.583,7.336h.556a16.772,16.772,0,0,0,7.349-1.672h39.6a1,1,0,0,0,1-1v-2.7a1,1,0,0,0-1-1ZM32.725,44.284a34.956,34.956,0,0,1-6.786-5.215A31.619,31.619,0,0,0,36.3,48.876,31.2,31.2,0,0,0,51.241,53.41a1,1,0,0,1,.965,1.066l-.1,1.558,6.021-4.388L52.7,47.081l-.122,1.828a1,1,0,0,1-1.023.931A43.81,43.81,0,0,1,32.725,44.284Zm2.549,6.306C27.836,46.148,22.526,39.4,20.709,32.079a1,1,0,0,1,1.837-.732,30.265,30.265,0,0,0,11.2,11.222A42.092,42.092,0,0,0,50.655,47.8l.19-2.818a1,1,0,0,1,1.638-.7l7.9,6.655a1,1,0,0,1-.056,1.571l-8.777,6.4a1,1,0,0,1-1.584-.874l.181-2.675A33.438,33.438,0,0,1,35.274,50.59Z" transform="translate(0 0)" fill-rule="evenodd"/>
    </g>
  </g>
</svg>
