<svg xmlns="http://www.w3.org/2000/svg" xmlns:xlink="http://www.w3.org/1999/xlink" width="113" height="113" viewBox="0 0 113 113">
  <defs>
    <filter id="Trazado_982547" x="0" y="0" width="113" height="113" filterUnits="userSpaceOnUse">
      <feOffset dy="3" input="SourceAlpha"/>
      <feGaussianBlur stdDeviation="3" result="blur"/>
      <feFlood flood-opacity="0.161"/>
      <feComposite operator="in" in2="blur"/>
      <feComposite in="SourceGraphic"/>
    </filter>
  </defs>
  <g id="Grupo_1168277" data-name="Grupo 1168277" transform="translate(-171 -780)">
    <g id="Grupo_1167505" data-name="Grupo 1167505" transform="translate(0 -47)">
      <g id="Grupo_1166845" data-name="Grupo 1166845" transform="translate(180 833)">
        <g id="Grupo_1166720" data-name="Grupo 1166720">
          <g id="Grupo_1164305" data-name="Grupo 1164305" transform="translate(0)">
            <g id="Grupo_1163948" data-name="Grupo 1163948">
              <g id="Grupo_1158168" data-name="Grupo 1158168">
                <g id="Grupo_1152576" data-name="Grupo 1152576">
                  <g id="Grupo_1148633" data-name="Grupo 1148633">
                    <g id="Grupo_1148525" data-name="Grupo 1148525">
                      <g transform="matrix(1, 0, 0, 1, -9, -6)" filter="url(#Trazado_982547)">
                        <g id="Trazado_982547-2" data-name="Trazado 982547" transform="translate(9 6)" fill="#f5fdfa">
                          <path d="M 47.5 93.5 C 41.28937149047852 93.5 35.26533508300781 92.28397369384766 29.59518623352051 89.88570404052734 C 24.11771965026855 87.56893157958984 19.19813346862793 84.25196075439453 14.97309303283691 80.02691650390625 C 10.74804019927979 75.80186462402344 7.431066513061523 70.88229370117188 5.114293098449707 65.40481567382812 C 2.716026782989502 59.73468017578125 1.5 53.71062850952148 1.5 47.5 C 1.5 41.28937149047852 2.716026782989502 35.26533508300781 5.114293098449707 29.59518623352051 C 7.431066513061523 24.11771965026855 10.74804019927979 19.19813346862793 14.97309303283691 14.97309303283691 C 19.19813346862793 10.74804019927979 24.11771965026855 7.431066513061523 29.59518623352051 5.114293098449707 C 35.26533508300781 2.716026782989502 41.28937149047852 1.5 47.5 1.5 C 53.71062850952148 1.5 59.73468017578125 2.716026782989502 65.40481567382812 5.114293098449707 C 70.88229370117188 7.431066513061523 75.80186462402344 10.74804019927979 80.02691650390625 14.97309303283691 C 84.25196075439453 19.19813346862793 87.56893157958984 24.11771965026855 89.88570404052734 29.59518623352051 C 92.28397369384766 35.26533508300781 93.5 41.28937149047852 93.5 47.5 C 93.5 53.71062850952148 92.28397369384766 59.73468017578125 89.88570404052734 65.40481567382812 C 87.56893157958984 70.88229370117188 84.25196075439453 75.80186462402344 80.02691650390625 80.02691650390625 C 75.80186462402344 84.25196075439453 70.88229370117188 87.56893157958984 65.40481567382812 89.88570404052734 C 59.73468017578125 92.28397369384766 53.71062850952148 93.5 47.5 93.5 Z" stroke="none"/>
                          <path d="M 47.5 3 C 41.49121475219727 3 35.66376876831055 4.176155090332031 30.17950439453125 6.495796203613281 C 24.88084411621094 8.736953735351562 20.12152099609375 11.94598388671875 16.03375244140625 16.03375244140625 C 11.94598388671875 20.12152099609375 8.736953735351562 24.88084411621094 6.495796203613281 30.17950439453125 C 4.176155090332031 35.66376876831055 3 41.49121475219727 3 47.5 C 3 53.50878524780273 4.176155090332031 59.33623123168945 6.495796203613281 64.82049560546875 C 8.736953735351562 70.11915588378906 11.94598388671875 74.87847900390625 16.03375244140625 78.96624755859375 C 20.12152099609375 83.05401611328125 24.88084411621094 86.26304626464844 30.17950439453125 88.50419616699219 C 35.66376876831055 90.82384490966797 41.49121475219727 92 47.5 92 C 53.50878524780273 92 59.33623123168945 90.82384490966797 64.82049560546875 88.50419616699219 C 70.11915588378906 86.26304626464844 74.87847900390625 83.05401611328125 78.96624755859375 78.96624755859375 C 83.05401611328125 74.87847900390625 86.26304626464844 70.11915588378906 88.50419616699219 64.82049560546875 C 90.82384490966797 59.33623123168945 92 53.50878524780273 92 47.5 C 92 41.49121475219727 90.82384490966797 35.66376876831055 88.50419616699219 30.17950439453125 C 86.26304626464844 24.88084411621094 83.05401611328125 20.12152099609375 78.96624755859375 16.03375244140625 C 74.87847900390625 11.94598388671875 70.11915588378906 8.736953735351562 64.82049560546875 6.495796203613281 C 59.33623123168945 4.176155090332031 53.50878524780273 3 47.5 3 M 47.5 0 C 73.7335205078125 0 95 21.2664794921875 95 47.5 C 95 73.7335205078125 73.7335205078125 95 47.5 95 C 21.2664794921875 95 0 73.7335205078125 0 47.5 C 0 21.2664794921875 21.2664794921875 0 47.5 0 Z" stroke="none" fill="#598475"/>
                        </g>
                      </g>
                    </g>
                  </g>
                </g>
              </g>
            </g>
          </g>
        </g>
      </g>
    </g>
    <g id="budget_1_" data-name="budget (1)" transform="translate(197.451 804)">
      <path id="Trazado_1012869" data-name="Trazado 1012869" d="M140.49,17.947V52.464c0,.069,0,.138,0,.207a4.456,4.456,0,0,1-4.452,4.249H110.98a4.456,4.456,0,0,1-4.457-4.455V12.5a4.45,4.45,0,0,1,4.457-4.457h19.9a4.442,4.442,0,0,1,1.935.443c1.2.579,1.543,1.312,3.707,3.524,2.489,2.7,3.083,2.98,3.591,4.15A4.407,4.407,0,0,1,140.49,17.947Z" transform="translate(-93.867 -7.125)" fill="#ffc477"/>
      <path id="Trazado_1012870" data-name="Trazado 1012870" d="M167.206,17.946V52.463c0,.069,0,.138,0,.207a4.47,4.47,0,0,1-1.006.114H141.142a4.456,4.456,0,0,1-4.457-4.455V8.365c0-.07,0-.139,0-.208a4.477,4.477,0,0,1,1.006-.114h19.9a4.463,4.463,0,0,1,3.256,1.415l2.386,2.552,2.731,2.858a4.484,4.484,0,0,1,1.236,3.078Z" transform="translate(-120.583 -7.124)" fill="#ffdaaa"/>
      <path id="Trazado_1012871" data-name="Trazado 1012871" d="M279.375,181.194V206.25a6.3,6.3,0,0,1-6.3,6.3H256.712a6.3,6.3,0,0,1-6.3-6.3V181.194a6.3,6.3,0,0,1,6.3-6.3h16.365A6.3,6.3,0,0,1,279.375,181.194Z" transform="translate(-221.319 -154.915)" fill="#4cba68"/>
      <path id="Trazado_1012872" data-name="Trazado 1012872" d="M299.563,181.194V206.25a3.232,3.232,0,0,1-3.694,4.23H279.5a6.3,6.3,0,0,1-6.3-6.3V179.126a6.264,6.264,0,0,1,1.22-3.725,6.271,6.271,0,0,1,2.474-.505h16.365A6.3,6.3,0,0,1,299.563,181.194Z" transform="translate(-241.507 -154.915)" fill="#7ccc92"/>
      <path id="Trazado_1012873" data-name="Trazado 1012873" d="M360.865,366.911v2.943a.941.941,0,0,1-.941.942h-2.944a.942.942,0,0,1-.942-.942v-2.943a.942.942,0,0,1,.942-.942h2.944A.941.941,0,0,1,360.865,366.911Z" transform="translate(-314.877 -324.159)" fill="#2c733f"/>
      <path id="Trazado_1012874" data-name="Trazado 1012874" d="M308.6,209.109v3.153a2.031,2.031,0,0,1-2.031,2.031H290.328a2.031,2.031,0,0,1-2.031-2.031v-3.153a2.031,2.031,0,0,1,2.031-2.031h16.244A2.031,2.031,0,0,1,308.6,209.109Z" transform="translate(-254.874 -183.42)" fill="#1e81ce"/>
      <path id="Trazado_1012875" data-name="Trazado 1012875" d="M335.317,209.109v3.153a2.031,2.031,0,0,1-2.031,2.031h-12.8a2.031,2.031,0,0,1-2.031-2.031v-3.153a2.031,2.031,0,0,1,2.031-2.031h12.8A2.031,2.031,0,0,1,335.317,209.109Z" transform="translate(-281.589 -183.42)" fill="#3d9ae2"/>
      <g id="Grupo_1168273" data-name="Grupo 1168273" transform="translate(33.423 34.115)">
        <path id="Trazado_1012876" data-name="Trazado 1012876" d="M293.125,366.911v2.943a.942.942,0,0,1-.942.942h-2.944a.942.942,0,0,1-.942-.942v-2.943a.942.942,0,0,1,.942-.942h2.944A.942.942,0,0,1,293.125,366.911Z" transform="translate(-288.297 -358.273)" fill="#2c733f"/>
        <path id="Trazado_1012877" data-name="Trazado 1012877" d="M360.865,299.55v2.943a.941.941,0,0,1-.941.942h-2.944a.942.942,0,0,1-.942-.942V299.55a.942.942,0,0,1,.942-.942h2.944A.941.941,0,0,1,360.865,299.55Z" transform="translate(-348.3 -298.608)" fill="#2c733f"/>
      </g>
      <path id="Trazado_1012878" data-name="Trazado 1012878" d="M429.422,299.55v2.943a.942.942,0,0,1-.942.942h-2.943a.942.942,0,0,1-.942-.942V299.55a.942.942,0,0,1,.942-.942h2.943A.942.942,0,0,1,429.422,299.55Z" transform="translate(-375.601 -264.493)" fill="#ee8700"/>
      <g id="Grupo_1168274" data-name="Grupo 1168274" transform="translate(33.423 34.115)">
        <path id="Trazado_1012879" data-name="Trazado 1012879" d="M293.125,299.55v2.943a.942.942,0,0,1-.942.942h-2.944a.942.942,0,0,1-.942-.942V299.55a.942.942,0,0,1,.942-.942h2.944A.942.942,0,0,1,293.125,299.55Z" transform="translate(-288.297 -298.608)" fill="#2c733f"/>
        <path id="Trazado_1012880" data-name="Trazado 1012880" d="M360.865,430.972v2.944a.941.941,0,0,1-.941.942h-2.944a.942.942,0,0,1-.942-.942v-2.944a.941.941,0,0,1,.942-.941h2.944A.941.941,0,0,1,360.865,430.972Z" transform="translate(-348.3 -415.016)" fill="#2c733f"/>
        <path id="Trazado_1012881" data-name="Trazado 1012881" d="M293.125,430.972v2.944a.942.942,0,0,1-.942.942h-2.944a.942.942,0,0,1-.942-.942v-2.944a.942.942,0,0,1,.942-.941h2.944A.941.941,0,0,1,293.125,430.972Z" transform="translate(-288.297 -415.016)" fill="#2c733f"/>
      </g>
      <path id="Trazado_1012882" data-name="Trazado 1012882" d="M429.423,367.367v9.139a1.606,1.606,0,0,1-1.606,1.607H426.2a1.606,1.606,0,0,1-1.606-1.607v-9.139a1.4,1.4,0,0,1,1.4-1.4h2.028A1.4,1.4,0,0,1,429.423,367.367Z" transform="translate(-375.601 -324.158)" fill="#ee8700"/>
      <g id="Grupo_1168275" data-name="Grupo 1168275" transform="translate(33.423 34.115)">
        <path id="Trazado_1012883" data-name="Trazado 1012883" d="M360.865,366.911v.875a.941.941,0,0,1-.941.942h-2.944a.942.942,0,0,1-.942-.942v-.875a.942.942,0,0,1,.942-.942h2.944A.941.941,0,0,1,360.865,366.911Z" transform="translate(-348.3 -358.273)" fill="#317f46"/>
        <path id="Trazado_1012884" data-name="Trazado 1012884" d="M293.125,366.911v.875a.942.942,0,0,1-.942.942h-2.944a.942.942,0,0,1-.942-.942v-.875a.942.942,0,0,1,.942-.942h2.944A.942.942,0,0,1,293.125,366.911Z" transform="translate(-288.297 -358.273)" fill="#317f46"/>
        <path id="Trazado_1012885" data-name="Trazado 1012885" d="M360.865,299.55v.875a.941.941,0,0,1-.941.942h-2.944a.942.942,0,0,1-.942-.942v-.875a.942.942,0,0,1,.942-.942h2.944A.941.941,0,0,1,360.865,299.55Z" transform="translate(-348.3 -298.608)" fill="#317f46"/>
      </g>
      <path id="Trazado_1012886" data-name="Trazado 1012886" d="M429.422,299.55v.875a.942.942,0,0,1-.942.942h-2.943a.942.942,0,0,1-.942-.942v-.875a.942.942,0,0,1,.942-.942h2.943A.942.942,0,0,1,429.422,299.55Z" transform="translate(-375.601 -264.493)" fill="#ff9811"/>
      <g id="Grupo_1168276" data-name="Grupo 1168276" transform="translate(33.423 34.115)">
        <path id="Trazado_1012887" data-name="Trazado 1012887" d="M293.125,299.55v.875a.942.942,0,0,1-.942.942h-2.944a.942.942,0,0,1-.942-.942v-.875a.942.942,0,0,1,.942-.942h2.944A.942.942,0,0,1,293.125,299.55Z" transform="translate(-288.297 -298.608)" fill="#317f46"/>
        <path id="Trazado_1012888" data-name="Trazado 1012888" d="M360.865,430.972v.876a.941.941,0,0,1-.941.942h-2.944a.942.942,0,0,1-.942-.942v-.876a.941.941,0,0,1,.942-.941h2.944A.941.941,0,0,1,360.865,430.972Z" transform="translate(-348.3 -415.016)" fill="#317f46"/>
        <path id="Trazado_1012889" data-name="Trazado 1012889" d="M293.125,430.972v.876a.942.942,0,0,1-.942.942h-2.944a.942.942,0,0,1-.942-.942v-.876a.942.942,0,0,1,.942-.941h2.944A.941.941,0,0,1,293.125,430.972Z" transform="translate(-288.297 -415.016)" fill="#317f46"/>
      </g>
      <path id="Trazado_1012890" data-name="Trazado 1012890" d="M429.423,367.367v7.072a1.606,1.606,0,0,1-1.606,1.607H426.2a1.606,1.606,0,0,1-1.606-1.607v-7.072a1.4,1.4,0,0,1,1.4-1.4h2.028A1.4,1.4,0,0,1,429.423,367.367Z" transform="translate(-375.601 -324.158)" fill="#ff9811"/>
      <path id="Trazado_1012891" data-name="Trazado 1012891" d="M343.959,19.6h-5.584a1.713,1.713,0,0,1-1.713-1.713v-5.96a4.45,4.45,0,0,1,1.321.971l2.387,2.552,2.731,2.858A4.413,4.413,0,0,1,343.959,19.6Z" transform="translate(-297.712 -10.562)" fill="#ffb655"/>
      <path id="Trazado_1012892" data-name="Trazado 1012892" d="M87.19,463.833a2.188,2.188,0,0,1-2.182,2.182H71.638a2.182,2.182,0,0,1,0-4.365h13.37A2.189,2.189,0,0,1,87.19,463.833Z" transform="translate(-61.035 -408.909)" fill="#aa6100"/>
      <path id="Trazado_1012893" data-name="Trazado 1012893" d="M87.19,425.628a2.188,2.188,0,0,1-2.182,2.182H71.638a2.182,2.182,0,0,1,0-4.365h13.37A2.189,2.189,0,0,1,87.19,425.628Z" transform="translate(-61.035 -375.069)" fill="#cc7400"/>
      <path id="Trazado_1012894" data-name="Trazado 1012894" d="M87.19,387.424a2.188,2.188,0,0,1-2.182,2.182H71.638a2.182,2.182,0,0,1,0-4.365h13.37A2.189,2.189,0,0,1,87.19,387.424Z" transform="translate(-61.035 -341.23)" fill="#ee8700"/>
      <path id="Trazado_1012895" data-name="Trazado 1012895" d="M87.19,349.218a2.188,2.188,0,0,1-2.182,2.182H71.638a2.189,2.189,0,0,1-2.182-2.182,2.188,2.188,0,0,1,2.182-2.182h13.37A2.189,2.189,0,0,1,87.19,349.218Z" transform="translate(-61.035 -307.389)" fill="#ff9811"/>
      <path id="Trazado_1012896" data-name="Trazado 1012896" d="M85.008,313.2H71.638a2.189,2.189,0,0,1-2.182-2.182h0a2.189,2.189,0,0,1,2.182-2.182H85.008a2.189,2.189,0,0,1,2.182,2.182h0A2.189,2.189,0,0,1,85.008,313.2Z" transform="translate(-61.035 -273.551)" fill="#ffa733"/>
      <path id="Trazado_1012897" data-name="Trazado 1012897" d="M25.629,384.425a7.1,7.1,0,0,0-7.4-6.8H15.447a7.11,7.11,0,0,0,.608,14.208h2.174v0c.2.008.4.01.6,0a7.22,7.22,0,0,0,1.321-.18,7.111,7.111,0,0,0,5.48-6.665v-.008C25.637,384.8,25.637,384.611,25.629,384.425Z" transform="translate(-7.151 -334.477)" fill="#cc7400"/>
      <path id="Trazado_1012898" data-name="Trazado 1012898" d="M72.52,386.427v.008a7.11,7.11,0,0,1-5.48,6.665,7.113,7.113,0,0,1-5.473-6.618c0-.016,0-.031,0-.047v-.008a7.113,7.113,0,0,1,5.479-7.172,7.112,7.112,0,0,1,5.475,6.619C72.527,386.06,72.527,386.244,72.52,386.427Z" transform="translate(-54.041 -335.927)" fill="#ee8700"/>
      <path id="Trazado_1012899" data-name="Trazado 1012899" d="M51.758,19.12H47.542v-8.3a5.389,5.389,0,0,0-1.49-3.713L43.327,4.258C41.015,1.876,40.724,1.2,39.346.534A5.388,5.388,0,0,0,37.014,0h-19.9a5.382,5.382,0,0,0-5.376,5.376V34.364H10.6a3.1,3.1,0,0,0-2.2,5.284,3.09,3.09,0,0,0-.9,2.182,3.182,3.182,0,0,0,.061.613A7.818,7.818,0,0,0,8.681,58.031l15.293-.006a3.1,3.1,0,0,0,2.2-5.284,3.085,3.085,0,0,0,.9-2.028h1.164v.621a7.167,7.167,0,0,0,7.159,7.159H51.758a7.167,7.167,0,0,0,7.159-7.159V26.279A7.167,7.167,0,0,0,51.758,19.12ZM39.868,3.249c3.609,3.815,4.422,4.675,4.575,4.837,0,0,0,0,0,0h0l0,.006h0a.019.019,0,0,0,.007.007l0,0s0,0,0,0,0,0,0,0,0,0,0,0h-4.6V3.249ZM10.6,36.2h13.37a1.263,1.263,0,1,1,0,2.527H10.6a1.263,1.263,0,0,1,0-2.527Zm0,4.365h13.37a1.263,1.263,0,1,1,0,2.527H14.739a7.484,7.484,0,0,0-1.164-.42,7.746,7.746,0,0,0-1.838-.27c-.18,0-.361,0-.541,0H9.482a1.242,1.242,0,0,1-.141-.578A1.266,1.266,0,0,1,10.6,40.566Zm14.633,5.628a1.265,1.265,0,0,1-1.263,1.263H18.831a7.73,7.73,0,0,0-1.56-2.527h6.7A1.266,1.266,0,0,1,25.237,46.195Zm-19.1-1.649A7.929,7.929,0,0,0,4.686,46.4H3.616A6.068,6.068,0,0,1,6.133,44.545Zm-3.5,3.579H3.976a7.933,7.933,0,0,0-.25,1.377H2.312A6.038,6.038,0,0,1,2.638,48.124Zm.148,4.554a6.028,6.028,0,0,1-.432-1.454h1.4a6.934,6.934,0,0,0,.328,1.454ZM3.933,54.4c.564,0,.891,0,.968,0a7.76,7.76,0,0,0,1.236,1.5A6.071,6.071,0,0,1,3.933,54.4Zm7.84,1.908a6.1,6.1,0,1,1,3.862-10.58A6.09,6.09,0,0,1,11.773,56.309Zm12.2-.122H16.557a7.872,7.872,0,0,0,1.974-2.527h5.442a1.263,1.263,0,1,1,0,2.527Zm1.253-5.474a1.264,1.264,0,0,1-1.253,1.11H19.165a7.9,7.9,0,0,0,.111-2.527h4.7A1.265,1.265,0,0,1,25.227,50.713Zm3.007-1.838H26.575a3.049,3.049,0,0,0-.4-.5,3.094,3.094,0,0,0,0-4.365,3.095,3.095,0,0,0,0-4.365,3.1,3.1,0,0,0-2.2-5.284h-10.4V5.376a3.542,3.542,0,0,1,3.538-3.538H38.03v7.2a.919.919,0,0,0,.919.919h6.646c.192.744.073.5.109,9.165H35.393a7.167,7.167,0,0,0-7.159,7.159v22.6Zm28.961,2.459a5.442,5.442,0,0,1-5.436,5.436H35.393a5.443,5.443,0,0,1-5.436-5.436V26.279a5.443,5.443,0,0,1,5.436-5.436H51.758a5.442,5.442,0,0,1,5.436,5.436V51.335Z"/>
      <path id="Trazado_1012900" data-name="Trazado 1012900" d="M286.774,206.752h-3.125a1.173,1.173,0,0,1-1.169-1.169V202.43a1.173,1.173,0,0,1,1.169-1.169h16.244a1.17,1.17,0,0,1,1.169,1.169v3.153a1.17,1.17,0,0,1-1.169,1.169h-9.4a.861.861,0,1,0,0,1.723h9.4a2.9,2.9,0,0,0,2.892-2.892V202.43a2.9,2.9,0,0,0-2.892-2.892H283.649a2.892,2.892,0,0,0-2.892,2.892v3.153a2.892,2.892,0,0,0,2.892,2.892h3.125a.861.861,0,0,0,0-1.723Z" transform="translate(-248.195 -176.742)"/>
      <path id="Trazado_1012901" data-name="Trazado 1012901" d="M282.56,364.978H285.5a1.8,1.8,0,0,0,1.8-1.8v-2.943a1.8,1.8,0,0,0-1.8-1.8H282.56a1.806,1.806,0,0,0-1.8,1.8v2.943A1.806,1.806,0,0,0,282.56,364.978Zm-.08-4.746a.081.081,0,0,1,.08-.08H285.5a.081.081,0,0,1,.08.08v2.943a.081.081,0,0,1-.08.08H282.56a.081.081,0,0,1-.08-.08Z" transform="translate(-248.195 -317.48)"/>
      <path id="Trazado_1012902" data-name="Trazado 1012902" d="M421.8,291.068h-2.943a1.8,1.8,0,0,0-1.8,1.8v2.943a1.8,1.8,0,0,0,1.8,1.8H421.8a1.8,1.8,0,0,0,1.8-1.8v-2.943A1.8,1.8,0,0,0,421.8,291.068Zm.08,4.746a.08.08,0,0,1-.08.08h-2.943a.081.081,0,0,1-.08-.08c.036-2.912-.075-3.023.08-3.023H421.8a.08.08,0,0,1,.08.08Z" transform="translate(-368.923 -257.815)"/>
      <path id="Trazado_1012903" data-name="Trazado 1012903" d="M282.56,297.617H285.5a1.8,1.8,0,0,0,1.8-1.8v-2.943a1.8,1.8,0,0,0-1.8-1.8H282.56a1.806,1.806,0,0,0-1.8,1.8v2.943A1.805,1.805,0,0,0,282.56,297.617Zm-.08-4.746a.081.081,0,0,1,.08-.08H285.5a.081.081,0,0,1,.08.08v2.943a.081.081,0,0,1-.08.08H282.56a.081.081,0,0,1-.08-.08Z" transform="translate(-248.195 -257.815)"/>
      <path id="Trazado_1012904" data-name="Trazado 1012904" d="M286.83,423.1a1.8,1.8,0,0,0-1.35-.608h-2.944a1.8,1.8,0,0,0-1.348.608,2.464,2.464,0,0,0-.455,1.838v2.3a1.806,1.806,0,0,0,1.8,1.8h2.944a1.8,1.8,0,0,0,1.8-1.8v-2.3A2.485,2.485,0,0,0,286.83,423.1Zm-1.35,4.219c-2.908-.036-3.024.075-3.024-.08,0-3.116-.035-3.023.08-3.023h2.944c.141,0,.054.2.08.723A12.247,12.247,0,0,1,285.48,427.318Z" transform="translate(-248.171 -374.223)"/>
      <path id="Trazado_1012905" data-name="Trazado 1012905" d="M421.344,358.428h-2.028a2.263,2.263,0,0,0-2.26,2.26v9.139a2.471,2.471,0,0,0,2.467,2.468h1.615a2.47,2.47,0,0,0,2.467-2.468v-9.139A2.263,2.263,0,0,0,421.344,358.428Zm.538,11.4a.745.745,0,0,1-.744.745h-1.615a.746.746,0,0,1-.744-.745v-9.139a.538.538,0,0,1,.538-.537h2.028a.538.538,0,0,1,.538.537v9.139Z" transform="translate(-368.922 -317.479)"/>
      <path id="Trazado_1012906" data-name="Trazado 1012906" d="M166.356,173.2h0c-1.05-.386-1.809-.665-1.809-1.638,0-.887.589-1.337,1.751-1.337,1.233,0,1.565.543,2,.543a.827.827,0,0,0,.734-.849c0-.718-1.171-1.074-2.217-1.167V168.1a.816.816,0,1,0-1.633,0v.75a2.67,2.67,0,0,0-2.217,2.793c0,2.005,1.476,2.56,2.662,3.006,1.161.436,2.079.781,2.079,2.107,0,1.1-.608,1.651-1.808,1.651-1.756,0-1.772-1.185-2.442-1.185a.861.861,0,0,0-.749.849c0,.679,1.011,1.571,2.474,1.8v.625a.816.816,0,1,0,1.633,0v-.642a2.949,2.949,0,0,0,2.474-3.186C169.288,174.276,167.662,173.679,166.356,173.2Z" transform="translate(-143.632 -148.176)"/>
      <path id="Trazado_1012907" data-name="Trazado 1012907" d="M353.224,422.491H350.28a1.8,1.8,0,0,0-1.35.608,2.474,2.474,0,0,0-.454,1.838v2.3a1.8,1.8,0,0,0,1.8,1.8h2.944a1.8,1.8,0,0,0,1.8-1.8v-2.944a1.805,1.805,0,0,0-1.8-1.8Zm0,4.826c-2.908-.036-3.024.075-3.024-.08v-2.944a.08.08,0,0,1,.08-.079h2.944a.08.08,0,0,1,.079.079C353.269,427.208,353.377,427.318,353.224,427.318Z" transform="translate(-308.176 -374.223)"/>
      <path id="Trazado_1012908" data-name="Trazado 1012908" d="M353.246,291.068H350.3a1.8,1.8,0,0,0-1.8,1.8v2.943a1.8,1.8,0,0,0,1.8,1.8h2.944a1.777,1.777,0,0,0,.656-.124,1.806,1.806,0,0,0,1.146-1.679v-2.943A1.805,1.805,0,0,0,353.246,291.068Zm.079,4.746a.08.08,0,0,1-.079.08H350.3a.081.081,0,0,1-.08-.08v-2.943c0-.155.107-.046,3.024-.08a.08.08,0,0,1,.079.08v2.943Z" transform="translate(-308.198 -257.815)"/>
      <path id="Trazado_1012909" data-name="Trazado 1012909" d="M353.9,358.552a1.776,1.776,0,0,0-.656-.124H350.3a1.8,1.8,0,0,0-1.8,1.8v2.943a1.8,1.8,0,0,0,1.8,1.8h2.944a1.8,1.8,0,0,0,1.8-1.8v-2.943A1.805,1.805,0,0,0,353.9,358.552Zm-.577,4.622a.08.08,0,0,1-.079.08H350.3a.081.081,0,0,1-.08-.08v-2.943a.081.081,0,0,1,.08-.08h2.944a.08.08,0,0,1,.079.08Z" transform="translate(-308.198 -317.479)"/>
      <path id="Trazado_1012910" data-name="Trazado 1012910" d="M320.908,104.765h2.164a.861.861,0,0,0,0-1.723h-2.164a.861.861,0,1,0,0,1.723Z" transform="translate(-282.997 -91.27)"/>
      <path id="Trazado_1012911" data-name="Trazado 1012911" d="M157.031,104.765h15.277a.861.861,0,1,0,0-1.723H157.031a.861.861,0,0,0,0,1.723Z" transform="translate(-137.842 -91.27)"/>
      <path id="Trazado_1012912" data-name="Trazado 1012912" d="M159.77,142.195a.861.861,0,0,0,0-1.723h-2.738a.861.861,0,0,0,0,1.723Z" transform="translate(-137.842 -124.424)"/>
      <path id="Trazado_1012913" data-name="Trazado 1012913" d="M226.724,141.333a.862.862,0,0,0-.861-.861h-14.7a.861.861,0,0,0,0,1.723h14.7A.862.862,0,0,0,226.724,141.333Z" transform="translate(-185.787 -124.424)"/>
      <path id="Trazado_1012914" data-name="Trazado 1012914" d="M79.24,401.291c0-.217.08-.279.154-.32a1.48,1.48,0,0,1,1.249.084.986.986,0,0,0,.466.142c.85,0,1.522-1.579-.508-1.928v-.054a.873.873,0,1,0-1.746,0v.166a1.959,1.959,0,0,0-1.332,1.962c0,1.469,1.067,1.87,1.847,2.163.743.279,1,.4,1,.907,0,.316-.085.609-.7.609-.9,0-.793-.712-1.467-.712a.9.9,0,0,0-.832.892c0,.6.621,1.163,1.486,1.393v.065a.873.873,0,1,0,1.746,0v-.088a2.158,2.158,0,0,0,1.486-2.211C82.087,401.744,79.24,402.137,79.24,401.291Z" transform="translate(-68.044 -352.833)"/>
    </g>
  </g>
</svg>
