<svg xmlns="http://www.w3.org/2000/svg" xmlns:xlink="http://www.w3.org/1999/xlink" width="113" height="113" viewBox="0 0 113 113">
  <defs>
    <filter id="Trazado_982547" x="0" y="0" width="113" height="113" filterUnits="userSpaceOnUse">
      <feOffset dy="3" input="SourceAlpha"/>
      <feGaussianBlur stdDeviation="3" result="blur"/>
      <feFlood flood-opacity="0.161"/>
      <feComposite operator="in" in2="blur"/>
      <feComposite in="SourceGraphic"/>
    </filter>
  </defs>
  <g id="Grupo_1168644" data-name="Grupo 1168644" transform="translate(-587 -903)">
    <g id="Grupo_1168126" data-name="Grupo 1168126" transform="translate(596 909)">
      <g id="Grupo_1167343" data-name="Grupo 1167343">
        <g id="Grupo_1166777" data-name="Grupo 1166777">
          <g id="Grupo_1164305" data-name="Grupo 1164305" transform="translate(0)">
            <g id="Grupo_1163948" data-name="Grupo 1163948">
              <g id="Grupo_1158168" data-name="Grupo 1158168">
                <g id="Grupo_1152576" data-name="Grupo 1152576">
                  <g id="Grupo_1148633" data-name="Grupo 1148633">
                    <g id="Grupo_1148525" data-name="Grupo 1148525">
                      <g transform="matrix(1, 0, 0, 1, -9, -6)" filter="url(#Trazado_982547)">
                        <g id="Trazado_982547-2" data-name="Trazado 982547" transform="translate(9 6)" fill="#e8edf7">
                          <path d="M 47.5 93.5 C 41.28937149047852 93.5 35.26533508300781 92.28397369384766 29.59518623352051 89.88570404052734 C 24.11771965026855 87.56893157958984 19.19813346862793 84.25196075439453 14.97309303283691 80.02691650390625 C 10.74804019927979 75.80186462402344 7.431066513061523 70.88229370117188 5.114293098449707 65.40481567382812 C 2.716026782989502 59.73468017578125 1.5 53.71062850952148 1.5 47.5 C 1.5 41.28937149047852 2.716026782989502 35.26533508300781 5.114293098449707 29.59518623352051 C 7.431066513061523 24.11771965026855 10.74804019927979 19.19813346862793 14.97309303283691 14.97309303283691 C 19.19813346862793 10.74804019927979 24.11771965026855 7.431066513061523 29.59518623352051 5.114293098449707 C 35.26533508300781 2.716026782989502 41.28937149047852 1.5 47.5 1.5 C 53.71062850952148 1.5 59.73468017578125 2.716026782989502 65.40481567382812 5.114293098449707 C 70.88229370117188 7.431066513061523 75.80186462402344 10.74804019927979 80.02691650390625 14.97309303283691 C 84.25196075439453 19.19813346862793 87.56893157958984 24.11771965026855 89.88570404052734 29.59518623352051 C 92.28397369384766 35.26533508300781 93.5 41.28937149047852 93.5 47.5 C 93.5 53.71062850952148 92.28397369384766 59.73468017578125 89.88570404052734 65.40481567382812 C 87.56893157958984 70.88229370117188 84.25196075439453 75.80186462402344 80.02691650390625 80.02691650390625 C 75.80186462402344 84.25196075439453 70.88229370117188 87.56893157958984 65.40481567382812 89.88570404052734 C 59.73468017578125 92.28397369384766 53.71062850952148 93.5 47.5 93.5 Z" stroke="none"/>
                          <path d="M 47.5 3 C 41.49121475219727 3 35.66376876831055 4.176155090332031 30.17950439453125 6.495796203613281 C 24.88084411621094 8.736953735351562 20.12152099609375 11.94598388671875 16.03375244140625 16.03375244140625 C 11.94598388671875 20.12152099609375 8.736953735351562 24.88084411621094 6.495796203613281 30.17950439453125 C 4.176155090332031 35.66376876831055 3 41.49121475219727 3 47.5 C 3 53.50878524780273 4.176155090332031 59.33623123168945 6.495796203613281 64.82049560546875 C 8.736953735351562 70.11915588378906 11.94598388671875 74.87847900390625 16.03375244140625 78.96624755859375 C 20.12152099609375 83.05401611328125 24.88084411621094 86.26304626464844 30.17950439453125 88.50419616699219 C 35.66376876831055 90.82384490966797 41.49121475219727 92 47.5 92 C 53.50878524780273 92 59.33623123168945 90.82384490966797 64.82049560546875 88.50419616699219 C 70.11915588378906 86.26304626464844 74.87847900390625 83.05401611328125 78.96624755859375 78.96624755859375 C 83.05401611328125 74.87847900390625 86.26304626464844 70.11915588378906 88.50419616699219 64.82049560546875 C 90.82384490966797 59.33623123168945 92 53.50878524780273 92 47.5 C 92 41.49121475219727 90.82384490966797 35.66376876831055 88.50419616699219 30.17950439453125 C 86.26304626464844 24.88084411621094 83.05401611328125 20.12152099609375 78.96624755859375 16.03375244140625 C 74.87847900390625 11.94598388671875 70.11915588378906 8.736953735351562 64.82049560546875 6.495796203613281 C 59.33623123168945 4.176155090332031 53.50878524780273 3 47.5 3 M 47.5 0 C 73.7335205078125 0 95 21.2664794921875 95 47.5 C 95 73.7335205078125 73.7335205078125 95 47.5 95 C 21.2664794921875 95 0 73.7335205078125 0 47.5 C 0 21.2664794921875 21.2664794921875 0 47.5 0 Z" stroke="none" fill="#2e5bb6"/>
                        </g>
                      </g>
                    </g>
                  </g>
                </g>
              </g>
            </g>
          </g>
        </g>
      </g>
    </g>
    <g id="infraestructura" transform="translate(604.007 913.928)">
      <g id="Grupo_1168642" data-name="Grupo 1168642" transform="translate(8.985 14.063)">
        <g id="Grupo_1168629" data-name="Grupo 1168629" transform="translate(5.554 4.486)">
          <g id="Grupo_1168606" data-name="Grupo 1168606" transform="translate(18.673)">
            <g id="Grupo_1168604" data-name="Grupo 1168604">
              <path id="Trazado_1013457" data-name="Trazado 1013457" d="M211.512,63.358h9.7V57.895a.621.621,0,0,0-.62-.62h-8.464a.621.621,0,0,0-.62.62Z" transform="translate(-211.512 -57.275)" fill="#9facba" fill-rule="evenodd"/>
            </g>
            <g id="Grupo_1168605" data-name="Grupo 1168605" transform="translate(7.845)">
              <path id="Trazado_1013458" data-name="Trazado 1013458" d="M275.44,63.358h1.239V57.895a.621.621,0,0,0-.62-.62H274.82a.621.621,0,0,1,.62.62Z" transform="translate(-274.82 -57.275)" fill="#8d9ca8" fill-rule="evenodd"/>
            </g>
          </g>
          <g id="Grupo_1168607" data-name="Grupo 1168607" transform="translate(15.274 3.71)">
            <path id="Trazado_1013459" data-name="Trazado 1013459" d="M184.945,87.214h14.768a.869.869,0,0,1,.867.867v24.578h-16.5V88.081A.869.869,0,0,1,184.945,87.214Z" transform="translate(-184.078 -87.214)" fill="#8192a5" fill-rule="evenodd"/>
          </g>
          <g id="Grupo_1168610" data-name="Grupo 1168610" transform="translate(6.441 8.416)">
            <g id="Grupo_1168608" data-name="Grupo 1168608" transform="translate(0 0)">
              <path id="Trazado_1013460" data-name="Trazado 1013460" d="M113.664,125.25l7.965,3.476v17.209h2.24v7.348H112.8V125.818a.62.62,0,0,1,.867-.568Z" transform="translate(-112.797 -125.196)" fill="#8192a5" fill-rule="evenodd"/>
            </g>
            <g id="Grupo_1168609" data-name="Grupo 1168609" transform="translate(0.111)">
              <path id="Trazado_1013461" data-name="Trazado 1013461" d="M114.449,125.25l7.965,3.476v17.209h-1.239V128.726l-7.483-3.265a.63.63,0,0,1,.169-.161A.6.6,0,0,1,114.449,125.25Z" transform="translate(-113.693 -125.196)" fill="#65788e" fill-rule="evenodd"/>
            </g>
          </g>
          <g id="Grupo_1168613" data-name="Grupo 1168613" transform="translate(19.183 7.619)">
            <g id="Grupo_1168611" data-name="Grupo 1168611">
              <path id="Trazado_1013462" data-name="Trazado 1013462" d="M216.243,118.758h7.446a.621.621,0,0,1,.62.62v7.446a.621.621,0,0,1-.62.62h-7.446a.621.621,0,0,1-.62-.62v-7.446A.621.621,0,0,1,216.243,118.758Z" transform="translate(-215.623 -118.758)" fill="#d8ecfe" fill-rule="evenodd"/>
            </g>
            <g id="Grupo_1168612" data-name="Grupo 1168612" transform="translate(6.826)">
              <path id="Trazado_1013463" data-name="Trazado 1013463" d="M270.709,118.758h1.239a.621.621,0,0,1,.62.62v7.446a.621.621,0,0,1-.62.62h-1.239a.621.621,0,0,0,.62-.62v-7.446A.621.621,0,0,0,270.709,118.758Z" transform="translate(-270.709 -118.758)" fill="#c4e2ff" fill-rule="evenodd"/>
            </g>
          </g>
          <g id="Grupo_1168616" data-name="Grupo 1168616" transform="translate(37.16 0)">
            <g id="Grupo_1168614" data-name="Grupo 1168614">
              <path id="Trazado_1013464" data-name="Trazado 1013464" d="M360.7,57.276h4.506V73.927H360.7Z" transform="translate(-360.704 -57.276)" fill="#9facba" fill-rule="evenodd"/>
            </g>
            <g id="Grupo_1168615" data-name="Grupo 1168615" transform="translate(3.266)">
              <path id="Trazado_1013465" data-name="Trazado 1013465" d="M387.063,57.276H388.3V73.927h-1.239Z" transform="translate(-387.063 -57.276)" fill="#8d9ca8" fill-rule="evenodd"/>
            </g>
          </g>
          <g id="Grupo_1168619" data-name="Grupo 1168619" transform="translate(37.16 5.197)">
            <g id="Grupo_1168617" data-name="Grupo 1168617">
              <path id="Trazado_1013466" data-name="Trazado 1013466" d="M360.7,99.219h4.506v3.124H360.7Z" transform="translate(-360.704 -99.219)" fill="#eceff1" fill-rule="evenodd"/>
            </g>
            <g id="Grupo_1168618" data-name="Grupo 1168618" transform="translate(3.266)">
              <path id="Trazado_1013467" data-name="Trazado 1013467" d="M387.063,99.219H388.3v3.124h-1.239Z" transform="translate(-387.063 -99.219)" fill="#d1d1d6" fill-rule="evenodd"/>
            </g>
          </g>
          <g id="Grupo_1168622" data-name="Grupo 1168622" transform="translate(31.776 13.519)">
            <g id="Grupo_1168620" data-name="Grupo 1168620">
              <path id="Trazado_1013468" data-name="Trazado 1013468" d="M331.66,166.376H317.254v15.636h15.274V167.243A.869.869,0,0,0,331.66,166.376Z" transform="translate(-317.254 -166.376)" fill="#8192a5" fill-rule="evenodd"/>
            </g>
            <g id="Grupo_1168621" data-name="Grupo 1168621">
              <path id="Trazado_1013469" data-name="Trazado 1013469" d="M317.254,166.376h1.239v15.636h-1.239Z" transform="translate(-317.254 -166.376)" fill="#65788e" fill-rule="evenodd"/>
            </g>
          </g>
          <g id="Grupo_1168625" data-name="Grupo 1168625" transform="translate(0 13.519)">
            <g id="Grupo_1168623" data-name="Grupo 1168623">
              <path id="Trazado_1013470" data-name="Trazado 1013470" d="M61.684,166.376h5.574v15.636H60.817V167.243A.869.869,0,0,1,61.684,166.376Z" transform="translate(-60.817 -166.376)" fill="#8192a5" fill-rule="evenodd"/>
            </g>
            <g id="Grupo_1168624" data-name="Grupo 1168624" transform="translate(5.202)">
              <path id="Trazado_1013471" data-name="Trazado 1013471" d="M102.8,166.376h1.239v15.636H102.8Z" transform="translate(-102.797 -166.376)" fill="#65788e" fill-rule="evenodd"/>
            </g>
          </g>
          <g id="Grupo_1168628" data-name="Grupo 1168628" transform="translate(34.814 18.993)">
            <g id="Grupo_1168626" data-name="Grupo 1168626">
              <path id="Trazado_1013472" data-name="Trazado 1013472" d="M350.346,210.552h-7.96a.621.621,0,0,0-.62.62v3.449a.621.621,0,0,0,.62.62h7.96a.621.621,0,0,0,.62-.62v-3.449A.621.621,0,0,0,350.346,210.552Z" transform="translate(-341.767 -210.552)" fill="#d8ecfe" fill-rule="evenodd"/>
            </g>
            <g id="Grupo_1168627" data-name="Grupo 1168627" transform="translate(7.34)">
              <path id="Trazado_1013473" data-name="Trazado 1013473" d="M402.241,210.552H401a.621.621,0,0,1,.62.62v3.449a.621.621,0,0,1-.62.62h1.239a.621.621,0,0,0,.62-.62v-3.449A.621.621,0,0,0,402.241,210.552Z" transform="translate(-401.002 -210.552)" fill="#c4e2ff" fill-rule="evenodd"/>
            </g>
          </g>
        </g>
        <g id="Grupo_1168635" data-name="Grupo 1168635" transform="translate(2.467 31.611)">
          <g id="Grupo_1168630" data-name="Grupo 1168630" transform="translate(0 0)">
            <path id="Trazado_1013474" data-name="Trazado 1013474" d="M89.13,276.171v3.6l-4.41,1.7a22.718,22.718,0,0,1-2.757,6.65l1.919,4.322-5.093,5.093-4.32-1.919a22.7,22.7,0,0,1-6.652,2.758l-1.7,4.409h-7.2l-1.7-4.41a22.71,22.71,0,0,1-6.65-2.757l-4.322,1.919-5.093-5.093,1.919-4.32a22.716,22.716,0,0,1-2.758-6.652l-4.409-1.7v-3.6Z" transform="translate(-35.906 -276.171)" fill="#ffe177" fill-rule="evenodd"/>
          </g>
          <g id="Grupo_1168631" data-name="Grupo 1168631" transform="translate(9.579 0)">
            <path id="Trazado_1013475" data-name="Trazado 1013475" d="M156.852,276.171v3.6l-4.41,1.7a22.718,22.718,0,0,1-2.757,6.65l1.919,4.322-5.093,5.093-1.716-.762,4.331-4.331-1.919-4.322a22.711,22.711,0,0,0,2.757-6.65l4.41-1.7v-3.6Zm-14.661,19.445a23.834,23.834,0,0,1-6.652,2.758l-1.7,4.409h-2.478l1.7-4.409a31.106,31.106,0,0,0,7.728-3.38Zm-23.9,0-4.322,1.919-.762-.762,4.008-1.78Q117.745,295.319,118.291,295.616Z" transform="translate(-113.207 -276.171)" fill="#ffd064" fill-rule="evenodd"/>
          </g>
          <g id="Grupo_1168634" data-name="Grupo 1168634" transform="translate(15.73)">
            <g id="Grupo_1168632" data-name="Grupo 1168632" transform="translate(0 0)">
              <path id="Trazado_1013476" data-name="Trazado 1013476" d="M162.851,276.171h21.763a10.882,10.882,0,0,1-21.763,0Z" transform="translate(-162.851 -276.171)" fill="#eceff1" fill-rule="evenodd"/>
            </g>
            <g id="Grupo_1168633" data-name="Grupo 1168633" transform="translate(0)">
              <path id="Trazado_1013477" data-name="Trazado 1013477" d="M162.851,276.171h1.239a10.882,10.882,0,0,0,10.262,10.864c-.205.012-.412.018-.62.018A10.882,10.882,0,0,1,162.851,276.171Z" transform="translate(-162.851 -276.171)" fill="#d1d1d6" fill-rule="evenodd"/>
            </g>
          </g>
        </g>
        <g id="Grupo_1168638" data-name="Grupo 1168638" transform="translate(52.448 0)">
          <g id="Grupo_1168636" data-name="Grupo 1168636">
            <path id="Trazado_1013478" data-name="Trazado 1013478" d="M445.884,25.828a.4.4,0,0,0,.317-.652l-3.112-3.952a.4.4,0,0,0-.633,0l-3.112,3.952a.4.4,0,0,0,.317.652h1.292v6.888a.621.621,0,0,0,.62.62h2.4a.621.621,0,0,0,.62-.62V25.828Z" transform="translate(-439.257 -21.07)" fill="#6cf5c2" fill-rule="evenodd"/>
          </g>
          <g id="Grupo_1168637" data-name="Grupo 1168637" transform="translate(0.404)">
            <path id="Trazado_1013479" data-name="Trazado 1013479" d="M448.739,25.828a.4.4,0,0,0,.317-.652l-3.112-3.952a.4.4,0,0,0-.633,0l-.3.385,2.809,3.567a.4.4,0,0,1-.317.652h1.239Zm-6.223,0h0Zm3.072,7.507a.621.621,0,0,0,.62-.62V25.828h1.239v6.887a.621.621,0,0,1-.62.62h-1.239Z" transform="translate(-442.516 -21.07)" fill="#00e499" fill-rule="evenodd"/>
          </g>
        </g>
        <g id="Grupo_1168641" data-name="Grupo 1168641" transform="translate(0 0)">
          <g id="Grupo_1168639" data-name="Grupo 1168639">
            <path id="Trazado_1013480" data-name="Trazado 1013480" d="M22.627,25.828a.4.4,0,0,0,.317-.652l-3.112-3.952a.4.4,0,0,0-.633,0l-3.112,3.952a.4.4,0,0,0,.317.652H17.7v6.888a.621.621,0,0,0,.62.62h2.4a.621.621,0,0,0,.62-.62V25.828Z" transform="translate(-15.999 -21.07)" fill="#6cf5c2" fill-rule="evenodd"/>
          </g>
          <g id="Grupo_1168640" data-name="Grupo 1168640" transform="translate(0.404)">
            <path id="Trazado_1013481" data-name="Trazado 1013481" d="M25.483,25.828a.4.4,0,0,0,.317-.652l-3.112-3.952a.4.4,0,0,0-.633,0l-.3.385,2.809,3.567a.4.4,0,0,1-.317.652h1.239Zm-6.223,0h0Zm3.072,7.507a.621.621,0,0,0,.62-.62V25.828h1.239v6.887a.621.621,0,0,1-.62.62H22.332Z" transform="translate(-19.26 -21.07)" fill="#00e499" fill-rule="evenodd"/>
          </g>
        </g>
      </g>
      <g id="Grupo_1168643" data-name="Grupo 1168643" transform="translate(7.993 13.072)">
        <path id="Trazado_1013482" data-name="Trazado 1013482" d="M10.6,17.83l1.9-2.413,1.9,2.413h-.076a.991.991,0,0,0-.992.991v6.516H11.675V18.821a.993.993,0,0,0-.992-.991H10.6Zm3.721,9.489a1,1,0,0,0,.992-.991V19.813h.3a1.395,1.395,0,0,0,1.1-2.256L13.6,13.6a1.4,1.4,0,0,0-2.193,0L8.292,17.556a1.395,1.395,0,0,0,1.1,2.256h.3v6.516a.991.991,0,0,0,.992.991ZM66.768,17.83a.991.991,0,0,0-.992.991v6.516H64.12V18.821a.993.993,0,0,0-.992-.991h-.082l1.9-2.413,1.9,2.413h-.082Zm2.385-.274L66.045,13.6a1.4,1.4,0,0,0-2.193,0l-3.109,3.953a1.391,1.391,0,0,0,1.1,2.256h.3v6.516a.991.991,0,0,0,.992.991h3.639a.991.991,0,0,0,.992-.991V19.813h.3a1.391,1.391,0,0,0,1.091-2.256ZM63.683,48.594l-3.774,1.454a1,1,0,0,0-.607.7A21.779,21.779,0,0,1,56.667,57.1a.977.977,0,0,0-.064.922l1.645,3.7-4.129,4.13-3.7-1.642a.99.99,0,0,0-.922.062,21.8,21.8,0,0,1-6.363,2.637,1,1,0,0,0-.7.608l-1.452,3.773H35.145L33.692,67.52A1,1,0,0,0,33,66.911a21.6,21.6,0,0,1-6.363-2.637.992.992,0,0,0-.922-.062l-3.7,1.643-4.129-4.13,1.645-3.7a.977.977,0,0,0-.064-.922,21.751,21.751,0,0,1-2.636-6.362,1,1,0,0,0-.607-.7L12.445,48.6V46.665H26.233a11.873,11.873,0,0,0,23.663,0H63.683v1.929ZM15.53,33.06h4.462V44.682H15.53Zm13.292-1.916V44.682H21.975V28.156Zm16.5-7.893V44.682H30.805V23.251Zm-11.117-3.71h7.716v1.727H34.205Zm13.7,27.124H28.221a9.892,9.892,0,0,0,19.685,0ZM60.6,33.06V44.682H47.305V33.06Zm-7.909-5.2h2.525v3.214H52.689Zm2.525-8.322v3.214H52.689V19.541Zm-2.525,5.2h2.525v1.142H52.689ZM64.674,44.682H62.581V32.069a.991.991,0,0,0-.992-.991H57.2V19.541h.268a.991.991,0,1,0,0-1.983H50.437a.991.991,0,1,0,0,1.983h.274V31.078H47.305V22.26a.991.991,0,0,0-.992-.991H43.9V18.55a.991.991,0,0,0-.992-.991h-9.7a.991.991,0,0,0-.992.991v2.719H29.814a.991.991,0,0,0-.992.991v6.722L21.38,25.733a1,1,0,0,0-.945.079.984.984,0,0,0-.443.829v4.436H14.538a.991.991,0,0,0-.992.991V44.682H11.453a.992.992,0,0,0-.992.991v3.6a.986.986,0,0,0,.636.924l3.925,1.513a23.7,23.7,0,0,0,2.479,5.98l-1.709,3.849a1,1,0,0,0,.2,1.1l5.1,5.093a.989.989,0,0,0,1.1.206l3.849-1.71a23.787,23.787,0,0,0,5.978,2.478l1.516,3.929a.986.986,0,0,0,.922.634h7.2a1,1,0,0,0,.927-.634L44.1,68.714a23.616,23.616,0,0,0,5.978-2.48l3.85,1.71a.99.99,0,0,0,1.1-.206l5.1-5.093a1,1,0,0,0,.2-1.1l-1.709-3.85A23.721,23.721,0,0,0,61.1,51.713L65.03,50.2a.986.986,0,0,0,.636-.924v-3.6a.991.991,0,0,0-.991-.991ZM43.4,38.687a.992.992,0,0,0-.992-.991H33.721a.991.991,0,1,0,0,1.983h8.685A.991.991,0,0,0,43.4,38.687ZM34.713,27.159v6.7h6.7v-6.7Zm-.992,8.685h8.685a.991.991,0,0,0,.992-.991V26.168a.991.991,0,0,0-.992-.991H33.721a.991.991,0,0,0-.992.991v8.685a.991.991,0,0,0,.992.991Zm16.623,2.69V41.24h7.215V38.535Zm-.992,4.688h9.2a.991.991,0,0,0,.992-.991V37.544a.991.991,0,0,0-.992-.991h-9.2a.991.991,0,0,0-.992.991v4.688A.991.991,0,0,0,49.352,43.223Z" transform="translate(-7.993 -13.072)" fill="#242222" fill-rule="evenodd"/>
      </g>
    </g>
  </g>
</svg>
