<svg xmlns="http://www.w3.org/2000/svg" xmlns:xlink="http://www.w3.org/1999/xlink" width="113" height="113" viewBox="0 0 113 113">
  <defs>
    <filter id="Trazado_982547" x="0" y="0" width="113" height="113" filterUnits="userSpaceOnUse">
      <feOffset dy="3" input="SourceAlpha"/>
      <feGaussianBlur stdDeviation="3" result="blur"/>
      <feFlood flood-opacity="0.161"/>
      <feComposite operator="in" in2="blur"/>
      <feComposite in="SourceGraphic"/>
    </filter>
  </defs>
  <g id="Grupo_1168598" data-name="Grupo 1168598" transform="translate(-171 -3281)">
    <g id="Grupo_1167519" data-name="Grupo 1167519" transform="translate(180 3287)">
      <g id="Grupo_1166845" data-name="Grupo 1166845" transform="translate(0)">
        <g id="Grupo_1166720" data-name="Grupo 1166720">
          <g id="Grupo_1164305" data-name="Grupo 1164305">
            <g id="Grupo_1163948" data-name="Grupo 1163948">
              <g id="Grupo_1158168" data-name="Grupo 1158168">
                <g id="Grupo_1152576" data-name="Grupo 1152576">
                  <g id="Grupo_1148633" data-name="Grupo 1148633">
                    <g id="Grupo_1148525" data-name="Grupo 1148525">
                      <g transform="matrix(1, 0, 0, 1, -9, -6)" filter="url(#Trazado_982547)">
                        <g id="Trazado_982547-2" data-name="Trazado 982547" transform="translate(9 6)" fill="#e4f2f4">
                          <path d="M 47.5 93.5 C 41.28937149047852 93.5 35.26533508300781 92.28397369384766 29.59518623352051 89.88570404052734 C 24.11771965026855 87.56893157958984 19.19813346862793 84.25196075439453 14.97309303283691 80.02691650390625 C 10.74804019927979 75.80186462402344 7.431066513061523 70.88229370117188 5.114293098449707 65.40481567382812 C 2.716026782989502 59.73468017578125 1.5 53.71062850952148 1.5 47.5 C 1.5 41.28937149047852 2.716026782989502 35.26533508300781 5.114293098449707 29.59518623352051 C 7.431066513061523 24.11771965026855 10.74804019927979 19.19813346862793 14.97309303283691 14.97309303283691 C 19.19813346862793 10.74804019927979 24.11771965026855 7.431066513061523 29.59518623352051 5.114293098449707 C 35.26533508300781 2.716026782989502 41.28937149047852 1.5 47.5 1.5 C 53.71062850952148 1.5 59.73468017578125 2.716026782989502 65.40481567382812 5.114293098449707 C 70.88229370117188 7.431066513061523 75.80186462402344 10.74804019927979 80.02691650390625 14.97309303283691 C 84.25196075439453 19.19813346862793 87.56893157958984 24.11771965026855 89.88570404052734 29.59518623352051 C 92.28397369384766 35.26533508300781 93.5 41.28937149047852 93.5 47.5 C 93.5 53.71062850952148 92.28397369384766 59.73468017578125 89.88570404052734 65.40481567382812 C 87.56893157958984 70.88229370117188 84.25196075439453 75.80186462402344 80.02691650390625 80.02691650390625 C 75.80186462402344 84.25196075439453 70.88229370117188 87.56893157958984 65.40481567382812 89.88570404052734 C 59.73468017578125 92.28397369384766 53.71062850952148 93.5 47.5 93.5 Z" stroke="none"/>
                          <path d="M 47.5 3 C 41.49121475219727 3 35.66376876831055 4.176155090332031 30.17950439453125 6.495796203613281 C 24.88084411621094 8.736953735351562 20.12152099609375 11.94598388671875 16.03375244140625 16.03375244140625 C 11.94598388671875 20.12152099609375 8.736953735351562 24.88084411621094 6.495796203613281 30.17950439453125 C 4.176155090332031 35.66376876831055 3 41.49121475219727 3 47.5 C 3 53.50878524780273 4.176155090332031 59.33623123168945 6.495796203613281 64.82049560546875 C 8.736953735351562 70.11915588378906 11.94598388671875 74.87847900390625 16.03375244140625 78.96624755859375 C 20.12152099609375 83.05401611328125 24.88084411621094 86.26304626464844 30.17950439453125 88.50419616699219 C 35.66376876831055 90.82384490966797 41.49121475219727 92 47.5 92 C 53.50878524780273 92 59.33623123168945 90.82384490966797 64.82049560546875 88.50419616699219 C 70.11915588378906 86.26304626464844 74.87847900390625 83.05401611328125 78.96624755859375 78.96624755859375 C 83.05401611328125 74.87847900390625 86.26304626464844 70.11915588378906 88.50419616699219 64.82049560546875 C 90.82384490966797 59.33623123168945 92 53.50878524780273 92 47.5 C 92 41.49121475219727 90.82384490966797 35.66376876831055 88.50419616699219 30.17950439453125 C 86.26304626464844 24.88084411621094 83.05401611328125 20.12152099609375 78.96624755859375 16.03375244140625 C 74.87847900390625 11.94598388671875 70.11915588378906 8.736953735351562 64.82049560546875 6.495796203613281 C 59.33623123168945 4.176155090332031 53.50878524780273 3 47.5 3 M 47.5 0 C 73.7335205078125 0 95 21.2664794921875 95 47.5 C 95 73.7335205078125 73.7335205078125 95 47.5 95 C 21.2664794921875 95 0 73.7335205078125 0 47.5 C 0 21.2664794921875 21.2664794921875 0 47.5 0 Z" stroke="none" fill="#01899b"/>
                        </g>
                      </g>
                    </g>
                  </g>
                </g>
              </g>
            </g>
          </g>
        </g>
      </g>
    </g>
    <g id="calculation" transform="translate(199 3276.89)">
      <g id="Grupo_1168577" data-name="Grupo 1168577" transform="translate(34.638 74.221)">
        <g id="Grupo_1168575" data-name="Grupo 1168575">
          <path id="Trazado_1013417" data-name="Trazado 1013417" d="M330.428,415.552H310.4a.9.9,0,0,1-.9-.9v-5.372a.9.9,0,0,1,.9-.9h20.033a.9.9,0,0,1,.9.9v5.372A.9.9,0,0,1,330.428,415.552Z" transform="translate(-309.5 -408.389)" fill="#ffd15b"/>
        </g>
        <g id="Grupo_1168576" data-name="Grupo 1168576" transform="translate(16.396)">
          <path id="Trazado_1013418" data-name="Trazado 1013418" d="M460.533,408.389H456a.9.9,0,0,1,.9.9v5.372a.9.9,0,0,1-.9.9h4.533a.9.9,0,0,0,.9-.9v-5.372A.9.9,0,0,0,460.533,408.389Z" transform="translate(-456 -408.389)" fill="#ffc344"/>
        </g>
      </g>
      <g id="Grupo_1168596" data-name="Grupo 1168596" transform="translate(0.839 32.949)">
        <path id="Trazado_1013419" data-name="Trazado 1013419" d="M62,39.611H8.619A1.119,1.119,0,0,0,7.5,40.73V76.349a1.119,1.119,0,0,0,1.119,1.119h3.508V56.562a1.679,1.679,0,0,1,1.679-1.679H36.629a1.679,1.679,0,0,1,1.679,1.679V77.468H62a1.119,1.119,0,0,0,1.119-1.119V40.73A1.119,1.119,0,0,0,62,39.611Z" transform="translate(-7.5 -39.611)" fill="#f2fbff"/>
        <g id="Grupo_1168578" data-name="Grupo 1168578" transform="translate(49.075)">
          <path id="Trazado_1013420" data-name="Trazado 1013420" d="M451.428,39.611H446a1.119,1.119,0,0,1,1.119,1.119V76.349A1.119,1.119,0,0,1,446,77.468h5.428a1.119,1.119,0,0,0,1.119-1.119V40.73A1.119,1.119,0,0,0,451.428,39.611Z" transform="translate(-446 -39.611)" fill="#dff6fd"/>
        </g>
        <g id="Grupo_1168582" data-name="Grupo 1168582" transform="translate(35.674 19.108)">
          <g id="Grupo_1168579" data-name="Grupo 1168579">
            <circle id="Elipse_11806" data-name="Elipse 11806" cx="7.312" cy="7.312" r="7.312" fill="#00f2a6"/>
          </g>
          <g id="Grupo_1168580" data-name="Grupo 1168580" transform="translate(0)">
            <path id="Trazado_1013421" data-name="Trazado 1013421" d="M333.569,217.663v-7.312a7.312,7.312,0,0,0-7.312,7.312Z" transform="translate(-326.257 -210.351)" fill="#ffd15b"/>
          </g>
          <g id="Grupo_1168581" data-name="Grupo 1168581" transform="translate(2.037 0.421)">
            <path id="Trazado_1013422" data-name="Trazado 1013422" d="M352.184,214.116a7.312,7.312,0,0,1-7.724,11.952,7.312,7.312,0,1,0,7.724-11.952Z" transform="translate(-344.46 -214.116)" fill="#0ed290"/>
          </g>
        </g>
        <g id="Grupo_1168592" data-name="Grupo 1168592" transform="translate(4.627 15.272)">
          <g id="Grupo_1168583" data-name="Grupo 1168583" transform="translate(0 0)">
            <path id="Trazado_1013423" data-name="Trazado 1013423" d="M73.347,209.237H50.524a1.679,1.679,0,0,1-1.679-1.679v-29.8a1.679,1.679,0,0,1,1.679-1.679H73.347a1.679,1.679,0,0,1,1.679,1.679v29.8A1.679,1.679,0,0,1,73.347,209.237Z" transform="translate(-48.845 -176.075)" fill="#26a6fe"/>
          </g>
          <g id="Grupo_1168584" data-name="Grupo 1168584" transform="translate(2.909 2.909)">
            <path id="Trazado_1013424" data-name="Trazado 1013424" d="M74.838,207.3v-4.677a.56.56,0,0,1,.56-.56H94.641a.56.56,0,0,1,.56.56V207.3Z" transform="translate(-74.838 -202.067)" fill="#fff"/>
          </g>
          <path id="Trazado_1013425" data-name="Trazado 1013425" d="M224.4,176.075h-5.467a1.679,1.679,0,0,1,1.679,1.679v1.23h2a.56.56,0,0,1,.56.56v26.225a.56.56,0,0,1-.56.56h-2v1.23a1.679,1.679,0,0,1-1.679,1.679H224.4a1.679,1.679,0,0,0,1.679-1.679v-29.8A1.679,1.679,0,0,0,224.4,176.075Z" transform="translate(-199.898 -176.075)" fill="#0593fc"/>
          <g id="Grupo_1168585" data-name="Grupo 1168585" transform="translate(2.909 8.145)">
            <path id="Trazado_1013426" data-name="Trazado 1013426" d="M75.4,270.962H94.641a.56.56,0,0,0,.56-.56V248.854H74.838V270.4A.56.56,0,0,0,75.4,270.962Z" transform="translate(-74.838 -248.854)" fill="#fff"/>
          </g>
          <g id="Grupo_1168586" data-name="Grupo 1168586" transform="translate(2.909 8.145)">
            <path id="Trazado_1013427" data-name="Trazado 1013427" d="M75.4,270.962H94.641a.56.56,0,0,0,.56-.56V248.854H74.838V270.4A.56.56,0,0,0,75.4,270.962Z" transform="translate(-74.838 -248.854)" fill="#9facba"/>
          </g>
          <g id="Grupo_1168587" data-name="Grupo 1168587" transform="translate(19.826 8.145)">
            <path id="Trazado_1013428" data-name="Trazado 1013428" d="M226.56,248.854V270.4a.56.56,0,0,1-.56.56h2.886a.56.56,0,0,0,.56-.56V248.854Z" transform="translate(-226 -248.854)" fill="#8d9ca8"/>
          </g>
          <g id="Grupo_1168588" data-name="Grupo 1168588" transform="translate(19.826 2.909)">
            <path id="Trazado_1013429" data-name="Trazado 1013429" d="M228.886,202.067H226a.56.56,0,0,1,.56.56V207.3h2.886v-4.677A.56.56,0,0,0,228.886,202.067Z" transform="translate(-226 -202.067)" fill="#f2fbff"/>
          </g>
          <g id="Grupo_1168590" data-name="Grupo 1168590" transform="translate(16.477 19.199)">
            <g id="Grupo_1168589" data-name="Grupo 1168589">
              <path id="Trazado_1013430" data-name="Trazado 1013430" d="M196.073,347.625v11.054h6.235a.56.56,0,0,0,.56-.56V347.625Z" transform="translate(-196.073 -347.625)" fill="#ffd15b"/>
            </g>
          </g>
          <g id="Grupo_1168591" data-name="Grupo 1168591" transform="translate(19.826 19.199)">
            <path id="Trazado_1013431" data-name="Trazado 1013431" d="M226.56,347.625V358.12a.56.56,0,0,1-.559.56h2.886a.56.56,0,0,0,.559-.56V347.625Z" transform="translate(-226.001 -347.625)" fill="#ffc344"/>
          </g>
        </g>
        <g id="Grupo_1168593" data-name="Grupo 1168593" transform="translate(4.627 7.84)">
          <path id="Trazado_1013432" data-name="Trazado 1013432" d="M74.466,113.261H49.4a.56.56,0,0,1-.56-.56v-2.477a.56.56,0,0,1,.56-.56H74.466a.56.56,0,0,1,.56.56V112.7A.56.56,0,0,1,74.466,113.261Z" transform="translate(-48.845 -109.665)" fill="#8ac9fe"/>
        </g>
        <g id="Grupo_1168594" data-name="Grupo 1168594" transform="translate(4.627 7.84)">
          <path id="Trazado_1013433" data-name="Trazado 1013433" d="M74.466,113.261H49.4a.56.56,0,0,1-.56-.56v-2.477a.56.56,0,0,1,.56-.56H74.466a.56.56,0,0,1,.56.56V112.7A.56.56,0,0,1,74.466,113.261Z" transform="translate(-48.845 -109.665)" fill="#8ac9fe"/>
        </g>
        <g id="Grupo_1168595" data-name="Grupo 1168595" transform="translate(4.627 7.84)">
          <path id="Trazado_1013434" data-name="Trazado 1013434" d="M49.4,109.665a.56.56,0,0,0-.56.56V112.7a.56.56,0,0,0,.56.56H67.713v-3.6Z" transform="translate(-48.845 -109.665)" fill="#fd6930"/>
        </g>
      </g>
      <g id="Grupo_1168597" data-name="Grupo 1168597" transform="translate(0 32.11)">
        <path id="Trazado_1013435" data-name="Trazado 1013435" d="M323.768,400.89h-4.98a.839.839,0,0,0,0,1.679h4.98a.056.056,0,0,1,.056.056V408a.056.056,0,0,1-.056.056H303.735a.056.056,0,0,1-.056-.056v-5.372a.056.056,0,0,1,.056-.056H314.87a.839.839,0,0,0,0-1.679H303.735A1.737,1.737,0,0,0,302,402.625V408a1.737,1.737,0,0,0,1.735,1.735h20.033A1.737,1.737,0,0,0,325.5,408v-5.372A1.737,1.737,0,0,0,323.768,400.89Z" transform="translate(-268.202 -359.618)"/>
        <path id="Trazado_1013436" data-name="Trazado 1013436" d="M330.5,433.729a.839.839,0,0,0,.839.839h15.444a.839.839,0,0,0,0-1.679H331.339A.839.839,0,0,0,330.5,433.729Z" transform="translate(-293.512 -388.037)"/>
        <path id="Trazado_1013437" data-name="Trazado 1013437" d="M55.342,32.11H41.073a.839.839,0,1,0,0,1.679H55.342a.28.28,0,0,1,.28.28V69.688a.28.28,0,0,1-.28.28H32.487V53.437h4.387l.7.7a8.176,8.176,0,1,0,1.205-1.169L37.815,52a.839.839,0,0,0-.593-.246H32.487V49.9a2.521,2.521,0,0,0-2.518-2.518H7.145A2.521,2.521,0,0,0,4.627,49.9V69.967H1.959a.28.28,0,0,1-.28-.28V34.069a.28.28,0,0,1,.28-.28h35.2a.839.839,0,1,0,0-1.679H1.959A1.961,1.961,0,0,0,0,34.069V69.688a1.961,1.961,0,0,0,1.959,1.959H4.627v8.059a2.521,2.521,0,0,0,2.518,2.518H29.968a2.521,2.521,0,0,0,2.518-2.518V71.646H55.342A1.961,1.961,0,0,0,57.3,69.688V34.069a1.961,1.961,0,0,0-1.959-1.959ZM44.665,59.37V52.953a6.472,6.472,0,1,1-7.256,7.256h6.417A.839.839,0,0,0,44.665,59.37Zm-5.893-4.036.554.554A.839.839,0,1,0,40.512,54.7l-.531-.531a6.438,6.438,0,0,1,3.005-1.216v5.577H37.409a6.441,6.441,0,0,1,1.363-3.2ZM30.808,79.705a.84.84,0,0,1-.839.839H7.145a.84.84,0,0,1-.839-.839V49.9a.84.84,0,0,1,.839-.839H29.968a.84.84,0,0,1,.839.839Z" transform="translate(0 -32.11)"/>
        <path id="Trazado_1013438" data-name="Trazado 1013438" d="M315.367,83.674v-9.59a.839.839,0,0,0-1.679,0v9.59h-.321a.839.839,0,0,0,0,1.679h16.019a.839.839,0,0,0,0-1.679h-.321V75.043a.839.839,0,1,0-1.679,0v8.631h-1.746V80.438a.839.839,0,1,0-1.679,0v3.236h-1.746V77.012a.839.839,0,1,0-1.679,0v6.662h-1.746v-5.2a.839.839,0,1,0-1.679,0v5.2h-1.746Z" transform="translate(-277.551 -68.641)"/>
        <path id="Trazado_1013439" data-name="Trazado 1013439" d="M41.345,106.041a1.4,1.4,0,0,0,1.4,1.4H67.806a1.4,1.4,0,0,0,1.4-1.4v-2.477a1.4,1.4,0,0,0-1.4-1.4H42.744a1.4,1.4,0,0,0-1.4,1.4Zm26.181-.28H61.892v-1.918h5.634Zm-24.5-1.918h17.19v1.918H43.024Z" transform="translate(-36.718 -94.325)"/>
        <path id="Trazado_1013440" data-name="Trazado 1013440" d="M61.053,74.924a.839.839,0,1,0,0-1.679H42.184a.839.839,0,1,0,0,1.679Z" transform="translate(-36.718 -68.641)"/>
        <path id="Trazado_1013441" data-name="Trazado 1013441" d="M87.981,194.567H76.7a.839.839,0,0,0,0,1.679h11V199.8H69.017v-3.557h3.767a.839.839,0,0,0,0-1.679H68.737a1.4,1.4,0,0,0-1.4,1.4v26.225a1.4,1.4,0,0,0,1.4,1.4H87.981a1.4,1.4,0,0,0,1.4-1.4V195.966A1.4,1.4,0,0,0,87.981,194.567ZM74.133,221.911H69.017v-3.848h5.116Zm0-5.527H69.017v-3.848h5.116Zm0-5.527H69.017v-3.848h5.116Zm0-5.527H69.017v-3.848h5.116Zm6.773,16.581H75.811v-3.848h5.095Zm0-5.527H75.811v-3.848h5.095Zm0-5.527H75.811v-3.848h5.095Zm0-5.527H75.811v-3.848h5.095ZM87.7,221.911H82.585v-9.375H87.7Zm0-11.054H82.585v-3.848H87.7Zm0-5.527H82.585v-3.848H87.7Z" transform="translate(-59.802 -176.386)"/>
      </g>
    </g>
  </g>
</svg>
